<?xml version="1.0" encoding="UTF-8"?>
<svg version="1.1" xmlns="http://www.w3.org/2000/svg" width="200" height="200">
<path d="M0 0 C8.58 0 17.16 0 26 0 C26 0.66 26 1.32 26 2 C27.98 2 29.96 2 32 2 C32 2.66 32 3.32 32 4 C33.32 4 34.64 4 36 4 C36 4.66 36 5.32 36 6 C36.66 6 37.32 6 38 6 C38 6.66 38 7.32 38 8 C42.96080215 9.56524037 48.21856776 9.22579082 53.37109375 9.328125 C57.78119588 10.14463476 59.27693409 11.50262718 62 15 C62.3125 17.8125 62.3125 17.8125 62 20 C62.61488281 19.96519531 63.22976562 19.93039063 63.86328125 19.89453125 C64.67152344 19.86746094 65.47976562 19.84039062 66.3125 19.8125 C67.51326172 19.76029297 67.51326172 19.76029297 68.73828125 19.70703125 C71 20 71 20 72.79296875 21.32421875 C74 23 74 23 74 26 C75.98 26 77.96 26 80 26 C80 26.66 80 27.32 80 28 C80.66 28 81.32 28 82 28 C82 28.66 82 29.32 82 30 C82.66 30 83.32 30 84 30 C84 34.62 84 39.24 84 44 C83.34 44 82.68 44 82 44 C82 44.66 82 45.32 82 46 C81.34 46 80.68 46 80 46 C80 46.66 80 47.32 80 48 C76.04 48 72.08 48 68 48 C68 48.66 68 49.32 68 50 C68.66 50 69.32 50 70 50 C72 53 72 53 72 56 C72.66 56 73.32 56 74 56 C75.59339602 59.52817753 76.25560417 62.29533629 76.265625 66.16015625 C76.26820313 67.11857422 76.27078125 68.07699219 76.2734375 69.06445312 C76.26570312 70.05380859 76.25796875 71.04316406 76.25 72.0625 C76.25773438 73.05572266 76.26546875 74.04894531 76.2734375 75.07226562 C76.27085937 76.02939453 76.26828125 76.98652344 76.265625 77.97265625 C76.26336914 78.84156494 76.26111328 79.71047363 76.25878906 80.60571289 C75.98312702 83.15610688 75.2840262 84.79885778 74 87 C74.66 87 75.32 87 76 87 C76 87.99 76 88.98 76 90 C76.66 90 77.32 90 78 90 C79.61436816 92.85360012 80.25519169 94.91442213 80.265625 98.1875 C80.26820313 98.96867187 80.27078125 99.74984375 80.2734375 100.5546875 C80.26570312 101.36164063 80.25796875 102.16859375 80.25 103 C80.25773438 103.80695313 80.26546875 104.61390625 80.2734375 105.4453125 C80.27085937 106.22648437 80.26828125 107.00765625 80.265625 107.8125 C80.26336914 108.52019531 80.26111328 109.22789062 80.25878906 109.95703125 C79.96074766 112.3098713 79.16102602 113.94773951 78 116 C77.34 116 76.68 116 76 116 C75.87625 116.61875 75.7525 117.2375 75.625 117.875 C75 120 75 120 73 122 C72.01 122 71.02 122 70 122 C70 122.66 70 123.32 70 124 C66.29178372 126.35108558 62.51394762 126.43155058 58.25 126.625 C57.55261719 126.66367188 56.85523438 126.70234375 56.13671875 126.7421875 C54.42489182 126.83598624 52.71248318 126.91906174 51 127 C50.67 127.99 50.34 128.98 50 130 C49.34 130 48.68 130 48 130 C48 130.66 48 131.32 48 132 C47.34 132 46.68 132 46 132 C46 132.66 46 133.32 46 134 C40.17935497 138.00466722 35.85809375 138.59737881 28.875 138.4375 C27.55435547 138.44813477 27.55435547 138.44813477 26.20703125 138.45898438 C21.26074959 138.41049142 18.08448896 138.05352932 14 135 C11.80869466 134.30420546 11.80869466 134.30420546 10 134 C10 134.66 10 135.32 10 136 C9.34 136 8.68 136 8 136 C8 136.66 8 137.32 8 138 C5 140 5 140 2 140 C2 140.66 2 141.32 2 142 C0.68 142 -0.64 142 -2 142 C-2 142.66 -2 143.32 -2 144 C-6.15632425 145.56128045 -9.58578446 146.24851369 -14.01953125 146.23046875 C-15.12361328 146.22853516 -16.22769531 146.22660156 -17.36523438 146.22460938 C-18.50283203 146.21236328 -19.64042969 146.20011719 -20.8125 146.1875 C-21.96943359 146.18685547 -23.12636719 146.18621094 -24.31835938 146.18554688 C-32.85959176 146.14040824 -32.85959176 146.14040824 -34 145 C-36.01594582 144.76572222 -38.038474 144.58663876 -40.0625 144.4375 C-41.16722656 144.35371094 -42.27195313 144.26992187 -43.41015625 144.18359375 C-44.26480469 144.12300781 -45.11945312 144.06242188 -46 144 C-46 142.68 -46 141.36 -46 140 C-49.96 140 -53.92 140 -58 140 C-58 138.68 -58 137.36 -58 136 C-59.32 136 -60.64 136 -62 136 C-62 134.68 -62 133.36 -62 132 C-59.36 132 -56.72 132 -54 132 C-54.66 131.01 -55.32 130.02 -56 129 C-56 128.01 -56 127.02 -56 126 C-56.66 126 -57.32 126 -58 126 C-58 124.68 -58 123.36 -58 122 C-58.66 122 -59.32 122 -60 122 C-60 120.35 -60 118.7 -60 117 C-60.66 117 -61.32 117 -62 117 C-62 112.71 -62 108.42 -62 104 C-63.48113281 104.03480469 -64.96226563 104.06960937 -66.48828125 104.10546875 C-68.42967618 104.13360491 -70.37108335 104.16090525 -72.3125 104.1875 C-73.28896484 104.21263672 -74.26542969 104.23777344 -75.27148438 104.26367188 C-76.20927734 104.27333984 -77.14707031 104.28300781 -78.11328125 104.29296875 C-79.40939331 104.31653442 -79.40939331 104.31653442 -80.73168945 104.34057617 C-83 104 -83 104 -84.78271484 102.89916992 C-86.60934622 100.04931723 -86.37156295 97.67999592 -86.36328125 94.3203125 C-86.36377975 93.67053436 -86.36427826 93.02075623 -86.36479187 92.35128784 C-86.36245396 90.97781312 -86.35274191 89.60433391 -86.33618164 88.23095703 C-86.31266029 86.13925382 -86.31561325 84.04883253 -86.32226562 81.95703125 C-86.27567608 70.79143344 -86.27567608 70.79143344 -84 66 C-83.34 66 -82.68 66 -82 66 C-82 65.34 -82 64.68 -82 64 C-81.34 64 -80.68 64 -80 64 C-80 63.34 -80 62.68 -80 62 C-79.34 62 -78.68 62 -78 62 C-78 61.34 -78 60.68 -78 60 C-77.34 60 -76.68 60 -76 60 C-76 59.34 -76 58.68 -76 58 C-74.68 58 -73.36 58 -72 58 C-72 57.34 -72 56.68 -72 56 C-70.68 56 -69.36 56 -68 56 C-68 54.02 -68 52.04 -68 50 C-67.34 50 -66.68 50 -66 50 C-65.855625 49.236875 -65.71125 48.47375 -65.5625 47.6875 C-65 45 -65 45 -64 42 C-63.34 42 -62.68 42 -62 42 C-62 41.34 -62 40.68 -62 40 C-61.34 40 -60.68 40 -60 40 C-60 39.34 -60 38.68 -60 38 C-59.34 38 -58.68 38 -58 38 C-58 37.34 -58 36.68 -58 36 C-57.34 36 -56.68 36 -56 36 C-56 35.34 -56 34.68 -56 34 C-54.68 34 -53.36 34 -52 34 C-52 33.34 -52 32.68 -52 32 C-50.68 32 -49.36 32 -48 32 C-48 31.34 -48 30.68 -48 30 C-41.4 30 -34.8 30 -28 30 C-28 28.35 -28 26.7 -28 25 C-27 22.6875 -27 22.6875 -26 21 C-26.66 20.67 -27.32 20.34 -28 20 C-28 18.68 -28 17.36 -28 16 C-24.535 15.505 -24.535 15.505 -21 15 C-20.67 14.01 -20.34 13.02 -20 12 C-15.65714286 8 -15.65714286 8 -12 8 C-12 7.34 -12 6.68 -12 6 C-11.34 6 -10.68 6 -10 6 C-10 5.34 -10 4.68 -10 4 C-6.49223216 2.39644899 -3.85645121 1.77963136 0 2 C0 1.34 0 0.68 0 0 Z " fill="#81C6C3" transform="translate(103,27)"/>
<path d="M0 0 C8.58 0 17.16 0 26 0 C26 0.66 26 1.32 26 2 C27.98 2 29.96 2 32 2 C32 2.66 32 3.32 32 4 C33.32 4 34.64 4 36 4 C36 4.66 36 5.32 36 6 C36.66 6 37.32 6 38 6 C38 6.66 38 7.32 38 8 C38.9590625 8.1546875 38.9590625 8.1546875 39.9375 8.3125 C40.618125 8.539375 41.29875 8.76625 42 9 C43 12 43 12 41.6875 15.1875 C39 18 39 18 36.6796875 18.2109375 C34.92413459 18.11136883 33.16891099 18.00582695 31.4140625 17.89453125 C28.69179025 17.78919938 28.69179025 17.78919938 25.9375 20.25 C23.90479777 22.74645074 23.90479777 22.74645074 23.5625 25.125 C23.376875 25.74375 23.19125 26.3625 23 27 C22.030625 27.433125 21.06125 27.86625 20.0625 28.3125 C19.051875 28.869375 18.04125 29.42625 17 30 C16.34 32.31 15.68 34.62 15 37 C-3.48 37 -21.96 37 -41 37 C-41.66 38.32 -42.32 39.64 -43 41 C-43.52733231 41.49663651 -44.05466461 41.99327301 -44.59797668 42.50495911 C-47.16137255 45.2384241 -46.48447642 49.2532833 -46.51171875 52.82421875 C-46.52966995 53.68561966 -46.54762115 54.54702057 -46.56611633 55.43452454 C-46.62029298 58.18546658 -46.65413823 60.93623441 -46.6875 63.6875 C-46.72066663 65.55275866 -46.75515567 67.4179943 -46.79101562 69.28320312 C-46.87602356 73.85534318 -46.94279943 78.42743091 -47 83 C-47.66 83 -48.32 83 -49 83 C-49.268125 82.030625 -49.53625 81.06125 -49.8125 80.0625 C-50.204375 79.051875 -50.59625 78.04125 -51 77 C-53.67643957 76.10785348 -55.25384378 75.86459789 -58 75.875 C-58.680625 75.87242188 -59.36125 75.86984375 -60.0625 75.8671875 C-62.21874781 75.93368874 -62.21874781 75.93368874 -65 77 C-65 77.66 -65 78.32 -65 79 C-67.97 79 -70.94 79 -74 79 C-74 79.66 -74 80.32 -74 81 C-73.071875 80.95875 -72.14375 80.9175 -71.1875 80.875 C-68 81 -68 81 -65 83 C-64.71125 82.38125 -64.4225 81.7625 -64.125 81.125 C-63 79 -63 79 -61 77 C-58 76.75 -58 76.75 -55 77 C-52.23776722 79.76223278 -52.42143709 82.20706617 -52 86 C-50.88625 85.95875 -49.7725 85.9175 -48.625 85.875 C-45 86 -45 86 -43 88 C-41.7934375 88.4640625 -41.7934375 88.4640625 -40.5625 88.9375 C-37.95851946 90.01719925 -36.5619438 90.6570843 -35 93 C-35.3125 95.6875 -35.3125 95.6875 -36 98 C-36.99 98.33 -37.98 98.66 -39 99 C-39 99.66 -39 100.32 -39 101 C-44.61 101 -50.22 101 -56 101 C-56 101.66 -56 102.32 -56 103 C-53.03 103 -50.06 103 -47 103 C-47 105.64 -47 108.28 -47 111 C-46.34 111 -45.68 111 -45 111 C-42.875 112.875 -42.875 112.875 -41 115 C-41 115.66 -41 116.32 -41 117 C-29.48197295 116.98513139 -17.96438137 116.94356583 -6.44658375 116.86790943 C-1.09836531 116.83361789 4.24956681 116.80852606 9.59790039 116.80444336 C14.75935454 116.8001651 19.92016258 116.7717413 25.08141518 116.72656822 C27.0505427 116.71357815 29.01974748 116.70929087 30.98891258 116.71384621 C33.74746854 116.71874147 36.50412829 116.69270825 39.26245117 116.65942383 C40.07669052 116.66804947 40.89092987 116.67667511 41.72984314 116.68556213 C46.04200706 116.59833278 47.53490424 116.38639248 50.9835968 113.52128601 C51.64900986 112.68926163 52.31442291 111.85723724 53 111 C53.33 110.67 53.66 110.34 54 110 C54.12363297 108.03712234 54.1779544 106.06984842 54.20532227 104.10327148 C54.22526749 102.84203964 54.24521271 101.5808078 54.26576233 100.28135681 C54.28274795 98.89460373 54.29962671 97.50784934 54.31640625 96.12109375 C54.33696926 94.7100411 54.35796555 93.29899471 54.37937927 91.88795471 C54.43466755 88.1676641 54.48404686 84.44731727 54.53222656 80.72692871 C54.58239242 76.93313575 54.63810408 73.13942477 54.69335938 69.34570312 C54.80102351 61.89720477 54.90244997 54.44863841 55 47 C56.41655793 46.9727585 57.83327045 46.95349533 59.25 46.9375 C60.03890625 46.92589844 60.8278125 46.91429687 61.640625 46.90234375 C63.90691002 46.99614694 65.8288895 47.36758937 68 48 C68 48.66 68 49.32 68 50 C68.66 50 69.32 50 70 50 C72 53 72 53 72 56 C72.66 56 73.32 56 74 56 C75.59339602 59.52817753 76.25560417 62.29533629 76.265625 66.16015625 C76.26820313 67.11857422 76.27078125 68.07699219 76.2734375 69.06445312 C76.26570312 70.05380859 76.25796875 71.04316406 76.25 72.0625 C76.25773438 73.05572266 76.26546875 74.04894531 76.2734375 75.07226562 C76.27085937 76.02939453 76.26828125 76.98652344 76.265625 77.97265625 C76.26336914 78.84156494 76.26111328 79.71047363 76.25878906 80.60571289 C75.98312702 83.15610688 75.2840262 84.79885778 74 87 C74.66 87 75.32 87 76 87 C76 87.99 76 88.98 76 90 C76.66 90 77.32 90 78 90 C79.61436816 92.85360012 80.25519169 94.91442213 80.265625 98.1875 C80.26820313 98.96867187 80.27078125 99.74984375 80.2734375 100.5546875 C80.26570312 101.36164063 80.25796875 102.16859375 80.25 103 C80.25773438 103.80695313 80.26546875 104.61390625 80.2734375 105.4453125 C80.27085937 106.22648437 80.26828125 107.00765625 80.265625 107.8125 C80.26336914 108.52019531 80.26111328 109.22789062 80.25878906 109.95703125 C79.96074766 112.3098713 79.16102602 113.94773951 78 116 C77.34 116 76.68 116 76 116 C75.87625 116.61875 75.7525 117.2375 75.625 117.875 C75 120 75 120 73 122 C72.01 122 71.02 122 70 122 C70 122.66 70 123.32 70 124 C66.29178372 126.35108558 62.51394762 126.43155058 58.25 126.625 C57.55261719 126.66367188 56.85523438 126.70234375 56.13671875 126.7421875 C54.42489182 126.83598624 52.71248318 126.91906174 51 127 C50.67 127.99 50.34 128.98 50 130 C49.34 130 48.68 130 48 130 C48 130.66 48 131.32 48 132 C47.34 132 46.68 132 46 132 C46 132.66 46 133.32 46 134 C40.17935497 138.00466722 35.85809375 138.59737881 28.875 138.4375 C27.55435547 138.44813477 27.55435547 138.44813477 26.20703125 138.45898438 C21.26074959 138.41049142 18.08448896 138.05352932 14 135 C11.80869466 134.30420546 11.80869466 134.30420546 10 134 C10 134.66 10 135.32 10 136 C9.34 136 8.68 136 8 136 C8 136.66 8 137.32 8 138 C5 140 5 140 2 140 C2 140.66 2 141.32 2 142 C0.68 142 -0.64 142 -2 142 C-2 142.66 -2 143.32 -2 144 C-6.15632425 145.56128045 -9.58578446 146.24851369 -14.01953125 146.23046875 C-15.12361328 146.22853516 -16.22769531 146.22660156 -17.36523438 146.22460938 C-18.50283203 146.21236328 -19.64042969 146.20011719 -20.8125 146.1875 C-21.96943359 146.18685547 -23.12636719 146.18621094 -24.31835938 146.18554688 C-32.85959176 146.14040824 -32.85959176 146.14040824 -34 145 C-36.01594582 144.76572222 -38.038474 144.58663876 -40.0625 144.4375 C-41.16722656 144.35371094 -42.27195313 144.26992187 -43.41015625 144.18359375 C-44.26480469 144.12300781 -45.11945312 144.06242188 -46 144 C-46 142.68 -46 141.36 -46 140 C-49.96 140 -53.92 140 -58 140 C-58 138.68 -58 137.36 -58 136 C-59.32 136 -60.64 136 -62 136 C-62 134.68 -62 133.36 -62 132 C-59.36 132 -56.72 132 -54 132 C-54.66 131.01 -55.32 130.02 -56 129 C-56 128.01 -56 127.02 -56 126 C-56.66 126 -57.32 126 -58 126 C-58 124.68 -58 123.36 -58 122 C-58.66 122 -59.32 122 -60 122 C-60 120.35 -60 118.7 -60 117 C-60.66 117 -61.32 117 -62 117 C-62 112.71 -62 108.42 -62 104 C-63.48113281 104.03480469 -64.96226563 104.06960937 -66.48828125 104.10546875 C-68.42967618 104.13360491 -70.37108335 104.16090525 -72.3125 104.1875 C-73.28896484 104.21263672 -74.26542969 104.23777344 -75.27148438 104.26367188 C-76.20927734 104.27333984 -77.14707031 104.28300781 -78.11328125 104.29296875 C-79.40939331 104.31653442 -79.40939331 104.31653442 -80.73168945 104.34057617 C-83 104 -83 104 -84.78271484 102.89916992 C-86.60934622 100.04931723 -86.37156295 97.67999592 -86.36328125 94.3203125 C-86.36377975 93.67053436 -86.36427826 93.02075623 -86.36479187 92.35128784 C-86.36245396 90.97781312 -86.35274191 89.60433391 -86.33618164 88.23095703 C-86.31266029 86.13925382 -86.31561325 84.04883253 -86.32226562 81.95703125 C-86.27567608 70.79143344 -86.27567608 70.79143344 -84 66 C-83.34 66 -82.68 66 -82 66 C-82 65.34 -82 64.68 -82 64 C-81.34 64 -80.68 64 -80 64 C-80 63.34 -80 62.68 -80 62 C-79.34 62 -78.68 62 -78 62 C-78 61.34 -78 60.68 -78 60 C-77.34 60 -76.68 60 -76 60 C-76 59.34 -76 58.68 -76 58 C-74.68 58 -73.36 58 -72 58 C-72 57.34 -72 56.68 -72 56 C-70.68 56 -69.36 56 -68 56 C-68 54.02 -68 52.04 -68 50 C-67.34 50 -66.68 50 -66 50 C-65.855625 49.236875 -65.71125 48.47375 -65.5625 47.6875 C-65 45 -65 45 -64 42 C-63.34 42 -62.68 42 -62 42 C-62 41.34 -62 40.68 -62 40 C-61.34 40 -60.68 40 -60 40 C-60 39.34 -60 38.68 -60 38 C-59.34 38 -58.68 38 -58 38 C-58 37.34 -58 36.68 -58 36 C-57.34 36 -56.68 36 -56 36 C-56 35.34 -56 34.68 -56 34 C-54.68 34 -53.36 34 -52 34 C-52 33.34 -52 32.68 -52 32 C-50.68 32 -49.36 32 -48 32 C-48 31.34 -48 30.68 -48 30 C-41.4 30 -34.8 30 -28 30 C-28 28.35 -28 26.7 -28 25 C-27 22.6875 -27 22.6875 -26 21 C-26.66 20.67 -27.32 20.34 -28 20 C-28 18.68 -28 17.36 -28 16 C-24.535 15.505 -24.535 15.505 -21 15 C-20.67 14.01 -20.34 13.02 -20 12 C-15.65714286 8 -15.65714286 8 -12 8 C-12 7.34 -12 6.68 -12 6 C-11.34 6 -10.68 6 -10 6 C-10 5.34 -10 4.68 -10 4 C-6.49223216 2.39644899 -3.85645121 1.77963136 0 2 C0 1.34 0 0.68 0 0 Z " fill="#C5E9E3" transform="translate(103,27)"/>
<path d="M0 0 C8.58 0 17.16 0 26 0 C26 0.66 26 1.32 26 2 C27.98 2 29.96 2 32 2 C32 2.66 32 3.32 32 4 C33.32 4 34.64 4 36 4 C36 4.66 36 5.32 36 6 C36.66 6 37.32 6 38 6 C38 6.66 38 7.32 38 8 C38.9590625 8.1546875 38.9590625 8.1546875 39.9375 8.3125 C40.618125 8.539375 41.29875 8.76625 42 9 C43 12 43 12 41.6875 15.1875 C39 18 39 18 36.6796875 18.2109375 C34.92413459 18.11136883 33.16891099 18.00582695 31.4140625 17.89453125 C28.69179025 17.78919938 28.69179025 17.78919938 25.9375 20.25 C23.90479777 22.74645074 23.90479777 22.74645074 23.5625 25.125 C23.376875 25.74375 23.19125 26.3625 23 27 C22.030625 27.433125 21.06125 27.86625 20.0625 28.3125 C19.051875 28.869375 18.04125 29.42625 17 30 C16.34 32.31 15.68 34.62 15 37 C-3.48 37 -21.96 37 -41 37 C-41.66 38.32 -42.32 39.64 -43 41 C-43.52733231 41.49663651 -44.05466461 41.99327301 -44.59797668 42.50495911 C-47.16137255 45.2384241 -46.48447642 49.2532833 -46.51171875 52.82421875 C-46.52966995 53.68561966 -46.54762115 54.54702057 -46.56611633 55.43452454 C-46.62029298 58.18546658 -46.65413823 60.93623441 -46.6875 63.6875 C-46.72066663 65.55275866 -46.75515567 67.4179943 -46.79101562 69.28320312 C-46.87602356 73.85534318 -46.94279943 78.42743091 -47 83 C-47.66 83 -48.32 83 -49 83 C-49.268125 82.030625 -49.53625 81.06125 -49.8125 80.0625 C-50.204375 79.051875 -50.59625 78.04125 -51 77 C-53.67643957 76.10785348 -55.25384378 75.86459789 -58 75.875 C-58.680625 75.87242188 -59.36125 75.86984375 -60.0625 75.8671875 C-62.21874781 75.93368874 -62.21874781 75.93368874 -65 77 C-65 77.66 -65 78.32 -65 79 C-67.97 79 -70.94 79 -74 79 C-74 79.66 -74 80.32 -74 81 C-72.02 81 -70.04 81 -68 81 C-67.505 81.99 -67.505 81.99 -67 83 C-67.763125 82.9175 -68.52625 82.835 -69.3125 82.75 C-72.14583333 82.70833333 -72.14583333 82.70833333 -73.8125 85 C-74.204375 85.66 -74.59625 86.32 -75 87 C-74.34 87.66 -73.68 88.32 -73 89 C-73 90.32 -73 91.64 -73 93 C-73.66 93 -74.32 93 -75 93 C-75 92.34 -75 91.68 -75 91 C-77.64 91.33 -80.28 91.66 -83 92 C-83 94.31 -83 96.62 -83 99 C-78.38 99.66 -73.76 100.32 -69 101 C-69 101.99 -69 102.98 -69 104 C-71.27024968 104.08097324 -73.54132075 104.13917704 -75.8125 104.1875 C-77.70935547 104.23970703 -77.70935547 104.23970703 -79.64453125 104.29296875 C-83 104 -83 104 -84.68701172 102.89916992 C-86.64735222 100.06363836 -86.37170556 97.73785155 -86.36328125 94.3203125 C-86.36377975 93.67053436 -86.36427826 93.02075623 -86.36479187 92.35128784 C-86.36245396 90.97781312 -86.35274191 89.60433391 -86.33618164 88.23095703 C-86.31266029 86.13925382 -86.31561325 84.04883253 -86.32226562 81.95703125 C-86.27567608 70.79143344 -86.27567608 70.79143344 -84 66 C-83.34 66 -82.68 66 -82 66 C-82 65.34 -82 64.68 -82 64 C-81.34 64 -80.68 64 -80 64 C-80 63.34 -80 62.68 -80 62 C-79.34 62 -78.68 62 -78 62 C-78 61.34 -78 60.68 -78 60 C-77.34 60 -76.68 60 -76 60 C-76 59.34 -76 58.68 -76 58 C-74.68 58 -73.36 58 -72 58 C-72 57.34 -72 56.68 -72 56 C-70.68 56 -69.36 56 -68 56 C-68 54.02 -68 52.04 -68 50 C-67.34 50 -66.68 50 -66 50 C-65.855625 49.236875 -65.71125 48.47375 -65.5625 47.6875 C-65 45 -65 45 -64 42 C-63.34 42 -62.68 42 -62 42 C-62 41.34 -62 40.68 -62 40 C-61.34 40 -60.68 40 -60 40 C-60 39.34 -60 38.68 -60 38 C-59.34 38 -58.68 38 -58 38 C-58 37.34 -58 36.68 -58 36 C-57.34 36 -56.68 36 -56 36 C-56 35.34 -56 34.68 -56 34 C-54.68 34 -53.36 34 -52 34 C-52 33.34 -52 32.68 -52 32 C-50.68 32 -49.36 32 -48 32 C-48 31.34 -48 30.68 -48 30 C-41.4 30 -34.8 30 -28 30 C-28 28.35 -28 26.7 -28 25 C-27 22.6875 -27 22.6875 -26 21 C-26.66 20.67 -27.32 20.34 -28 20 C-28 18.68 -28 17.36 -28 16 C-24.535 15.505 -24.535 15.505 -21 15 C-20.67 14.01 -20.34 13.02 -20 12 C-15.65714286 8 -15.65714286 8 -12 8 C-12 7.34 -12 6.68 -12 6 C-11.34 6 -10.68 6 -10 6 C-10 5.34 -10 4.68 -10 4 C-6.49223216 2.39644899 -3.85645121 1.77963136 0 2 C0 1.34 0 0.68 0 0 Z " fill="#C5EAE3" transform="translate(103,27)"/>
<path d="M0 0 C12.35988949 -0.75263197 12.35988949 -0.75263197 16.04296875 0.9375 C18.29452348 3.05039594 18.97531305 4.77781748 19.3125 7.8125 C19.1578125 8.8953125 19.1578125 8.8953125 19 10 C19.61488281 9.96519531 20.22976562 9.93039063 20.86328125 9.89453125 C22.07564453 9.85392578 22.07564453 9.85392578 23.3125 9.8125 C24.51326172 9.76029297 24.51326172 9.76029297 25.73828125 9.70703125 C28 10 28 10 29.79296875 11.32421875 C31 13 31 13 31 16 C32.98 16 34.96 16 37 16 C37 16.66 37 17.32 37 18 C37.66 18 38.32 18 39 18 C39 18.66 39 19.32 39 20 C39.66 20 40.32 20 41 20 C41 24.62 41 29.24 41 34 C40.34 34 39.68 34 39 34 C39 34.66 39 35.32 39 36 C38.34 36 37.68 36 37 36 C37 36.66 37 37.32 37 38 C34.52075612 38.02737815 32.04182484 38.04701804 29.5625 38.0625 C28.87478516 38.07087891 28.18707031 38.07925781 27.47851562 38.08789062 C23.68671327 38.10552692 19.99460742 37.9342667 16.22631836 37.49389648 C15.43051865 37.40196518 14.63471893 37.31003387 13.81480408 37.21531677 C13.21591873 37.14426224 12.61703339 37.0732077 12 37 C12.00888245 37.77816574 12.01776489 38.55633148 12.0269165 39.358078 C12.10714155 46.69984135 12.16800415 54.04139148 12.20724869 61.38347912 C12.22810327 65.15794293 12.2563809 68.93204385 12.30175781 72.70629883 C12.3452932 76.3502845 12.36915313 79.99392164 12.37950897 83.63814735 C12.38688669 85.02682289 12.40129401 86.41547985 12.42292023 87.80400658 C12.45205017 89.75220431 12.45363471 91.70075447 12.45410156 93.64916992 C12.46298401 94.7572551 12.47186646 95.86534027 12.48101807 97.00700378 C11.88472865 100.71724271 10.59123227 102.32601311 8 105 C4.13637408 107.57575061 0.96658821 107.26624186 -3.51049805 107.22705078 C-4.37900391 107.22734283 -5.24750977 107.22763489 -6.14233398 107.22793579 C-9.01556356 107.22654147 -11.88853442 107.21097544 -14.76171875 107.1953125 C-16.75283161 107.19158273 -18.7439463 107.18873559 -20.73506165 107.18673706 C-25.97776347 107.17909775 -31.22035462 107.15944666 -36.4630127 107.1373291 C-41.81191511 107.11687712 -47.16083539 107.10773673 -52.50976562 107.09765625 C-63.00655906 107.07620108 -73.50327033 107.0420615 -84 107 C-84 106.34 -84 105.68 -84 105 C-85.32 104.34 -86.64 103.68 -88 103 C-88 102.34 -88 101.68 -88 101 C-88.66 101 -89.32 101 -90 101 C-90 98.36 -90 95.72 -90 93 C-92.97 93 -95.94 93 -99 93 C-99 92.34 -99 91.68 -99 91 C-93.39 91 -87.78 91 -82 91 C-82 90.34 -82 89.68 -82 89 C-81.01 88.34 -80.02 87.68 -79 87 C-79.57452746 83.06924356 -79.57452746 83.06924356 -82 80 C-84.06874034 79.3574765 -84.06874034 79.3574765 -86 79 C-86 78.01 -86 77.02 -86 76 C-84.68 76.33 -83.36 76.66 -82 77 C-82.01571045 75.86981445 -82.0314209 74.73962891 -82.04760742 73.57519531 C-82.10194595 69.37832783 -82.13636431 65.18149139 -82.16479492 60.984375 C-82.17987262 59.16856658 -82.20033798 57.35279453 -82.22631836 55.53710938 C-82.2627468 52.92568992 -82.27973638 50.31475235 -82.29296875 47.703125 C-82.30845261 46.89256653 -82.32393646 46.08200806 -82.33988953 45.24688721 C-82.34088901 41.89242994 -82.24926694 39.45610546 -80.62304688 36.48046875 C-79 35 -79 35 -76.73828125 34.609375 C-75.93777344 34.65578125 -75.13726562 34.7021875 -74.3125 34.75 C-73.50425781 34.78609375 -72.69601563 34.8221875 -71.86328125 34.859375 C-71.24839844 34.90578125 -70.63351563 34.9521875 -70 35 C-70 35.66 -70 36.32 -70 37 C-72.64 37 -75.28 37 -78 37 C-78 37.66 -78 38.32 -78 39 C-78.66 39 -79.32 39 -80 39 C-80 52.2 -80 65.4 -80 79 C-79.34 79 -78.68 79 -78 79 C-78 79.66 -78 80.32 -78 81 C-77.34 81 -76.68 81 -76 81 C-76 83.64 -76 86.28 -76 89 C-76.66 89 -77.32 89 -78 89 C-78 91.64 -78 94.28 -78 97 C-59.52 97 -41.04 97 -22 97 C-22 97.66 -22 98.32 -22 99 C-29.5276878 99.0462929 -37.05536088 99.08185365 -44.58315849 99.10362434 C-48.07843927 99.11407198 -51.57362283 99.12824883 -55.06884766 99.15087891 C-59.08497056 99.17671953 -63.10099097 99.18646466 -67.1171875 99.1953125 C-69.00472244 99.21079636 -69.00472244 99.21079636 -70.9303894 99.22659302 C-72.09144196 99.22674408 -73.25249451 99.22689514 -74.44873047 99.22705078 C-75.47465302 99.231492 -76.50057556 99.23593323 -77.55758667 99.24050903 C-80 99 -80 99 -82 97 C-82 95.68 -82 94.36 -82 93 C-83.98 93.495 -83.98 93.495 -86 94 C-85.81870185 97.43793339 -85.81870185 97.43793339 -85 101 C-81.48490208 103.75324111 -77.17311393 103.3026876 -72.91430664 103.30639648 C-71.69652779 103.31888176 -71.69652779 103.31888176 -70.45414734 103.33161926 C-67.77276809 103.35569773 -65.09163211 103.36448798 -62.41015625 103.37109375 C-60.54454984 103.38006054 -58.67894416 103.3891824 -56.81333923 103.39845276 C-52.90361788 103.41493861 -48.99398214 103.42264234 -45.08422852 103.42553711 C-40.07585102 103.43092563 -35.06827826 103.46862661 -30.06012821 103.51428127 C-26.20736249 103.5440286 -22.35479129 103.55126013 -18.5019207 103.55226326 C-16.65552516 103.5564689 -14.80912921 103.56891701 -12.96284676 103.58978081 C-10.37965824 103.61665239 -7.79834503 103.61188366 -5.21508789 103.59936523 C-4.45388641 103.61419952 -3.69268494 103.62903381 -2.90841675 103.64431763 C0.91922907 103.59152383 2.84617873 103.11114055 5.97598267 100.84976196 C8.35169405 97.50482424 8.61848682 95.87058049 8.59936523 91.80444336 C8.60544296 90.57644516 8.61152069 89.34844696 8.61778259 88.08323669 C8.59825027 86.76541702 8.57871796 85.44759735 8.55859375 84.08984375 C8.55433992 82.7165217 8.55201466 81.34319244 8.55152893 79.96986389 C8.54537482 77.09733288 8.52273066 74.22558514 8.48706055 71.35327148 C8.44174578 67.67564736 8.42703162 63.99873077 8.42332363 60.32085323 C8.41889044 57.48719844 8.40357927 54.65369136 8.3844471 51.82010078 C8.37128124 49.80602497 8.3630267 47.79191899 8.35484314 45.77781677 C8.33885574 44.55297073 8.32286835 43.32812469 8.30639648 42.06616211 C8.29575668 40.98870224 8.28511688 39.91124237 8.27415466 38.8011322 C7.99993141 35.99929916 7.53674781 34.33929263 6 32 C2.85437687 30.42718844 -0.51262031 30.85273314 -3.96630859 30.85473633 C-4.78922897 30.85137772 -5.61214935 30.8480191 -6.46000671 30.84455872 C-9.18949886 30.83503385 -11.91892975 30.83310478 -14.6484375 30.83203125 C-16.54171779 30.82881953 -18.43499783 30.82545553 -20.32827759 30.82194519 C-24.30121435 30.81594993 -28.27412934 30.81410568 -32.24707031 30.81469727 C-37.34051352 30.81479886 -42.43381725 30.80115079 -47.5272274 30.78392506 C-51.43912396 30.77281135 -55.35098676 30.77077787 -59.26289749 30.77130699 C-61.14078883 30.77012577 -63.01868102 30.76569602 -64.89655685 30.75797462 C-67.52277157 30.74818828 -70.14868285 30.7510475 -72.77490234 30.75708008 C-73.55219193 30.75146057 -74.32948151 30.74584106 -75.13032532 30.74005127 C-80.40212779 30.72942673 -80.40212779 30.72942673 -85 33 C-86.30920503 36.9276151 -86.23462868 40.72570631 -86.31640625 44.82421875 C-86.33718735 45.68561966 -86.35796844 46.54702057 -86.37937927 47.43452454 C-86.44474909 50.18543544 -86.50370132 52.93644156 -86.5625 55.6875 C-86.60569717 57.55274421 -86.64931185 59.4179788 -86.69335938 61.28320312 C-86.80041763 65.85537124 -86.90172054 70.4276351 -87 75 C-89.31 75 -91.62 75 -94 75 C-95.98 71.535 -95.98 71.535 -98 68 C-100.83151973 67.58190799 -100.83151973 67.58190799 -104 68 C-106.40406384 70.37842577 -106.40406384 70.37842577 -108 73 C-110.97 72.34 -113.94 71.68 -117 71 C-117 70.34 -117 69.68 -117 69 C-114.03 69 -111.06 69 -108 69 C-108 68.34 -108 67.68 -108 67 C-104.32396731 64.54931154 -101.27238966 64.29367752 -97 65 C-94.33864658 66.91071528 -93.28153787 68.15538639 -92.25 71.25 C-92.12625 72.11625 -92.12625 72.11625 -92 73 C-91.34 73 -90.68 73 -90 73 C-90.04713135 71.2828479 -90.04713135 71.2828479 -90.09521484 69.53100586 C-90.20426291 65.261601 -90.27285801 60.99231779 -90.32958984 56.72192383 C-90.35966233 54.87796288 -90.4005326 53.03414379 -90.45263672 51.19067383 C-90.52587858 48.53170709 -90.55955005 45.87463925 -90.5859375 43.21484375 C-90.61690521 42.39789536 -90.64787292 41.58094696 -90.67977905 40.73924255 C-90.68275795 35.61026961 -89.77341173 32.00751782 -86.10702515 28.2809906 C-81.56582386 25.52011413 -76.30910984 26.16071863 -71.1640625 26.31640625 C-69.92957367 26.32631088 -68.69508484 26.33621552 -67.42318726 26.34642029 C-63.48923807 26.38553286 -59.55810253 26.47336249 -55.625 26.5625 C-52.95446787 26.60156557 -50.28396219 26.62955478 -47.61328125 26.65820312 C-41.07456461 26.73528558 -34.53748331 26.85234917 -28 27 C-27.88527344 25.88496094 -27.77054687 24.76992188 -27.65234375 23.62109375 C-27 20 -27 20 -24.5625 18.0625 C-22 17 -22 17 -20 17 C-19.938125 16.278125 -19.87625 15.55625 -19.8125 14.8125 C-18.67243114 10.86610778 -17.35124453 9.39374609 -14 7 C-10.62408575 6.58704413 -7.38245247 6.7044459 -4 7 C-2.68 4.69 -1.36 2.38 0 0 Z " fill="#584D4A" transform="translate(146,37)"/>
<path d="M0 0 C0 0.66 0 1.32 0 2 C0.969375 2.144375 1.93875 2.28875 2.9375 2.4375 C6 3 6 3 7 4 C7.04092937 6.33297433 7.04241723 8.66705225 7 11 C7.99 11 8.98 11 10 11 C10 10.34 10 9.68 10 9 C12.31 9 14.62 9 17 9 C17.66 10.98 18.32 12.96 19 15 C20.1446875 14.938125 20.1446875 14.938125 21.3125 14.875 C24 15 24 15 27 17 C27 17.66 27 18.32 27 19 C27.66 19 28.32 19 29 19 C29.39733102 23.05277642 29.49378537 25.27198311 27.171875 28.6953125 C22.53673244 32.06321165 18.52878542 31.77127822 12.9375 31.6875 C11.44766602 31.72907227 11.44766602 31.72907227 9.92773438 31.77148438 C7.14301637 31.76210822 4.70402051 31.66985573 2 31 C-0.62109375 28.01953125 -0.62109375 28.01953125 -2 25 C-3.9230889 23.0769111 -7.47070485 23.74678162 -10.09765625 23.68359375 C-10.80651474 23.66281265 -11.51537323 23.64203156 -12.24571228 23.62062073 C-14.51787305 23.55505402 -16.79015264 23.4962077 -19.0625 23.4375 C-20.59962183 23.39432151 -22.1367315 23.35070745 -23.67382812 23.30664062 C-27.4490959 23.19936551 -31.2244836 23.09811863 -35 23 C-34.22167584 19.21956837 -33.01860137 17.48590701 -30 15 C-29.01 15 -28.02 15 -27 15 C-27.103125 14.278125 -27.20625 13.55625 -27.3125 12.8125 C-27 10 -27 10 -24.875 7.1875 C-21.56195324 4.66670355 -20.05780213 4.52816254 -16 5 C-16 5.66 -16 6.32 -16 7 C-13.525 7.495 -13.525 7.495 -11 8 C-10.566875 7.05125 -10.13375 6.1025 -9.6875 5.125 C-7.16413136 0.45209511 -5.07197136 -0.27416061 0 0 Z " fill="#F4F2E6" transform="translate(155,41)"/>
<path d="M0 0 C3 0.25 3 0.25 5 2.25 C5.40047444 4.57275177 5.7397104 6.90739357 6 9.25 C7.11375 9.20875 8.2275 9.1675 9.375 9.125 C13 9.25 13 9.25 15 11.25 C15.804375 11.559375 16.60875 11.86875 17.4375 12.1875 C20.04148054 13.26719925 21.4380562 13.9070843 23 16.25 C22.875 18.8125 22.875 18.8125 22 21.25 C18.46435537 23.60709642 16.77974745 23.55009735 12.58203125 23.6640625 C11.32841797 23.70273438 10.07480469 23.74140625 8.78320312 23.78125 C7.47287109 23.8121875 6.16253906 23.843125 4.8125 23.875 C3.4771884 23.91319338 2.14190108 23.95224591 0.80664062 23.9921875 C-2.46209888 24.08659153 -5.73083064 24.17217017 -9 24.25 C-9 25.24 -9 26.23 -9 27.25 C-9.66 27.25 -10.32 27.25 -11 27.25 C-11 26.26 -11 25.27 -11 24.25 C-11.67546875 24.27320313 -12.3509375 24.29640625 -13.046875 24.3203125 C-14.38492187 24.34738281 -14.38492187 24.34738281 -15.75 24.375 C-16.63171875 24.39820313 -17.5134375 24.42140625 -18.421875 24.4453125 C-21.1135858 24.24139502 -22.69904974 23.61551721 -25 22.25 C-25 19.94 -25 17.63 -25 15.25 C-22.36 14.92 -19.72 14.59 -17 14.25 C-17 14.91 -17 15.57 -17 16.25 C-16.34 16.25 -15.68 16.25 -15 16.25 C-16.39759905 12.70481116 -16.39759905 12.70481116 -18 9.25 C-17.34 9.25 -16.68 9.25 -16 9.25 C-15.34 7.93 -14.68 6.61 -14 5.25 C-11.69 5.58 -9.38 5.91 -7 6.25 C-6.566875 5.321875 -6.566875 5.321875 -6.125 4.375 C-4.41972468 1.15392439 -3.70981453 0.30915121 0 0 Z " fill="#F6F4E8" transform="translate(45,103.75)"/>
<path d="M0 0 C15 0 15 0 20 4 C20.6640625 7.12890625 20.6640625 7.12890625 20.625 10.5625 C20.63789062 11.69816406 20.65078125 12.83382812 20.6640625 14.00390625 C20 17 20 17 17.82421875 18.890625 C13.14919354 20.72701111 8.98693952 20.18025083 4 20 C4 24.29 4 28.58 4 33 C2.68 33 1.36 33 0 33 C0 22.11 0 11.22 0 0 Z " fill="#544E4C" transform="translate(104,88)"/>
<path d="M0 0 C1.23448883 0.00990463 2.46897766 0.01980927 3.74087524 0.03001404 C7.67482443 0.06912661 11.60595997 0.15695624 15.5390625 0.24609375 C18.20959463 0.28515932 20.88010031 0.31314853 23.55078125 0.34179688 C30.08949789 0.41887933 36.62657919 0.53594292 43.1640625 0.68359375 C43.1640625 1.01359375 43.1640625 1.34359375 43.1640625 1.68359375 C53.3940625 2.01359375 63.6240625 2.34359375 74.1640625 2.68359375 C74.1640625 3.01359375 74.1640625 3.34359375 74.1640625 3.68359375 C73.12058655 3.6916806 72.0771106 3.69976746 71.00201416 3.70809937 C61.17276663 3.78555228 51.34365767 3.87328947 41.51459122 3.97112083 C36.46125285 4.02108685 31.40793543 4.06741694 26.35449219 4.10546875 C21.47850662 4.14231758 16.60269608 4.18867658 11.72686005 4.24165726 C9.86575132 4.26020332 8.00460506 4.2753105 6.14344025 4.28693771 C3.53847799 4.30379648 0.93391677 4.33283061 -1.67089844 4.36474609 C-2.82751984 4.36798637 -2.82751984 4.36798637 -4.00750732 4.37129211 C-9.25511985 4.41725075 -9.25511985 4.41725075 -13.8359375 6.68359375 C-15.14514253 10.61120885 -15.07056618 14.40930006 -15.15234375 18.5078125 C-15.17312485 19.36921341 -15.19390594 20.23061432 -15.21531677 21.11811829 C-15.28068659 23.86902919 -15.33963882 26.62003531 -15.3984375 29.37109375 C-15.44163467 31.23633796 -15.48524935 33.10157255 -15.52929688 34.96679688 C-15.63635513 39.53896499 -15.73765804 44.11122885 -15.8359375 48.68359375 C-18.1459375 48.68359375 -20.4559375 48.68359375 -22.8359375 48.68359375 C-24.1559375 46.37359375 -25.4759375 44.06359375 -26.8359375 41.68359375 C-29.66745723 41.26550174 -29.66745723 41.26550174 -32.8359375 41.68359375 C-35.24000134 44.06201952 -35.24000134 44.06201952 -36.8359375 46.68359375 C-39.8059375 46.02359375 -42.7759375 45.36359375 -45.8359375 44.68359375 C-45.8359375 44.02359375 -45.8359375 43.36359375 -45.8359375 42.68359375 C-42.8659375 42.68359375 -39.8959375 42.68359375 -36.8359375 42.68359375 C-36.8359375 42.02359375 -36.8359375 41.36359375 -36.8359375 40.68359375 C-33.15990481 38.23290529 -30.10832716 37.97727127 -25.8359375 38.68359375 C-23.17458408 40.59430903 -22.11747537 41.83898014 -21.0859375 44.93359375 C-20.9621875 45.79984375 -20.9621875 45.79984375 -20.8359375 46.68359375 C-20.1759375 46.68359375 -19.5159375 46.68359375 -18.8359375 46.68359375 C-18.88306885 44.96644165 -18.88306885 44.96644165 -18.93115234 43.21459961 C-19.04020041 38.94519475 -19.10879551 34.67591154 -19.16552734 30.40551758 C-19.19559983 28.56155663 -19.2364701 26.71773754 -19.28857422 24.87426758 C-19.36181608 22.21530084 -19.39548755 19.558233 -19.421875 16.8984375 C-19.45284271 16.08148911 -19.48381042 15.26454071 -19.51571655 14.4228363 C-19.51869545 9.29386336 -18.60934923 5.69111157 -14.94296265 1.96458435 C-10.40176136 -0.79629212 -5.14504734 -0.15568762 0 0 Z " fill="#5B5C5A" transform="translate(74.8359375,63.31640625)"/>
<path d="M0 0 C3.96 0 7.92 0 12 0 C12.99 2.31 13.98 4.62 15 7 C17.97 7.33 20.94 7.66 24 8 C24 9.32 24 10.64 24 12 C18.39 12 12.78 12 7 12 C7 12.99 7 13.98 7 15 C4.69 15 2.38 15 0 15 C-0.33 14.01 -0.66 13.02 -1 12 C-1.99 12 -2.98 12 -4 12 C-4 10.68 -4 9.36 -4 8 C-4.66 8 -5.32 8 -6 8 C-6 8.99 -6 9.98 -6 11 C-8.31 11 -10.62 11 -13 11 C-13 10.01 -13 9.02 -13 8 C-14.32 8 -15.64 8 -17 8 C-17 6.68 -17 5.36 -17 4 C-11.72 4 -6.44 4 -1 4 C-0.67 2.68 -0.34 1.36 0 0 Z " fill="#DDF3EF" transform="translate(92,39)"/>
<path d="M0 0 C1.98 0 3.96 0 6 0 C6.495 6.93 6.495 6.93 7 14 C6.34 13.67 5.68 13.34 5 13 C5 11.68 5 10.36 5 9 C2.97003414 9.59621256 2.97003414 9.59621256 1 11 C0.08043198 13.63571568 0.08043198 13.63571568 -0.25 16.625 C-0.39953125 17.62789062 -0.5490625 18.63078125 -0.703125 19.6640625 C-0.80109375 20.43492188 -0.8990625 21.20578125 -1 22 C1.64 22 4.28 22 7 22 C7 19.69 7 17.38 7 15 C7.66 15 8.32 15 9 15 C10.85776765 18.13498292 11.20140476 20.37471432 11 24 C11.99 24.33 12.98 24.66 14 25 C14 27.64 14 30.28 14 33 C12.68 33 11.36 33 10 33 C9.34 30.69 8.68 28.38 8 26 C4.04 26 0.08 26 -4 26 C-4 28.31 -4 30.62 -4 33 C-5.875 33.625 -5.875 33.625 -8 34 C-8.66 33.34 -9.32 32.68 -10 32 C-10 30.68 -10 29.36 -10 28 C-9.34 28 -8.68 28 -8 28 C-7.88527344 27.02417969 -7.77054687 26.04835938 -7.65234375 25.04296875 C-7.02648023 20.67292344 -5.83340957 16.53280902 -4.5625 12.3125 C-4.34529297 11.56677734 -4.12808594 10.82105469 -3.90429688 10.05273438 C-2.859026 6.53396966 -1.82180691 3.21146427 0 0 Z " fill="#504442" transform="translate(86,88)"/>
<path d="M0 0 C5.21442276 -0.0494186 10.42870934 -0.08572831 15.64331055 -0.10986328 C17.41742324 -0.11992411 19.19151935 -0.13357422 20.96557617 -0.15087891 C23.51485284 -0.17512378 26.06391037 -0.18648218 28.61328125 -0.1953125 C29.80405022 -0.21079636 29.80405022 -0.21079636 31.01887512 -0.22659302 C34.88223043 -0.2273811 36.70839446 -0.19440369 40 2 C40.36076355 4.51834106 40.36076355 4.51834106 40.34057617 7.73486328 C40.34023628 9.53650436 40.34023628 9.53650436 40.33988953 11.37454224 C40.32440567 12.67664642 40.30892181 13.97875061 40.29296875 15.3203125 C40.28737416 16.66266405 40.28310341 18.00502173 40.28010559 19.34738159 C40.26864585 22.88210941 40.23916959 26.41646798 40.20599365 29.9510498 C40.17531671 33.55715947 40.16160538 37.16332874 40.14648438 40.76953125 C40.11430052 47.84650532 40.06309094 54.92322857 40 62 C39.34 62 38.68 62 38 62 C38 62.66 38 63.32 38 64 C32.06 64 26.12 64 20 64 C20 63.01 20 62.02 20 61 C27.92 60.505 27.92 60.505 36 60 C36 40.86 36 21.72 36 2 C24.12 2 12.24 2 0 2 C0 1.34 0 0.68 0 0 Z " fill="#55514F" transform="translate(110,72)"/>
<path d="M0 0 C1.96765137 1.1222229 1.96765137 1.1222229 4 3 C4.50793457 5.71884155 4.50793457 5.71884155 4.51757812 9.04443359 C4.53018677 10.28937592 4.54279541 11.53431824 4.55578613 12.81698608 C4.54862494 14.17747563 4.54042061 15.53796002 4.53125 16.8984375 C4.53394513 18.29464997 4.53782772 19.6908606 4.54284668 21.08706665 C4.54874481 24.01428078 4.54017214 26.9410067 4.52148438 29.86816406 C4.49873578 33.61325315 4.51178827 37.35719304 4.53577423 41.10223961 C4.55026043 43.98656803 4.54561281 46.87062616 4.53526306 49.75496292 C4.53260132 51.13521079 4.53584613 52.51548349 4.54518127 53.89570236 C4.55538645 55.82938898 4.5370629 57.76316196 4.51757812 59.69677734 C4.51439575 60.7958139 4.51121338 61.89485046 4.50793457 63.02719116 C3.8802047 66.70113069 2.58309562 68.35828475 0 71 C-2.75 72.3125 -2.75 72.3125 -5 73 C-5 72.34 -5 71.68 -5 71 C-33.05 71 -61.1 71 -90 71 C-90.33 70.34 -90.66 69.68 -91 69 C-89.40053276 69.01665459 -89.40053276 69.01665459 -87.76875305 69.03364563 C-77.71927855 69.13500849 -67.66990777 69.20995912 -57.62003803 69.25906086 C-52.45326239 69.28515341 -47.28689944 69.32054551 -42.12036133 69.37719727 C-37.13421257 69.43152881 -32.14846073 69.46142311 -27.1620388 69.47438622 C-25.25979552 69.48362402 -23.35757393 69.50166353 -21.45549965 69.52865028 C-18.79057523 69.56495626 -16.12729019 69.56994478 -13.4621582 69.56762695 C-12.67597107 69.58560333 -11.88978394 69.60357971 -11.07977295 69.62210083 C-7.2021061 69.58561514 -5.19210101 69.13687256 -2.0065918 66.8671875 C0.39098279 63.44133084 0.6085545 61.70742597 0.56762695 57.55737305 C0.5672493 56.27642258 0.56687164 54.99547211 0.56648254 53.67570496 C0.54095309 52.28769956 0.51487318 50.8997042 0.48828125 49.51171875 C0.47894881 48.08398173 0.47183473 46.65622864 0.46684265 45.22846985 C0.44780601 41.48142832 0.39873633 37.73536507 0.34332275 33.9887085 C0.29205685 30.16122673 0.2693131 26.33358595 0.24414062 22.50585938 C0.19061232 15.00346159 0.10534252 7.50186818 0 0 Z " fill="#616866" transform="translate(154,71)"/>
<path d="M0 0 C11.82065424 -0.77881324 11.82065424 -0.77881324 16.3125 2.1875 C18.0967074 5.16117899 18.4850217 6.6048481 18 10 C18.61488281 9.96519531 19.22976562 9.93039063 19.86328125 9.89453125 C21.07564453 9.85392578 21.07564453 9.85392578 22.3125 9.8125 C23.11300781 9.77769531 23.91351563 9.74289063 24.73828125 9.70703125 C27 10 27 10 28.79296875 11.32421875 C30 13 30 13 30 16 C31.98 16 33.96 16 36 16 C36 16.66 36 17.32 36 18 C36.66 18 37.32 18 38 18 C38 18.66 38 19.32 38 20 C38.66 20 39.32 20 40 20 C40 24.62 40 29.24 40 34 C39.34 34 38.68 34 38 34 C38 34.66 38 35.32 38 36 C37.34 36 36.68 36 36 36 C36 36.66 36 37.32 36 38 C30.72 38 25.44 38 20 38 C19.67 37.34 19.34 36.68 19 36 C20.04800781 35.96261719 21.09601563 35.92523438 22.17578125 35.88671875 C23.55472305 35.82105485 24.93362771 35.75460765 26.3125 35.6875 C27.34793945 35.65366211 27.34793945 35.65366211 28.40429688 35.61914062 C31.25670147 35.46756357 33.48831265 35.32186785 35.9375 33.78125 C37.34226576 31.42620151 37.51043854 29.53924651 37.6875 26.8125 C37.75324219 25.91144531 37.81898438 25.01039062 37.88671875 24.08203125 C37.92410156 23.39496094 37.96148437 22.70789063 38 22 C37.22914063 21.81824219 36.45828125 21.63648437 35.6640625 21.44921875 C34.66117188 21.19785156 33.65828125 20.94648437 32.625 20.6875 C31.62726563 20.44386719 30.62953125 20.20023438 29.6015625 19.94921875 C27 19 27 19 25 16 C25 15.01 25 14.02 25 13 C22.69 13 20.38 13 18 13 C18 13.66 18 14.32 18 15 C17.01 15 16.02 15 15 15 C14.855625 13.906875 14.71125 12.81375 14.5625 11.6875 C14.11711896 8.06877013 14.11711896 8.06877013 13 5 C10.1085914 3.8805387 7.32237388 3.89231803 4.25 3.9375 C3.05117187 3.95103516 3.05117187 3.95103516 1.828125 3.96484375 C0.92320312 3.98224609 0.92320312 3.98224609 0 4 C0 2.68 0 1.36 0 0 Z " fill="#604945" transform="translate(147,37)"/>
<path d="M0 0 C7.72772107 -0.13690844 15.30881404 0.24833087 23 1 C23 1.66 23 2.32 23 3 C20.36 3 17.72 3 15 3 C15 3.66 15 4.32 15 5 C20.1693489 4.59443869 20.1693489 4.59443869 25 3 C25 2.34 25 1.68 25 1 C26.32 1 27.64 1 29 1 C29 1.66 29 2.32 29 3 C33.95 3.99 33.95 3.99 39 5 C39 5.66 39 6.32 39 7 C33.06 7 27.12 7 21 7 C21 7.66 21 8.32 21 9 C21.99 9.33 22.98 9.66 24 10 C24 10.66 24 11.32 24 12 C21.36 12 18.72 12 16 12 C16 10.68 16 9.36 16 8 C12.04 8 8.08 8 4 8 C4 6.68 4 5.36 4 4 C2.68 4 1.36 4 0 4 C0 2.68 0 1.36 0 0 Z M32 1 C33.98 1 35.96 1 38 1 C38 1.66 38 2.32 38 3 C36.02 3.33 34.04 3.66 32 4 C32 3.01 32 2.02 32 1 Z " fill="#FCFEFD" transform="translate(41,159)"/>
<path d="M0 0 C0.33 0 0.66 0 1 0 C1 10.89 1 21.78 1 33 C2.32 33 3.64 33 5 33 C5 28.71 5 24.42 5 20 C7.734375 19.8046875 10.46875 19.609375 13.203125 19.4140625 C15.99457355 19.00080336 17.75139125 18.70727701 20 17 C20.70176588 14.58320293 20.70176588 14.58320293 20.75 11.875 C20.83507812 10.50988281 20.83507812 10.50988281 20.921875 9.1171875 C20.96054688 8.06917969 20.96054688 8.06917969 21 7 C21.33 7 21.66 7 22 7 C22.08114106 8.77007714 22.13925505 10.54122098 22.1875 12.3125 C22.23970703 13.79169922 22.23970703 13.79169922 22.29296875 15.30078125 C22 18 22 18 20.84375 19.8125 C18.32505936 21.43470753 16.28663663 21.51255079 13.3125 21.6875 C12.31863281 21.75324219 11.32476562 21.81898437 10.30078125 21.88671875 C9.54152344 21.92410156 8.78226563 21.96148437 8 22 C8 25.3 8 28.6 8 32 C7.34 32 6.68 32 6 32 C5.67 32.99 5.34 33.98 5 35 C4.154375 34.814375 3.30875 34.62875 2.4375 34.4375 C-1.2773282 33.96470368 -4.32974273 34.33935369 -8 35 C-9.76462683 31.91190305 -10 30.76687864 -10 27 C-13.3 27 -16.6 27 -20 27 C-19.979375 28.134375 -19.95875 29.26875 -19.9375 30.4375 C-20 34 -20 34 -21 35 C-23.4375 35.1875 -23.4375 35.1875 -26 35 C-28 33 -28 33 -28.25 30.3125 C-27.96858029 26.58368883 -27.13712906 23.55352833 -26 20 C-25.34 20 -24.68 20 -24 20 C-23.67 18.68 -23.34 17.36 -23 16 C-23.55312735 20.02992782 -24.1558062 24.02022924 -25 28 C-25.66 28 -26.32 28 -27 28 C-26.34 29.65 -25.68 31.3 -25 33 C-23.68 33 -22.36 33 -21 33 C-21 30.69 -21 28.38 -21 26 C-19.04233719 25.91917906 -17.08373272 25.86089222 -15.125 25.8125 C-13.48917969 25.76029297 -13.48917969 25.76029297 -11.8203125 25.70703125 C-10.88960937 25.80371094 -9.95890625 25.90039062 -9 26 C-7 29 -7 29 -7 33 C-5.68 33 -4.36 33 -3 33 C-3 30.36 -3 27.72 -3 25 C-2.34 26.32 -1.68 27.64 -1 29 C-0.67 19.43 -0.34 9.86 0 0 Z " fill="#78AEAC" transform="translate(103,88)"/>
<path d="M0 0 C1.32 0 2.64 0 4 0 C5.46098845 2.9219769 5.11134901 5.49893475 5.09765625 8.7578125 C5.0962413 9.42086395 5.09482635 10.08391541 5.09336853 10.76705933 C5.08776754 12.88641863 5.075215 15.00567259 5.0625 17.125 C5.05748512 18.56119639 5.05292219 19.99739444 5.04882812 21.43359375 C5.03779782 24.95576345 5.02053259 28.47787145 5 32 C3.34385343 32.38218767 1.67542976 32.71395102 0 33 C-1.90849948 31.09150052 -1.13059633 27.68521226 -1.1328125 25.15625 C-1.13376923 24.47195923 -1.13472595 23.78766846 -1.13571167 23.0826416 C-1.1363933 21.63338123 -1.13454023 20.18411782 -1.13037109 18.73486328 C-1.12502252 16.50937072 -1.1303166 14.28407999 -1.13671875 12.05859375 C-1.13605797 10.65364539 -1.1347768 9.24869715 -1.1328125 7.84375 C-1.13168457 6.55662109 -1.13055664 5.26949219 -1.12939453 3.94335938 C-1 1 -1 1 0 0 Z " fill="#5F6C6A" transform="translate(129,88)"/>
<path d="M0 0 C0.33 1.32 0.66 2.64 1 4 C1.66 3.67 2.32 3.34 3 3 C7.23971058 2.76446052 10.36178302 2.67154114 14 5 C13.67 5.66 13.34 6.32 13 7 C11.68 6.67 10.36 6.34 9 6 C9 5.34 9 4.68 9 4 C4.87561925 4.64506196 4.87561925 4.64506196 1 6 C-0.61147442 8.99428144 -0.61147442 8.99428144 -1 12 C-5 12 -5 12 -7 11 C-7 10.34 -7 9.68 -7 9 C-9.97 9.66 -12.94 10.32 -16 11 C-16.20625 12.27875 -16.4125 13.5575 -16.625 14.875 C-17.1640625 17.109375 -17.1640625 17.109375 -18 19 C-21 20.125 -21 20.125 -24 21 C-25.45160938 24.01779872 -25.45160938 24.01779872 -26 27 C-26.66 27 -27.32 27 -28 27 C-27.8125 23.6875 -27.8125 23.6875 -27 20 C-24.58235424 18.07828158 -23.11532786 17 -20 17 C-19.9071875 15.9171875 -19.9071875 15.9171875 -19.8125 14.8125 C-18.67243114 10.86610778 -17.35124453 9.39374609 -14 7 C-10.62408575 6.58704413 -7.38245247 6.7044459 -4 7 C-2.68 4.69 -1.36 2.38 0 0 Z " fill="#796D68" transform="translate(146,37)"/>
<path d="M0 0 C12 0 12 0 16 1 C18.20914 4.31371 18.22481553 5.3446021 18.125 9.1875 C18.10695313 10.08855469 18.08890625 10.98960938 18.0703125 11.91796875 C18.04710938 12.60503906 18.02390625 13.29210937 18 14 C17.34 14 16.68 14 16 14 C16 11.03 16 8.06 16 5 C11.77845689 3.46557489 11.77845689 3.46557489 2 3 C2 11.91 2 20.82 2 30 C1.34 30 0.68 30 0 30 C0 20.1 0 10.2 0 0 Z " fill="#472D2B" transform="translate(105,89)"/>
<path d="M0 0 C0.66 0 1.32 0 2 0 C1.29535173 3.17091721 0.51700596 6.11768868 -1 9 C-3.625 10.3125 -3.625 10.3125 -6 11 C-6 13.31 -6 15.62 -6 18 C-1.38 18.66 3.24 19.32 8 20 C8 20.99 8 21.98 8 23 C5.72975032 23.08097324 3.45867925 23.13917704 1.1875 23.1875 C-0.70935547 23.23970703 -0.70935547 23.23970703 -2.64453125 23.29296875 C-6 23 -6 23 -7.9375 21.875 C-9.48711469 19.14038584 -9.28797525 16.92723286 -9.1875 13.8125 C-9.16042969 12.72582031 -9.13335938 11.63914062 -9.10546875 10.51953125 C-9.07066406 9.68808594 -9.03585938 8.85664062 -9 8 C-6.69 7.34 -4.38 6.68 -2 6 C-1.855625 5.38125 -1.71125 4.7625 -1.5625 4.125 C-1 2 -1 2 0 0 Z " fill="#553C38" transform="translate(26,108)"/>
<path d="M0 0 C0.66 0.33 1.32 0.66 2 1 C2 3.31 2 5.62 2 8 C2.99 8 3.98 8 5 8 C5 7.34 5 6.68 5 6 C7.31 6 9.62 6 12 6 C11.67 6.66 11.34 7.32 11 8 C9.34385343 8.38218767 7.67542976 8.71395102 6 9 C5.01 9.495 5.01 9.495 4 10 C4.61875 10.061875 5.2375 10.12375 5.875 10.1875 C8 11 8 11 9.25 13.5625 C9.4975 14.366875 9.745 15.17125 10 16 C11.32 16 12.64 16 14 16 C14 16.66 14 17.32 14 18 C14.66 18 15.32 18 16 18 C16 19.32 16 20.64 16 22 C15.34 22 14.68 22 14 22 C14 21.01 14 20.02 14 19 C11.69 19 9.38 19 7 19 C6.67 18.01 6.34 17.02 6 16 C5.05125 15.9175 4.1025 15.835 3.125 15.75 C2.09375 15.5025 1.0625 15.255 0 15 C-1.125 13 -1.125 13 -2 11 C-4.05000871 10.19471111 -4.05000871 10.19471111 -6 10 C-6 9.01 -6 8.02 -6 7 C-4.02 6.67 -2.04 6.34 0 6 C0 4.02 0 2.04 0 0 Z " fill="#D1C9BF" transform="translate(160,44)"/>
<path d="M0 0 C1.66880615 3.33761231 0.99628371 7.06759523 0.87890625 10.7265625 C0.85529526 11.58937836 0.83168427 12.45219421 0.80735779 13.34115601 C0.73065703 16.10260206 0.64666038 18.86377218 0.5625 21.625 C0.50928573 23.49477807 0.45654529 25.36456969 0.40429688 27.234375 C0.27503321 31.82309209 0.13922496 36.41157477 0 41 C-2.31 41 -4.62 41 -7 41 C-8.32 38.69 -9.64 36.38 -11 34 C-13.83151973 33.58190799 -13.83151973 33.58190799 -17 34 C-19.40406384 36.37842577 -19.40406384 36.37842577 -21 39 C-23.97 38.34 -26.94 37.68 -30 37 C-30 36.34 -30 35.68 -30 35 C-27.03 35 -24.06 35 -21 35 C-21 34.34 -21 33.68 -21 33 C-17.32396731 30.54931154 -14.27238966 30.29367752 -10 31 C-7.33864658 32.91071528 -6.28153787 34.15538639 -5.25 37.25 C-5.12625 38.11625 -5.12625 38.11625 -5 39 C-3.68 39.33 -2.36 39.66 -1 40 C-1.00523682 38.82381104 -1.01047363 37.64762207 -1.01586914 36.43579102 C-1.03391663 32.08797969 -1.04543108 27.7401717 -1.05493164 23.39233398 C-1.05997244 21.5075627 -1.06680498 19.62279535 -1.07543945 17.73803711 C-1.08751617 15.03498364 -1.09323068 12.33198169 -1.09765625 9.62890625 C-1.10281754 8.78099014 -1.10797882 7.93307404 -1.11329651 7.0594635 C-1.11349195 5.03928932 -1.06206211 3.01922066 -1 1 C-0.67 0.67 -0.34 0.34 0 0 Z " fill="#7E746F" transform="translate(59,71)"/>
<path d="M0 0 C2.56476004 2.56476004 2.76227886 4.5473925 3.5625 8.0625 C4.16117361 11.84012518 4.16117361 11.84012518 6 15 C6.04080783 16.99958364 6.04254356 19.00045254 6 21 C5.67 21 5.34 21 5 21 C4.34 18.03 3.68 15.06 3 12 C2.34 12 1.68 12 1 12 C1 14.31 1 16.62 1 19 C-1.64 19 -4.28 19 -7 19 C-6.88610125 17.20759337 -6.75852313 15.41605165 -6.625 13.625 C-6.55539063 12.62726563 -6.48578125 11.62953125 -6.4140625 10.6015625 C-6 8 -6 8 -4 6 C-3.01 6 -2.02 6 -1 6 C-0.67 7.32 -0.34 8.64 0 10 C0 6.7 0 3.4 0 0 Z " fill="#5B6260" transform="translate(92,91)"/>
<path d="M0 0 C0.33 0 0.66 0 1 0 C1.01030746 0.69713104 1.02061493 1.39426208 1.03123474 2.11251831 C1.12912453 8.67537866 1.23162674 15.23814875 1.33933926 21.80085564 C1.39455469 25.17498367 1.44797243 28.5491204 1.49731445 31.92333984 C1.55489667 35.80054266 1.61862566 39.6776023 1.68359375 43.5546875 C1.70030624 44.76929657 1.71701874 45.98390564 1.73423767 47.23532104 C1.75418289 48.35633209 1.77412811 49.47734314 1.79467773 50.63232422 C1.81799416 52.11791336 1.81799416 52.11791336 1.84178162 53.6335144 C1.84807978 56.01828543 1.84807978 56.01828543 3 58 C2.34 58 1.68 58 1 58 C1 58.66 1 59.32 1 60 C-4.94 60 -10.88 60 -17 60 C-17 59.01 -17 58.02 -17 57 C-9.08 56.505 -9.08 56.505 -1 56 C-0.67 37.52 -0.34 19.04 0 0 Z " fill="#6A8987" transform="translate(147,76)"/>
<path d="M0 0 C2 1.3125 2 1.3125 4 3 C4 3.99 4 4.98 4 6 C5.98 6 7.96 6 10 6 C10 6.66 10 7.32 10 8 C10.66 8 11.32 8 12 8 C12 8.66 12 9.32 12 10 C12.66 10 13.32 10 14 10 C14 14.62 14 19.24 14 24 C13.34 24 12.68 24 12 24 C12 24.66 12 25.32 12 26 C11.34 26 10.68 26 10 26 C10 26.66 10 27.32 10 28 C4.72 28 -0.56 28 -6 28 C-6.33 27.34 -6.66 26.68 -7 26 C-5.95199219 25.96261719 -4.90398437 25.92523438 -3.82421875 25.88671875 C-2.44527695 25.82105485 -1.06637229 25.75460765 0.3125 25.6875 C1.00279297 25.66494141 1.69308594 25.64238281 2.40429688 25.61914062 C5.25670147 25.46756357 7.48831265 25.32186785 9.9375 23.78125 C11.34226576 21.42620151 11.51043854 19.53924651 11.6875 16.8125 C11.75324219 15.91144531 11.81898438 15.01039062 11.88671875 14.08203125 C11.92410156 13.39496094 11.96148437 12.70789062 12 12 C8.74469192 10.31573191 5.49529294 9.11213866 2 8 C2.33 6.68 2.66 5.36 3 4 C2.01 4 1.02 4 0 4 C0 2.68 0 1.36 0 0 Z " fill="#452A27" transform="translate(173,47)"/>
<path d="M0 0 C0.66 0 1.32 0 2 0 C2 10.23 2 20.46 2 31 C1.01 31 0.02 31 -1 31 C-1.02465622 26.74585377 -1.04283899 22.49174502 -1.05493164 18.23754883 C-1.05997101 16.78929927 -1.06680253 15.34105483 -1.07543945 13.89282227 C-1.08752247 11.81525412 -1.09323211 9.73775303 -1.09765625 7.66015625 C-1.10289307 6.40855713 -1.10812988 5.15695801 -1.11352539 3.86743164 C-1 1 -1 1 0 0 Z " fill="#4D3D3A" transform="translate(130,89)"/>
<path d="M0 0 C6.15234375 -0.09765625 6.15234375 -0.09765625 8 0 C9 1 9 1 9.1875 4.4375 C9 8 9 8 7 10 C3.375 10.125 3.375 10.125 0 10 C0 6.7 0 3.4 0 0 Z " fill="#81C7C4" transform="translate(110,94)"/>
<path d="M0 0 C1.32 0 2.64 0 4 0 C4 0.66 4 1.32 4 2 C7.3 2.66 10.6 3.32 14 4 C14 4.66 14 5.32 14 6 C8.06 6 2.12 6 -4 6 C-4.33 6.66 -4.66 7.32 -5 8 C-5.99 7.67 -6.98 7.34 -8 7 C-8 6.34 -8 5.68 -8 5 C-5.36 4.01 -2.72 3.02 0 2 C0 1.34 0 0.68 0 0 Z M7 0 C8.98 0 10.96 0 13 0 C13 0.66 13 1.32 13 2 C11.02 2.33 9.04 2.66 7 3 C7 2.01 7 1.02 7 0 Z " fill="#F0F9F8" transform="translate(66,160)"/>
<path d="M0 0 C0.33 0 0.66 0 1 0 C1.08114106 1.77007714 1.13925505 3.54122098 1.1875 5.3125 C1.23970703 6.79169922 1.23970703 6.79169922 1.29296875 8.30078125 C1 11 1 11 -0.15625 12.8125 C-2.67494064 14.43470753 -4.71336337 14.51255079 -7.6875 14.6875 C-8.68136719 14.75324219 -9.67523438 14.81898437 -10.69921875 14.88671875 C-11.45847656 14.92410156 -12.21773438 14.96148437 -13 15 C-13 18.3 -13 21.6 -13 25 C-13.99 25 -14.98 25 -16 25 C-16 21.04 -16 17.08 -16 13 C-13.265625 12.8046875 -10.53125 12.609375 -7.796875 12.4140625 C-5.00542645 12.00080336 -3.24860875 11.70727701 -1 10 C-0.29823412 7.58320293 -0.29823412 7.58320293 -0.25 4.875 C-0.19328125 3.96492188 -0.1365625 3.05484375 -0.078125 2.1171875 C-0.05234375 1.41851562 -0.0265625 0.71984375 0 0 Z " fill="#709A98" transform="translate(124,95)"/>
<path d="M0 0 C18.48 0 36.96 0 56 0 C56 0.33 56 0.66 56 1 C38.84 1.33 21.68 1.66 4 2 C3.67 2.66 3.34 3.32 3 4 C1.68 3.67 0.36 3.34 -1 3 C-0.67 2.01 -0.34 1.02 0 0 Z " fill="#645653" transform="translate(62,64)"/>
<path d="M0 0 C1.62463842 -0.05395478 3.24978541 -0.09277195 4.875 -0.125 C5.77992187 -0.14820312 6.68484375 -0.17140625 7.6171875 -0.1953125 C10 0 10 0 12 2 C12.46376812 9.30434783 12.46376812 9.30434783 10 13 C7.87109375 13.328125 7.87109375 13.328125 5.4375 13.25 C4.63183594 13.23453125 3.82617188 13.2190625 2.99609375 13.203125 C1 13 1 13 0 12 C-0.07244053 9.98035801 -0.08377188 7.95832876 -0.0625 5.9375 C-0.05347656 4.83277344 -0.04445313 3.72804688 -0.03515625 2.58984375 C-0.02355469 1.73519531 -0.01195313 0.88054687 0 0 Z M2 2 C2 5.3 2 8.6 2 12 C5.41656024 12.16677282 5.41656024 12.16677282 9 12 C11.39564928 10.05032721 11.39564928 10.05032721 11.1875 6.4375 C11.39287806 3.17036305 11.39287806 3.17036305 10 2 C7.32941149 1.85884839 4.67567762 1.95752893 2 2 Z " fill="#67817F" transform="translate(108,92)"/>
<path d="M0 0 C11.63856502 -0.76681614 11.63856502 -0.76681614 14.9765625 1.11328125 C16.3125 2.5 16.3125 2.5 18 5 C15.44495285 5.94631376 14.36305944 6.1555969 11.8125 5.0625 C7.86652233 3.57179733 4.17146468 3.83641315 0 4 C0 2.68 0 1.36 0 0 Z " fill="#573E3B" transform="translate(147,37)"/>
<path d="M0 0 C0.76609345 2.73067679 1.12933293 5.16920983 1.14526367 8.00244141 C1.15483345 9.16351913 1.15483345 9.16351913 1.16459656 10.34805298 C1.16570938 11.17421112 1.1668222 12.00036926 1.16796875 12.8515625 C1.17129715 13.70680511 1.17462555 14.56204773 1.17805481 15.44320679 C1.18310865 17.24696313 1.18546361 19.05072878 1.18530273 20.85449219 C1.18749754 23.6218993 1.20569203 26.38891295 1.22460938 29.15625 C1.22754189 30.9088528 1.22952763 32.6614575 1.23046875 34.4140625 C1.23765427 35.2442691 1.24483978 36.07447571 1.25224304 36.92984009 C1.22883483 42.77116517 1.22883483 42.77116517 -1 45 C-1.33 44.67 -1.66 44.34 -2 44 C-4.32817964 43.63239269 -6.6618385 43.29758419 -9 43 C-9.33 41.35 -9.66 39.7 -10 38 C-9.34 38.33 -8.68 38.66 -8 39 C-8 39.99 -8 40.98 -8 42 C-5.69 42 -3.38 42 -1 42 C-1.00785522 40.251427 -1.00785522 40.251427 -1.01586914 38.4675293 C-1.03395871 34.14575975 -1.04544653 29.82399356 -1.05493164 25.50219727 C-1.05996279 23.63109779 -1.06678835 21.76000225 -1.07543945 19.88891602 C-1.08755829 17.20067372 -1.09324047 14.51248336 -1.09765625 11.82421875 C-1.10281754 10.98662521 -1.10797882 10.14903168 -1.11329651 9.28605652 C-1.11362064 5.93624258 -1.06684515 3.20053544 0 0 Z " fill="#84A09C" transform="translate(60,70)"/>
<path d="M0 0 C7.59 0.33 15.18 0.66 23 1 C23 1.66 23 2.32 23 3 C15.41 3.33 7.82 3.66 0 4 C0 2.68 0 1.36 0 0 Z " fill="#F0FAF8" transform="translate(75,43)"/>
<path d="M0 0 C2.64 0 5.28 0 8 0 C8 0.33 8 0.66 8 1 C7.05125 1.28875 6.1025 1.5775 5.125 1.875 C1.94788422 2.76825109 1.94788422 2.76825109 0 5 C-0.17525055 7.79684797 -0.23143189 10.4932808 -0.1953125 13.2890625 C-0.1924826 14.10748627 -0.18965271 14.92591003 -0.18673706 15.76913452 C-0.17552532 18.38790393 -0.15041929 21.00633364 -0.125 23.625 C-0.11497147 25.39843257 -0.1058454 27.17187049 -0.09765625 28.9453125 C-0.07558278 33.29700626 -0.04104644 37.6484455 0 42 C-0.66 42 -1.32 42 -2 42 C-2 28.8 -2 15.6 -2 2 C-1.34 2 -0.68 2 0 2 C0 1.34 0 0.68 0 0 Z " fill="#74A3A0" transform="translate(68,74)"/>
<path d="M0 0 C3.3 0 6.6 0 10 0 C10 0.33 10 0.66 10 1 C7.03 1 4.06 1 1 1 C1 1.66 1 2.32 1 3 C2.98 3 4.96 3 7 3 C7.33 3.66 7.66 4.32 8 5 C7.236875 4.9175 6.47375 4.835 5.6875 4.75 C2.85416667 4.70833333 2.85416667 4.70833333 1.1875 7 C0.795625 7.66 0.40375 8.32 0 9 C0.66 9.66 1.32 10.32 2 11 C2 12.32 2 13.64 2 15 C1.34 15 0.68 15 0 15 C0 14.34 0 13.68 0 13 C-1.98 13.33 -3.96 13.66 -6 14 C-5.53980469 13.59136719 -5.07960938 13.18273437 -4.60546875 12.76171875 C-2.84085229 10.82536346 -2.16028378 9.27511002 -1.3125 6.8125 C-1.06113281 6.09707031 -0.80976563 5.38164063 -0.55078125 4.64453125 C-0.36902344 4.10183594 -0.18726563 3.55914062 0 3 C-0.66 2.67 -1.32 2.34 -2 2 C-1.34 2 -0.68 2 0 2 C0 1.34 0 0.68 0 0 Z " fill="#BFBDB5" transform="translate(28,105)"/>
<path d="M0 0 C2 1.5625 2 1.5625 4 4 C4.25 7.75 4.25 7.75 4 11 C1.69 11 -0.62 11 -3 11 C-2.53199289 6.94393835 -2.12046792 3.53411321 0 0 Z " fill="#7BB7B4" transform="translate(88,99)"/>
<path d="M0 0 C0.66 0.33 1.32 0.66 2 1 C1.18958252 1.63897217 0.37916504 2.27794434 -0.45581055 2.9362793 C-3.86379273 7.04018184 -3.73162712 9.84554826 -3.70703125 15.01953125 C-3.72215256 15.87810226 -3.73727386 16.73667328 -3.75285339 17.6212616 C-3.79569388 20.35194231 -3.80456459 23.08151686 -3.8125 25.8125 C-3.83564723 27.66864912 -3.86101305 29.524772 -3.88867188 31.38085938 C-3.95148791 35.92067054 -3.98385169 40.45979267 -4 45 C-4.66 45 -5.32 45 -6 45 C-6.33 43.68 -6.66 42.36 -7 41 C-6.34 41 -5.68 41 -5 41 C-5.02618408 39.93563721 -5.05236816 38.87127441 -5.0793457 37.7746582 C-5.17004776 33.81458673 -5.22732089 29.85460649 -5.2746582 25.89379883 C-5.29975714 24.18172755 -5.33384429 22.46976296 -5.37719727 20.75805664 C-5.43805739 18.29286355 -5.46625432 15.82909015 -5.48828125 13.36328125 C-5.51408768 12.60163162 -5.5398941 11.83998199 -5.56648254 11.05525208 C-5.56866778 6.88695185 -5.18706903 5.2234541 -2.46948242 1.97729492 C-1.65455322 1.3247876 -0.83962402 0.67228027 0 0 Z " fill="#A1B6B0" transform="translate(60,65)"/>
<path d="M0 0 C1.66880615 3.33761231 0.99628371 7.06759523 0.87890625 10.7265625 C0.85529526 11.58937836 0.83168427 12.45219421 0.80735779 13.34115601 C0.73065703 16.10260206 0.64666038 18.86377218 0.5625 21.625 C0.50928573 23.49477807 0.45654529 25.36456969 0.40429688 27.234375 C0.27503321 31.82309209 0.13922496 36.41157477 0 41 C-2.31 41 -4.62 41 -7 41 C-7 39.68 -7 38.36 -7 37 C-6.34 37 -5.68 37 -5 37 C-5 37.66 -5 38.32 -5 39 C-3.68 39.33 -2.36 39.66 -1 40 C-1.00523682 38.82381104 -1.01047363 37.64762207 -1.01586914 36.43579102 C-1.03391663 32.08797969 -1.04543108 27.7401717 -1.05493164 23.39233398 C-1.05997244 21.5075627 -1.06680498 19.62279535 -1.07543945 17.73803711 C-1.08751617 15.03498364 -1.09323068 12.33198169 -1.09765625 9.62890625 C-1.10281754 8.78099014 -1.10797882 7.93307404 -1.11329651 7.0594635 C-1.11349195 5.03928932 -1.06206211 3.01922066 -1 1 C-0.67 0.67 -0.34 0.34 0 0 Z " fill="#636966" transform="translate(59,71)"/>
<path d="M0 0 C8.57142857 -0.14285714 8.57142857 -0.14285714 12 1 C12 1.66 12 2.32 12 3 C5.92972642 5.1583195 0.40629424 5.20852314 -6 5 C-6 4.67 -6 4.34 -6 4 C-4.35 4 -2.7 4 -1 4 C-0.67 2.68 -0.34 1.36 0 0 Z " fill="#DFF4F0" transform="translate(58,155)"/>
<path d="M0 0 C1.32 0 2.64 0 4 0 C4 0.66 4 1.32 4 2 C4.66 2 5.32 2 6 2 C6 4.64 6 7.28 6 10 C5.34 10 4.68 10 4 10 C4 13.3 4 16.6 4 20 C2.68 19.34 1.36 18.68 0 18 C0 17.34 0 16.68 0 16 C0.66 16 1.32 16 2 16 C2 14.68 2 13.36 2 12 C1.34 12 0.68 12 0 12 C0 11.34 0 10.68 0 10 C0.99 9.34 1.98 8.68 3 8 C2.45276317 4.62537285 1.9451 2.91765 0 0 Z " fill="#79746F" transform="translate(64,116)"/>
<path d="M0 0 C1.65 0.33 3.3 0.66 5 1 C5.98248524 5.0527516 6.08159574 8.83861737 6 13 C5.34 12.67 4.68 12.34 4 12 C3.375 9.9375 3.375 9.9375 3 8 C1.35 8.33 -0.3 8.66 -2 9 C-1.41196203 5.97580475 -0.77321882 2.98241547 0 0 Z " fill="#48302E" transform="translate(87,89)"/>
<path d="M0 0 C0.33 1.32 0.66 2.64 1 4 C1.66 3.67 2.32 3.34 3 3 C7.23971058 2.76446052 10.36178302 2.67154114 14 5 C13.67 5.66 13.34 6.32 13 7 C11.68 6.67 10.36 6.34 9 6 C9 5.34 9 4.68 9 4 C4.87561925 4.64506196 4.87561925 4.64506196 1 6 C-0.61147442 8.99428144 -0.61147442 8.99428144 -1 12 C-2.32 12 -3.64 12 -5 12 C-4.01 11.67 -3.02 11.34 -2 11 C-2 10.01 -2 9.02 -2 8 C-2.66 7.67 -3.32 7.34 -4 7 C-2.68 4.69 -1.36 2.38 0 0 Z " fill="#A9A39B" transform="translate(146,37)"/>
<path d="M0 0 C6.27 0 12.54 0 19 0 C19 1.32 19 2.64 19 4 C18.34 4 17.68 4 17 4 C17 3.34 17 2.68 17 2 C15.02 2 13.04 2 11 2 C11 3.98 11 5.96 11 8 C10.67 8 10.34 8 10 8 C10 6.02 10 4.04 10 2 C6.7 2 3.4 2 0 2 C0 1.34 0 0.68 0 0 Z " fill="#5F504D" transform="translate(47,128)"/>
<path d="M0 0 C1.53760842 3.07521683 0.36599236 5.34675118 -0.4375 8.625 C-0.72496094 9.81351563 -1.01242188 11.00203125 -1.30859375 12.2265625 C-1.53675781 13.14179687 -1.76492187 14.05703125 -2 15 C-1.34 15 -0.68 15 0 15 C0.33 13.68 0.66 12.36 1 11 C1 13.31 1 15.62 1 18 C-0.875 18.625 -0.875 18.625 -3 19 C-3.66 18.34 -4.32 17.68 -5 17 C-5 15.68 -5 14.36 -5 13 C-4.34 13 -3.68 13 -3 13 C-2.87625 11.96875 -2.7525 10.9375 -2.625 9.875 C-2.06110186 6.37883154 -1.21317941 3.31602373 0 0 Z " fill="#565552" transform="translate(81,103)"/>
<path d="M0 0 C0.66 0 1.32 0 2 0 C1.29748724 3.16130743 0.45140033 6.09719933 -1 9 C-3.125 10.3125 -3.125 10.3125 -5 11 C-5 10.34 -5 9.68 -5 9 C-6.32 8.67 -7.64 8.34 -9 8 C-6.69 7.34 -4.38 6.68 -2 6 C-1.855625 5.38125 -1.71125 4.7625 -1.5625 4.125 C-1 2 -1 2 0 0 Z " fill="#807772" transform="translate(26,108)"/>
<path d="M0 0 C0.66 0.33 1.32 0.66 2 1 C1.34 2.65 0.68 4.3 0 6 C1.32 6.66 2.64 7.32 4 8 C4 9.32 4 10.64 4 12 C3.01 12 2.02 12 1 12 C1 11.34 1 10.68 1 10 C-1.31 10 -3.62 10 -6 10 C-5.67 9.34 -5.34 8.68 -5 8 C-4.01 8 -3.02 8 -2 8 C-2.04125 7.236875 -2.0825 6.47375 -2.125 5.6875 C-2 3 -2 3 0 0 Z " fill="#C7BEB4" transform="translate(130,48)"/>
<path d="M0 0 C1.98 0 3.96 0 6 0 C6 0.66 6 1.32 6 2 C6.66 2 7.32 2 8 2 C8 2.66 8 3.32 8 4 C9.65 4 11.3 4 13 4 C13 4.66 13 5.32 13 6 C9.625 6.1875 9.625 6.1875 6 6 C5.34 5.01 4.68 4.02 4 3 C1.94074861 2.27617533 1.94074861 2.27617533 0 2 C0 1.34 0 0.68 0 0 Z " fill="#B8ADA4" transform="translate(154,52)"/>
<path d="M0 0 C1.32 0 2.64 0 4 0 C4 0.66 4 1.32 4 2 C4.99 2.66 5.98 3.32 7 4 C4.03 4 1.06 4 -2 4 C-1.34 2.68 -0.68 1.36 0 0 Z M7 0 C8.98 0 10.96 0 13 0 C13 0.66 13 1.32 13 2 C11.02 2.33 9.04 2.66 7 3 C7 2.01 7 1.02 7 0 Z " fill="#E3F5F2" transform="translate(66,160)"/>
<path d="M0 0 C0.33 0.99 0.66 1.98 1 3 C0.01 3.33 -0.98 3.66 -2 4 C-3.22520264 7.00847418 -3.22520264 7.00847418 -4 10 C-4.66 10 -5.32 10 -6 10 C-5.8125 6.6875 -5.8125 6.6875 -5 3 C-2.4375 1.0625 -2.4375 1.0625 0 0 Z " fill="#84807B" transform="translate(124,54)"/>
<path d="M0 0 C3.875 0.875 3.875 0.875 5 2 C5.07205511 3.68608966 5.08386068 5.37500659 5.0625 7.0625 C5.05347656 7.98160156 5.04445313 8.90070313 5.03515625 9.84765625 C5.02355469 10.55792969 5.01195313 11.26820312 5 12 C4.34 12 3.68 12 3 12 C3 9.03 3 6.06 3 3 C2.01 2.67 1.02 2.34 0 2 C0 1.34 0 0.68 0 0 Z " fill="#462A28" transform="translate(118,91)"/>
<path d="M0 0 C2.64 0 5.28 0 8 0 C8.33 0.66 8.66 1.32 9 2 C5.86501708 3.85776765 3.62528568 4.20140476 0 4 C0 2.68 0 1.36 0 0 Z " fill="#FDFEFE" transform="translate(75,43)"/>
<path d="M0 0 C1.95766281 -0.08082094 3.91626728 -0.13910778 5.875 -0.1875 C7.51082031 -0.23970703 7.51082031 -0.23970703 9.1796875 -0.29296875 C10.11039063 -0.19628906 11.04109375 -0.09960938 12 0 C14 3 14 3 13.625 5.1875 C13.41875 5.785625 13.2125 6.38375 13 7 C12.34 6.34 11.68 5.68 11 5 C11 3.68 11 2.36 11 1 C7.7 1 4.4 1 1 1 C0.67 1.99 0.34 2.98 0 4 C0 2.68 0 1.36 0 0 Z " fill="#729F9C" transform="translate(82,114)"/>
<path d="M0 0 C3.77300358 1.0197307 4.80206144 1.65872662 6.8125 5.125 C7.204375 6.07375 7.59625 7.0225 8 8 C4.18315774 6.44499019 1.80804268 3.96404505 -1 1 C-0.67 0.67 -0.34 0.34 0 0 Z " fill="#5D5452" transform="translate(150,65)"/>
<path d="M0 0 C2.97 0.495 2.97 0.495 6 1 C6 1.66 6 2.32 6 3 C6.66 3 7.32 3 8 3 C8 4.32 8 5.64 8 7 C7.34 7 6.68 7 6 7 C5.67 6.01 5.34 5.02 5 4 C3.35 3.67 1.7 3.34 0 3 C0 2.01 0 1.02 0 0 Z " fill="#BBB0A7" transform="translate(168,59)"/>
<path d="M0 0 C0.99 0.99 1.98 1.98 3 3 C2.34 3 1.68 3 1 3 C1 3.99 1 4.98 1 6 C2.65 6 4.3 6 6 6 C6 6.33 6 6.66 6 7 C4.02 7 2.04 7 0 7 C-0.33 6.01 -0.66 5.02 -1 4 C-3.97 3.505 -3.97 3.505 -7 3 C-7 2.67 -7 2.34 -7 2 C-4.69 2 -2.38 2 0 2 C0 1.34 0 0.68 0 0 Z " fill="#DDD7CC" transform="translate(167,56)"/>
<path d="M0 0 C0.33 0 0.66 0 1 0 C0.67 3.63 0.34 7.26 0 11 C-0.99 10.01 -1.98 9.02 -3 8 C-1.125 1.125 -1.125 1.125 0 0 Z " fill="#4B3634" transform="translate(84,99)"/>
<path d="M0 0 C0.625 1.875 0.625 1.875 1 4 C0.34 4.66 -0.32 5.32 -1 6 C-3.125 5.625 -3.125 5.625 -5 5 C-3.35 3.35 -1.7 1.7 0 0 Z " fill="#5B5957" transform="translate(155,136)"/>
<path d="M0 0 C0.66 0 1.32 0 2 0 C2.66 1.98 3.32 3.96 4 6 C2.35 6.66 0.7 7.32 -1 8 C-0.67 5.36 -0.34 2.72 0 0 Z " fill="#493230" transform="translate(93,103)"/>
<path d="M0 0 C2.62187494 1.04874998 3.79371361 1.64931313 5.25 4.125 C5.4975 4.74375 5.745 5.3625 6 6 C3.5625 5.25 3.5625 5.25 1 4 C0.1875 1.875 0.1875 1.875 0 0 Z " fill="#5B5552" transform="translate(58,137)"/>
<path d="M0 0 C0.66 0 1.32 0 2 0 C2 0.99 2 1.98 2 3 C3.32 3 4.64 3 6 3 C6 3.66 6 4.32 6 5 C4.125 5.625 4.125 5.625 2 6 C1.34 5.34 0.68 4.68 0 4 C0 2.68 0 1.36 0 0 Z " fill="#627471" transform="translate(76,116)"/>
<path d="M0 0 C2.97 0.33 5.94 0.66 9 1 C9 1.99 9 2.98 9 4 C4.545 3.01 4.545 3.01 0 2 C0 1.34 0 0.68 0 0 Z " fill="#736662" transform="translate(29,106)"/>
<path d="M0 0 C2.62187494 1.04874998 3.79371361 1.64931313 5.25 4.125 C5.4975 4.74375 5.745 5.3625 6 6 C4.35 5.67 2.7 5.34 1 5 C0.67 3.35 0.34 1.7 0 0 Z " fill="#452625" transform="translate(159,37)"/>
<path d="M0 0 C0.66 0.33 1.32 0.66 2 1 C2 3.31 2 5.62 2 8 C0.68 7.34 -0.64 6.68 -2 6 C-2 5.34 -2 4.68 -2 4 C-1.34 4 -0.68 4 0 4 C0 2.68 0 1.36 0 0 Z " fill="#698482" transform="translate(66,128)"/>
<path d="M0 0 C2.64 0 5.28 0 8 0 C5.37801226 2.15377564 3.35595828 3.40072174 0 4 C-0.33 3.34 -0.66 2.68 -1 2 C-0.67 1.34 -0.34 0.68 0 0 Z " fill="#636260" transform="translate(62,64)"/>
<path d="M0 0 C2.31 0 4.62 0 7 0 C7.33 0.66 7.66 1.32 8 2 C2.25 3.125 2.25 3.125 0 2 C0 1.34 0 0.68 0 0 Z " fill="#D4F1EB" transform="translate(56,162)"/>
<path d="M0 0 C0.33 0.99 0.66 1.98 1 3 C-0.32 3.99 -1.64 4.98 -3 6 C-4.32 5.34 -5.64 4.68 -7 4 C-5.68 4 -4.36 4 -3 4 C-3 3.34 -3 2.68 -3 2 C-2.01 1.34 -1.02 0.68 0 0 Z " fill="#84807B" transform="translate(41,102)"/>
<path d="M0 0 C2.64 0 5.28 0 8 0 C8 0.33 8 0.66 8 1 C7.071875 1.28875 6.14375 1.5775 5.1875 1.875 C1.90208333 2.8875 1.90208333 2.8875 -1 5 C-0.67 3.35 -0.34 1.7 0 0 Z " fill="#7AB4B1" transform="translate(68,74)"/>
</svg>
