<?xml version="1.0" encoding="UTF-8"?>
<svg version="1.1" xmlns="http://www.w3.org/2000/svg" width="200" height="200">
<path d="M0 0 C1.60875 -0.00386719 1.60875 -0.00386719 3.25 -0.0078125 C6 0.125 6 0.125 8 1.125 C8 5.085 8 9.045 8 13.125 C10.97 13.125 13.94 13.125 17 13.125 C17 9.165 17 5.205 17 1.125 C19.73077876 -0.24038938 21.95560367 -0.00731826 25 0 C26.60875 -0.00386719 26.60875 -0.00386719 28.25 -0.0078125 C31 0.125 31 0.125 33 1.125 C33 5.085 33 9.045 33 13.125 C35.97 13.125 38.94 13.125 42 13.125 C42 9.165 42 5.205 42 1.125 C44.73077876 -0.24038938 46.95560367 -0.00731826 50 0 C51.60875 -0.00386719 51.60875 -0.00386719 53.25 -0.0078125 C56 0.125 56 0.125 58 1.125 C58 5.085 58 9.045 58 13.125 C61.96 13.125 65.92 13.125 70 13.125 C70 15.105 70 17.085 70 19.125 C70.85464844 19.11339844 71.70929688 19.10179688 72.58984375 19.08984375 C74.24693359 19.07630859 74.24693359 19.07630859 75.9375 19.0625 C77.03964844 19.05089844 78.14179688 19.03929688 79.27734375 19.02734375 C82 19.125 82 19.125 83 20.125 C83.09909302 22.45660055 83.12970504 24.79129942 83.125 27.125 C83.12757813 28.40375 83.13015625 29.6825 83.1328125 31 C83 34.125 83 34.125 82 35.125 C79.98035801 35.19744053 77.95832876 35.20877188 75.9375 35.1875 C74.83277344 35.17847656 73.72804687 35.16945312 72.58984375 35.16015625 C71.73519531 35.14855469 70.88054687 35.13695312 70 35.125 C70 36.115 70 37.105 70 38.125 C87.16 38.125 104.32 38.125 122 38.125 C122.99 40.6 122.99 40.6 124 43.125 C124.99 43.455 125.98 43.785 127 44.125 C127.16370225 59.12841537 127.28704895 74.1317614 127.3626852 89.13588047 C127.39874216 96.10301678 127.44787735 103.06959739 127.52807617 110.03637695 C127.60544162 116.76024446 127.64599473 123.4834156 127.6641407 130.20774651 C127.67707138 132.77264427 127.7023224 135.33751057 127.7401104 137.90216255 C127.79095634 141.49609658 127.79792205 145.08764873 127.79467773 148.68188477 C127.83242813 150.27116287 127.83242813 150.27116287 127.87094116 151.89254761 C127.82066874 157.04203747 127.43579242 160.37006532 123.92456055 164.29052734 C120.20781846 167.42586081 117.31281498 167.97831573 112.41235352 167.91967773 C111.3281739 167.92121101 111.3281739 167.92121101 110.22209167 167.92277527 C107.85614784 167.91793585 105.49416701 167.86368439 103.12890625 167.80859375 C101.47983406 167.79552417 99.83073454 167.78556642 98.18162537 167.77857971 C93.85889525 167.75196011 89.53783386 167.68329391 85.21575928 167.60565186 C80.798366 167.53380863 76.38070079 167.50202348 71.96289062 167.46679688 C63.30783128 167.39191384 54.65412371 167.27257785 46 167.125 C46 169.765 46 172.405 46 175.125 C47.30203369 175.10928955 47.30203369 175.10928955 48.63037109 175.09326172 C51.84699528 175.05920284 55.06352767 175.03411233 58.28027344 175.01513672 C59.67320781 175.00507123 61.06612102 174.99141766 62.45898438 174.97412109 C64.4595436 174.9498978 66.46025615 174.93959186 68.4609375 174.9296875 C70.26763916 174.91397705 70.26763916 174.91397705 72.11083984 174.89794922 C75 175.125 75 175.125 77 177.125 C77.23046875 180.34765625 77.23046875 180.34765625 77.1875 184.1875 C77.17783203 186.09208984 77.17783203 186.09208984 77.16796875 188.03515625 C77 191.125 77 191.125 76 192.125 C73.11393984 192.22556691 70.25177425 192.26115375 67.36523438 192.25439453 C66.45961258 192.25614685 65.55399078 192.25789917 64.6209259 192.25970459 C61.61184807 192.26412454 58.60282848 192.26118461 55.59375 192.2578125 C53.51249175 192.2584855 51.43123357 192.25945549 49.34997559 192.26071167 C44.98184462 192.26218884 40.61373407 192.26003348 36.24560547 192.25537109 C30.63285447 192.2496738 25.02015128 192.2529527 19.40740204 192.25894356 C15.10788611 192.26254866 10.80838162 192.26141082 6.50886536 192.25881577 C4.43870539 192.25814636 2.3685444 192.2589754 0.29838562 192.26129532 C-2.58951586 192.26382102 -5.47733878 192.25998242 -8.36523438 192.25439453 C-9.22968674 192.25641876 -10.0941391 192.25844299 -10.98478699 192.26052856 C-16.88573763 192.23926237 -16.88573763 192.23926237 -18 191.125 C-18.12557162 188.81506618 -18.17575729 186.50081464 -18.1875 184.1875 C-18.20167969 182.92035156 -18.21585938 181.65320313 -18.23046875 180.34765625 C-18 177.125 -18 177.125 -16 175.125 C-13.20263672 174.89794922 -13.20263672 174.89794922 -9.6796875 174.9296875 C-7.79443359 174.93935547 -7.79443359 174.93935547 -5.87109375 174.94921875 C-3.89302734 174.97435547 -3.89302734 174.97435547 -1.875 175 C-0.53516279 175.01003017 0.80468152 175.01915596 2.14453125 175.02734375 C5.42986573 175.05097925 8.71484465 175.08392766 12 175.125 C12 172.485 12 169.845 12 167.125 C11.12160965 167.13388245 10.2432193 167.14276489 9.33821106 167.1519165 C1.05463337 167.2321105 -7.22881369 167.29298883 -15.51269054 167.33224869 C-19.7714057 167.35311132 -24.02979973 167.38140431 -28.28833008 167.42675781 C-32.3991492 167.47026351 -36.5096597 167.49414707 -40.6206913 167.50450897 C-42.18799001 167.51189193 -43.75527209 167.52630936 -45.32243919 167.54792023 C-47.52026048 167.57701852 -49.71681157 167.58095354 -51.91479492 167.57910156 C-53.16499924 167.58798401 -54.41520355 167.59686646 -55.70329285 167.60601807 C-59.59905533 167.03759265 -61.22946152 165.8654029 -64 163.125 C-65.20631512 160.71236975 -65.13629277 159.1789177 -65.15390015 156.48309326 C-65.16250061 155.50455887 -65.17110107 154.52602448 -65.17996216 153.51783752 C-65.18422211 152.44041794 -65.18848206 151.36299835 -65.19287109 150.25292969 C-65.20104858 149.12110764 -65.20922607 147.98928558 -65.21765137 146.82316589 C-65.2425357 143.06440771 -65.25902908 139.30568735 -65.2734375 135.546875 C-65.27876118 134.26538826 -65.28408485 132.98390152 -65.28956985 131.66358185 C-65.31080589 126.2780251 -65.32993548 120.8924807 -65.34119225 115.50689316 C-65.35742405 107.79203754 -65.39058071 100.07768618 -65.44759309 92.36302066 C-65.49099375 86.28255682 -65.5069405 80.20229047 -65.51332474 74.12168121 C-65.52005011 71.53647523 -65.53530522 68.95127695 -65.55921555 66.36617279 C-65.59076653 62.7486067 -65.5909181 59.13231549 -65.58349609 55.51464844 C-65.59990143 54.44532578 -65.61630676 53.37600311 -65.63320923 52.27427673 C-65.56505862 44.16505568 -65.56505862 44.16505568 -62.72276306 40.45571899 C-59.12945072 37.37979901 -59.12945072 37.37979901 -55.85229492 37.44384766 C-54.68164742 37.44452744 -54.68164742 37.44452744 -53.48735046 37.44522095 C-52.6600795 37.47618866 -51.83280853 37.50715637 -50.98046875 37.5390625 C-50.12189774 37.54755219 -49.26332672 37.55604187 -48.3787384 37.56478882 C-45.64702769 37.59827203 -42.9183122 37.6735363 -40.1875 37.75 C-38.33142296 37.78010642 -36.47529947 37.80748105 -34.61914062 37.83203125 C-30.07827993 37.89804605 -25.53964704 38.00152819 -21 38.125 C-21 37.135 -21 36.145 -21 35.125 C-24.96 35.125 -28.92 35.125 -33 35.125 C-33.02685095 32.64576199 -33.04676547 30.1668116 -33.0625 27.6875 C-33.07087891 26.98044922 -33.07925781 26.27339844 -33.08789062 25.54492188 C-33.09653588 23.73806441 -33.05220011 21.93112397 -33 20.125 C-32 19.125 -32 19.125 -29.49609375 19.02734375 C-28.48675781 19.03894531 -27.47742187 19.05054687 -26.4375 19.0625 C-25.42558594 19.07152344 -24.41367187 19.08054687 -23.37109375 19.08984375 C-22.58863281 19.10144531 -21.80617187 19.11304687 -21 19.125 C-21.020625 18.320625 -21.04125 17.51625 -21.0625 16.6875 C-21 14.125 -21 14.125 -20 13.125 C-15.99779347 12.98144883 -12.00558317 13.08283597 -8 13.125 C-8 9.165 -8 5.205 -8 1.125 C-5.26922124 -0.24038938 -3.04439633 -0.00731826 0 0 Z " fill="#4E4C5D" transform="translate(69,3.875)"/>
<path d="M0 0 C1.60875 -0.00386719 1.60875 -0.00386719 3.25 -0.0078125 C6 0.125 6 0.125 8 1.125 C8 5.085 8 9.045 8 13.125 C10.97 13.125 13.94 13.125 17 13.125 C17 9.165 17 5.205 17 1.125 C19.73077876 -0.24038938 21.95560367 -0.00731826 25 0 C26.60875 -0.00386719 26.60875 -0.00386719 28.25 -0.0078125 C31 0.125 31 0.125 33 1.125 C33 5.085 33 9.045 33 13.125 C35.97 13.125 38.94 13.125 42 13.125 C42 9.165 42 5.205 42 1.125 C44.73077876 -0.24038938 46.95560367 -0.00731826 50 0 C51.60875 -0.00386719 51.60875 -0.00386719 53.25 -0.0078125 C56 0.125 56 0.125 58 1.125 C58 5.085 58 9.045 58 13.125 C61.96 13.125 65.92 13.125 70 13.125 C70 15.105 70 17.085 70 19.125 C70.85464844 19.11339844 71.70929688 19.10179688 72.58984375 19.08984375 C73.69457031 19.08082031 74.79929687 19.07179688 75.9375 19.0625 C77.03964844 19.05089844 78.14179688 19.03929688 79.27734375 19.02734375 C82 19.125 82 19.125 83 20.125 C83.09909302 22.45660055 83.12970504 24.79129942 83.125 27.125 C83.12886719 29.043125 83.12886719 29.043125 83.1328125 31 C83 34.125 83 34.125 82 35.125 C79.98035801 35.19744053 77.95832876 35.20877188 75.9375 35.1875 C74.83277344 35.17847656 73.72804688 35.16945312 72.58984375 35.16015625 C71.73519531 35.14855469 70.88054687 35.13695312 70 35.125 C69.19177647 41.85422372 68.90314039 48.41167872 69.04296875 55.18359375 C69.0653212 57.05142211 69.0867804 58.91926133 69.10742188 60.78710938 C69.14472349 63.6929298 69.18821986 66.59818804 69.24682617 69.50366211 C69.30109784 72.3345577 69.33032217 75.16481008 69.35546875 77.99609375 C69.39114204 79.30386024 69.39114204 79.30386024 69.42753601 80.63804626 C69.43106583 81.44641434 69.43459564 82.25478241 69.43823242 83.08764648 C69.45013107 83.79694809 69.46202972 84.50624969 69.47428894 85.23704529 C69 87.125 69 87.125 67.46946716 88.85307312 C64.03170785 90.62372978 60.82774864 90.5438005 57.05029297 90.51318359 C56.25312866 90.51844055 55.45596436 90.52369751 54.63464355 90.52911377 C52.00362474 90.54230223 49.3732123 90.53358163 46.7421875 90.5234375 C44.91423425 90.52545817 43.08628179 90.52836955 41.2583313 90.53213501 C37.43011794 90.53655645 33.60211471 90.5301316 29.77392578 90.51611328 C24.85959141 90.49899726 19.94574768 90.50887892 15.0314312 90.52683067 C11.25855792 90.53765275 7.48580169 90.53422987 3.71292496 90.5264473 C1.90037096 90.52444217 0.08780644 90.52691547 -1.72473526 90.53388596 C-4.25313895 90.54147729 -6.78073849 90.52993057 -9.30908203 90.51318359 C-10.06236786 90.51925629 -10.81565369 90.52532898 -11.59176636 90.53158569 C-13.67337036 90.50595093 -13.67337036 90.50595093 -17 90.125 C-19.61477832 86.20283252 -19.33363899 82.80587446 -19.37890625 78.25 C-19.39590073 77.37029541 -19.4128952 76.49059082 -19.43040466 75.58422852 C-19.48354626 72.7645593 -19.52375584 69.9449008 -19.5625 67.125 C-19.62096751 63.43739357 -19.68514757 59.74992852 -19.75390625 56.0625 C-19.76982819 55.18327881 -19.78575012 54.30405762 -19.80215454 53.39819336 C-19.9304953 47.26753807 -20.31185568 41.22161743 -21 35.125 C-24.96 35.125 -28.92 35.125 -33 35.125 C-33.02685095 32.64576199 -33.04676547 30.1668116 -33.0625 27.6875 C-33.07506836 26.62692383 -33.07506836 26.62692383 -33.08789062 25.54492188 C-33.09653588 23.73806441 -33.05220011 21.93112397 -33 20.125 C-32 19.125 -32 19.125 -29.49609375 19.02734375 C-28.48675781 19.03894531 -27.47742187 19.05054687 -26.4375 19.0625 C-25.42558594 19.07152344 -24.41367187 19.08054687 -23.37109375 19.08984375 C-22.19740234 19.10724609 -22.19740234 19.10724609 -21 19.125 C-21.020625 18.320625 -21.04125 17.51625 -21.0625 16.6875 C-21 14.125 -21 14.125 -20 13.125 C-15.99779347 12.98144883 -12.00558317 13.08283597 -8 13.125 C-8 9.165 -8 5.205 -8 1.125 C-5.26922124 -0.24038938 -3.04439633 -0.00731826 0 0 Z " fill="#F89D18" transform="translate(69,3.875)"/>
<path d="M0 0 C2.94093052 -0.37859559 5.27644958 -0.47775614 8.1875 -0.3125 C8.93708984 -0.28994141 9.68667969 -0.26738281 10.45898438 -0.24414062 C12.3068447 -0.18529157 14.15367667 -0.09560938 16 0 C17.70062753 3.40125507 17.13791497 7.28206342 17.12939453 11.02368164 C17.13202301 12.42622444 17.13202301 12.42622444 17.13470459 13.85710144 C17.139118 16.9581384 17.13618713 20.05911867 17.1328125 23.16015625 C17.13348563 25.307246 17.13445573 27.45433568 17.13571167 29.60142517 C17.1371879 34.1048149 17.13503625 38.60818483 17.13037109 43.11157227 C17.12467043 48.89804947 17.12795542 54.68448034 17.13394356 60.47095585 C17.13754825 64.90514987 17.13641107 69.3393328 17.13381577 73.77352715 C17.13314642 75.90788211 17.13397518 78.04223806 17.13629532 80.17659187 C17.13882071 83.15299287 17.13498301 86.12931761 17.12939453 89.10571289 C17.13141876 89.99664642 17.13344299 90.88757996 17.13552856 91.80551147 C17.11426306 97.88573694 17.11426306 97.88573694 16 99 C14.05249373 99.10450575 12.10117558 99.13855367 10.15087891 99.14526367 C8.27355576 99.15483345 8.27355576 99.15483345 6.35830688 99.16459656 C4.98105915 99.16612528 3.60381089 99.16723922 2.2265625 99.16796875 C0.82270269 99.17118 -0.58115678 99.17454397 -1.98501587 99.17805481 C-4.93240128 99.18405298 -7.87975735 99.18589406 -10.82714844 99.18530273 C-14.60580257 99.18520118 -18.3842685 99.19884299 -22.16287804 99.21607494 C-25.06420762 99.22718985 -27.96549167 99.22922209 -30.86684036 99.22869301 C-32.25991081 99.2298743 -33.6529824 99.23430441 -35.04603195 99.24202538 C-36.99469336 99.25181251 -38.94340969 99.24768627 -40.89208984 99.24291992 C-42.55635513 99.24505745 -42.55635513 99.24505745 -44.25424194 99.24723816 C-47 99 -47 99 -50 97 C-49.01 95.824375 -49.01 95.824375 -48 94.625 C-45.79798559 92.28487188 -45.79798559 92.28487188 -46 90 C-46.61875 90.99 -47.2375 91.98 -47.875 93 C-48.57625 93.99 -49.2775 94.98 -50 96 C-50.66 96 -51.32 96 -52 96 C-52.33 96.99 -52.66 97.98 -53 99 C-64.78769664 99.56631283 -64.78769664 99.56631283 -70 96 C-71.44207941 93.11584117 -71.09394887 90.58278472 -71.0625 87.375 C-71.05347656 86.18648438 -71.04445313 84.99796875 -71.03515625 83.7734375 C-71.02355469 82.85820312 -71.01195313 81.94296875 -71 81 C-69.515 80.505 -69.515 80.505 -68 80 C-67.67 79.01 -67.34 78.02 -67 77 C-66.01 76.01 -65.02 75.02 -64 74 C-60.04 74 -56.08 74 -52 74 C-52 61.79 -52 49.58 -52 37 C-35.25 36.625 -35.25 36.625 -29.98144531 36.52197266 C-28.59698591 36.48675312 -27.21254415 36.45083036 -25.828125 36.4140625 C-24.75763916 36.39702271 -24.75763916 36.39702271 -23.66552734 36.37963867 C-19.97210176 36.27222651 -17.14573742 36.0283601 -14 34 C-14.24363281 33.18015625 -14.24363281 33.18015625 -14.4921875 32.34375 C-16.31982192 23.90851423 -14.84402227 14.50050996 -14 6 C-13.24074219 5.98582031 -12.48148438 5.97164062 -11.69921875 5.95703125 C-10.70535156 5.90933594 -9.71148437 5.86164062 -8.6875 5.8125 C-7.70136719 5.77769531 -6.71523437 5.74289063 -5.69921875 5.70703125 C-4.80847656 5.47371094 -3.91773438 5.24039063 -3 5 C-2.33484375 3.74703125 -2.33484375 3.74703125 -1.65625 2.46875 C-1.1096875 1.6540625 -0.563125 0.839375 0 0 Z " fill="#463D4C" transform="translate(152,57)"/>
<path d="M0 0 C7.81452752 -0.02526563 15.62904458 -0.04283105 23.44360352 -0.05493164 C26.10441481 -0.05997383 28.76522332 -0.06680736 31.42602539 -0.07543945 C35.24105516 -0.08751009 39.05604844 -0.09322929 42.87109375 -0.09765625 C44.66793861 -0.10539818 44.66793861 -0.10539818 46.50108337 -0.11329651 C48.15268211 -0.11340981 48.15268211 -0.11340981 49.83764648 -0.11352539 C50.81249496 -0.115746 51.78734344 -0.11796661 52.79173279 -0.12025452 C55 0 55 0 56 1 C56.09887792 2.74382535 56.12799032 4.49165543 56.12939453 6.23828125 C56.13254669 7.35614014 56.13569885 8.47399902 56.13894653 9.62573242 C56.1369223 10.84236572 56.13489807 12.05899902 56.1328125 13.3125 C56.13376923 14.55169189 56.13472595 15.79088379 56.13571167 17.06762695 C56.13639374 19.69388281 56.13503538 22.32004633 56.13037109 24.94628906 C56.12467381 28.31928714 56.12795302 31.69220565 56.13394356 35.06520081 C56.1384177 38.27263677 56.13528882 41.480063 56.1328125 44.6875 C56.13483673 45.9041333 56.13686096 47.1207666 56.13894653 48.37426758 C56.13421829 50.05105591 56.13421829 50.05105591 56.12939453 51.76171875 C56.12859894 52.75131592 56.12780334 53.74091309 56.12698364 54.76049805 C56 57 56 57 55 58 C53.28681054 58.09881593 51.56955197 58.12798969 49.85351562 58.12939453 C48.75567749 58.13254669 47.65783936 58.13569885 46.5267334 58.13894653 C45.33197388 58.1369223 44.13721436 58.13489807 42.90625 58.1328125 C41.68925415 58.13376923 40.4722583 58.13472595 39.21838379 58.13571167 C36.63924101 58.13639372 34.06009653 58.13453772 31.48095703 58.13037109 C27.51721364 58.12502322 23.55358358 58.13031529 19.58984375 58.13671875 C17.09114558 58.13605797 14.59244748 58.13477682 12.09375 58.1328125 C10.30161072 58.13584885 10.30161072 58.13584885 8.4732666 58.13894653 C7.37542847 58.13579437 6.27759033 58.13264221 5.14648438 58.12939453 C3.68873596 58.12820114 3.68873596 58.12820114 2.20153809 58.12698364 C0 58 0 58 -1 57 C-1.09874416 55.32804146 -1.12798898 53.65192205 -1.12939453 51.97705078 C-1.13254669 50.90568878 -1.13569885 49.83432678 -1.13894653 48.73049927 C-1.1369223 47.56388763 -1.13489807 46.397276 -1.1328125 45.1953125 C-1.13424759 43.41022781 -1.13424759 43.41022781 -1.13571167 41.58908081 C-1.13639382 39.06540881 -1.13453715 36.54173506 -1.13037109 34.01806641 C-1.12503273 30.14872293 -1.13031011 26.27949604 -1.13671875 22.41015625 C-1.13605779 19.96354141 -1.13477626 17.51692664 -1.1328125 15.0703125 C-1.13483673 13.90774933 -1.13686096 12.74518616 -1.13894653 11.5473938 C-1.13579437 10.46972748 -1.13264221 9.39206116 -1.12939453 8.28173828 C-1.12859894 7.33211212 -1.12780334 6.38248596 -1.12698364 5.40408325 C-1 3 -1 3 0 0 Z " fill="#EF6524" transform="translate(60,27)"/>
<path d="M0 0 C1.79244141 0.01740234 1.79244141 0.01740234 3.62109375 0.03515625 C5.41740234 0.04869141 5.41740234 0.04869141 7.25 0.0625 C8.17683594 0.07410156 9.10367188 0.08570312 10.05859375 0.09765625 C10.05859375 2.07765625 10.05859375 4.05765625 10.05859375 6.09765625 C10.91324219 6.08605469 11.76789063 6.07445312 12.6484375 6.0625 C13.75316406 6.05347656 14.85789062 6.04445313 15.99609375 6.03515625 C17.09824219 6.02355469 18.20039063 6.01195312 19.3359375 6 C22.05859375 6.09765625 22.05859375 6.09765625 23.05859375 7.09765625 C23.15768677 9.4292568 23.18829879 11.76395567 23.18359375 14.09765625 C23.18746094 16.01578125 23.18746094 16.01578125 23.19140625 17.97265625 C23.05859375 21.09765625 23.05859375 21.09765625 22.05859375 22.09765625 C20.03895176 22.17009678 18.01692251 22.18142813 15.99609375 22.16015625 C14.89136719 22.15113281 13.78664063 22.14210938 12.6484375 22.1328125 C11.79378906 22.12121094 10.93914062 22.10960938 10.05859375 22.09765625 C9.25037022 28.82687997 8.96173414 35.38433497 9.1015625 42.15625 C9.12391495 44.02407836 9.14537415 45.89191758 9.16601562 47.75976562 C9.20331724 50.66558605 9.24681361 53.57084429 9.30541992 56.47631836 C9.35969159 59.30721395 9.38891592 62.13746633 9.4140625 64.96875 C9.44973579 66.27651649 9.44973579 66.27651649 9.48612976 67.61070251 C9.48965958 68.41907059 9.49318939 69.22743866 9.49682617 70.06030273 C9.50872482 70.76960434 9.52062347 71.47890594 9.53288269 72.20970154 C9.05859375 74.09765625 9.05859375 74.09765625 7.52806091 75.82572937 C4.0903016 77.59638603 0.88634239 77.51645675 -2.89111328 77.48583984 C-3.68827759 77.4910968 -4.48544189 77.49635376 -5.3067627 77.50177002 C-7.93778151 77.51495848 -10.56819395 77.50623788 -13.19921875 77.49609375 C-15.027172 77.49811442 -16.85512446 77.5010258 -18.68307495 77.50479126 C-22.51128831 77.5092127 -26.33929154 77.50278785 -30.16748047 77.48876953 C-35.08181484 77.47165351 -39.99565857 77.48153517 -44.90997505 77.49948692 C-48.68284833 77.510309 -52.45560456 77.50688612 -56.22848129 77.49910355 C-58.04103529 77.49709842 -59.85359981 77.49957172 -61.66614151 77.50654221 C-64.1945452 77.51413354 -66.72214474 77.50258682 -69.25048828 77.48583984 C-70.00377411 77.49191254 -70.75705994 77.49798523 -71.53317261 77.50424194 C-73.61477661 77.47860718 -73.61477661 77.47860718 -76.94140625 77.09765625 C-79.06934793 73.90574372 -79.20240168 73.02444641 -79.26025391 69.35083008 C-79.2801236 68.39006058 -79.29999329 67.42929108 -79.32046509 66.43940735 C-79.3320163 65.4049498 -79.3435675 64.37049225 -79.35546875 63.3046875 C-79.3748349 62.24352219 -79.39420105 61.18235687 -79.41415405 60.08903503 C-79.47398458 56.69615747 -79.52034946 53.30324605 -79.56640625 49.91015625 C-79.6045828 47.61131324 -79.64363434 45.31248458 -79.68359375 43.01367188 C-79.77968893 37.3751273 -79.86472631 31.73649646 -79.94140625 26.09765625 C-79.28140625 26.42765625 -78.62140625 26.75765625 -77.94140625 27.09765625 C-77.94140625 42.27765625 -77.94140625 57.45765625 -77.94140625 73.09765625 C-73.5659376 75.28539057 -70.48901053 75.34212095 -65.7578125 75.25 C-64.51820518 75.23754494 -64.51820518 75.23754494 -63.2535553 75.22483826 C-60.48257708 75.19342554 -57.71213583 75.14610725 -54.94140625 75.09765625 C-52.93473762 75.06885476 -50.92806428 75.04037953 -48.92138672 75.01220703 C-43.6505827 74.93307235 -38.38038727 74.83362143 -33.11010742 74.7253418 C-29.8241309 74.65905122 -26.53806777 74.60001273 -23.25195312 74.54101562 C-21.15754324 74.49913801 -19.06314176 74.45683692 -16.96875 74.4140625 C-15.9887352 74.39735001 -15.0087204 74.38063751 -13.99900818 74.36341858 C-13.09948929 74.34347336 -12.1999704 74.32352814 -11.27319336 74.30297852 C-10.48222763 74.28743423 -9.6912619 74.27188995 -8.87632751 74.25587463 C-6.85937169 74.21198563 -6.85937169 74.21198563 -4.94140625 73.09765625 C-4.94140625 50.32765625 -4.94140625 27.55765625 -4.94140625 4.09765625 C-9.23140625 3.76765625 -13.52140625 3.43765625 -17.94140625 3.09765625 C-17.61140625 2.43765625 -17.28140625 1.77765625 -16.94140625 1.09765625 C-16.01457031 1.10925781 -15.08773437 1.12085937 -14.1328125 1.1328125 C-12.33650391 1.14634766 -12.33650391 1.14634766 -10.50390625 1.16015625 C-8.71146484 1.17755859 -8.71146484 1.17755859 -6.8828125 1.1953125 C-3.47839663 1.08228408 -3.40441587 0.11302842 0 0 Z " fill="#EC6424" transform="translate(128.94140625,16.90234375)"/>
<path d="M0 0 C2.37109375 0.23828125 2.37109375 0.23828125 5 1 C6.22265625 2.79296875 6.22265625 2.79296875 7.0625 5.1875 C7.38347656 6.08726563 7.70445313 6.98703125 8.03515625 7.9140625 C9.45980066 12.47061749 10.72832473 17.06635734 11.984375 21.671875 C12.8695316 24.57246509 13.90594631 27.10546229 15.25 29.8125 C17.42312897 34.32853365 17.31503039 38.03827138 17 43 C15.35 43 13.7 43 12 43 C11.3291288 41.3767313 10.66342971 39.75132422 10 38.125 C9.62875 37.22007813 9.2575 36.31515625 8.875 35.3828125 C8 33 8 33 8 31 C4.04 31 0.08 31 -4 31 C-4 32.65 -4 34.3 -4 36 C-5.5 39.3125 -5.5 39.3125 -7 42 C-8.98 42 -10.96 42 -13 42 C-13 40.02 -13 38.04 -13 36 C-12.34 36 -11.68 36 -11 36 C-10.85304688 35.09121094 -10.85304688 35.09121094 -10.703125 34.1640625 C-9.73732746 28.75226594 -8.29692346 23.98737826 -6.15234375 18.9375 C-3.72831948 12.75829236 -1.92223841 6.34968917 0 0 Z " fill="#DACECB" transform="translate(79,35)"/>
<path d="M0 0 C0.98484375 0.01804687 1.9696875 0.03609375 2.984375 0.0546875 C4.10585938 0.08949219 4.10585938 0.08949219 5.25 0.125 C5.58 1.445 5.91 2.765 6.25 4.125 C6.848125 4.228125 7.44625 4.33125 8.0625 4.4375 C10.64990258 5.25068367 11.57614597 6.00447144 13.25 8.125 C14.16415257 12.98400918 13.9227977 17.0036705 11.375 21.25 C9.25 23.125 9.25 23.125 7.25 23.125 C6.92 24.115 6.59 25.105 6.25 26.125 C2.21110406 26.41077094 -1.72009474 26.57695199 -5.75 26.125 C-8.3125 23.6875 -8.3125 23.6875 -9.75 21.125 C-10.74 20.795 -11.73 20.465 -12.75 20.125 C-12.83150744 18.06316367 -12.8894194 16.00038651 -12.9375 13.9375 C-12.97230469 12.78894531 -13.00710937 11.64039062 -13.04296875 10.45703125 C-12.71899939 6.77241969 -12.03022694 5.00987139 -9.75 2.125 C-6.58245153 -0.13560083 -3.81867274 -0.09092078 0 0 Z " fill="#F69E19" transform="translate(49.75,111.875)"/>
<path d="M0 0 C3.40393684 0.69513862 4.53524038 1.44499366 6.71484375 4.10546875 C9.35756589 8.53085552 9.78304551 11.53261786 8.96484375 16.60546875 C7.08984375 20.10546875 7.08984375 20.10546875 4.96484375 22.60546875 C4.30484375 22.60546875 3.64484375 22.60546875 2.96484375 22.60546875 C2.63484375 23.59546875 2.30484375 24.58546875 1.96484375 25.60546875 C-9.82285289 26.17178158 -9.82285289 26.17178158 -15.03515625 22.60546875 C-16.47723566 19.72130992 -16.12910512 17.18825347 -16.09765625 13.98046875 C-16.08863281 12.79195312 -16.07960938 11.6034375 -16.0703125 10.37890625 C-16.05871094 9.46367187 -16.04710938 8.5484375 -16.03515625 7.60546875 C-15.04515625 7.27546875 -14.05515625 6.94546875 -13.03515625 6.60546875 C-12.70515625 5.61546875 -12.37515625 4.62546875 -12.03515625 3.60546875 C-8.94418285 -0.63329281 -4.8679971 -0.12391265 0 0 Z " fill="#F79F19" transform="translate(97.03515625,130.39453125)"/>
<path d="M0 0 C4.29 0 8.58 0 13 0 C13 12.21 13 24.42 13 37 C8.71 37 4.42 37 0 37 C0 24.79 0 12.58 0 0 Z " fill="#27A1D7" transform="translate(87,94)"/>
<path d="M0 0 C4.07052347 2.1106418 6.28051835 3.77875001 8 8 C8.75679813 11.93680568 8.69246395 15.45114186 7.04296875 19.140625 C4.86623511 22.22694474 3.08743859 23.71752721 -0.6015625 24.67578125 C-5.62553743 25.02870511 -9.27258539 24.47380028 -13.1875 21.1875 C-16.57899615 17.21042178 -16.6950617 13.53018988 -16.5390625 8.453125 C-15.72382288 4.74319398 -13.72239942 3.55727956 -10.8125 1.3125 C-7.15312909 -0.39520642 -3.93067238 -0.69998275 0 0 Z " fill="#F79E19" transform="translate(141,113)"/>
<path d="M0 0 C2.14576637 -0.02685938 4.29162645 -0.04633088 6.4375 -0.0625 C7.63246094 -0.07410156 8.82742187 -0.08570312 10.05859375 -0.09765625 C13 0 13 0 14 1 C14.18063984 3.45492501 14.27801743 5.85504249 14.3125 8.3125 C14.34150391 8.98990234 14.37050781 9.66730469 14.40039062 10.36523438 C14.44480945 13.86065387 14.2533824 15.6682519 12.10546875 18.48046875 C10 20 10 20 8 20 C7.67 20.99 7.34 21.98 7 23 C6.34 23 5.68 23 5 23 C4.34 24.32 3.68 25.64 3 27 C-1.875 25.25 -1.875 25.25 -3 23 C-3.99 22.67 -4.98 22.34 -6 22 C-6.875 19.375 -6.875 19.375 -7 16 C-5.50443586 14.56946039 -4.00217478 13.1436652 -2.4375 11.7890625 C0.26889737 8.42077447 -0.01648572 4.17088648 0 0 Z " fill="#23A6E1" transform="translate(62,94)"/>
<path d="M0 0 C4.29 0 8.58 0 13 0 C13 3.63 13 7.26 13 11 C14.32 11.33 15.64 11.66 17 12 C18.93271748 13.83608161 20.37051934 15.87262247 22 18 C19.79015325 21.37292399 17.63053927 23.22900524 14 25 C10 25 10 25 7.9296875 23.28515625 C7.25164062 22.55167969 6.57359375 21.81820312 5.875 21.0625 C3.23786751 18.13007565 3.23786751 18.13007565 0 16 C0 10.72 0 5.44 0 0 Z " fill="#23A7E2" transform="translate(112,94)"/>
<path d="M0 0 C2.45862401 -0.05383848 4.9160755 -0.09359038 7.375 -0.125 C8.42300781 -0.15013672 8.42300781 -0.15013672 9.4921875 -0.17578125 C11.32897486 -0.19344267 13.16601963 -0.10303261 15 0 C17 2 17 2 17.23046875 5.22265625 C17.20919922 7.12337891 17.20919922 7.12337891 17.1875 9.0625 C17.18105469 10.33222656 17.17460937 11.60195312 17.16796875 12.91015625 C17 16 17 16 16 17 C14.5112814 17.08669432 13.018555 17.10703494 11.52734375 17.09765625 C10.62822266 17.09443359 9.72910156 17.09121094 8.80273438 17.08789062 C7.85720703 17.07951172 6.91167969 17.07113281 5.9375 17.0625 C4.98810547 17.05798828 4.03871094 17.05347656 3.06054688 17.04882812 C0.70696935 17.0370011 -1.64648477 17.02052025 -4 17 C-4.05440336 15.41965792 -4.09297489 13.83876639 -4.125 12.2578125 C-4.14820312 11.37754395 -4.17140625 10.49727539 -4.1953125 9.59033203 C-3.89315734 5.58299927 -2.26922852 3.262016 0 0 Z " fill="#463D4C" transform="translate(129,179)"/>
<path d="M0 0 C7.81452752 -0.02526563 15.62904458 -0.04283105 23.44360352 -0.05493164 C26.10441481 -0.05997383 28.76522332 -0.06680736 31.42602539 -0.07543945 C35.24105516 -0.08751009 39.05604844 -0.09322929 42.87109375 -0.09765625 C44.66793861 -0.10539818 44.66793861 -0.10539818 46.50108337 -0.11329651 C48.15268211 -0.11340981 48.15268211 -0.11340981 49.83764648 -0.11352539 C50.81249496 -0.115746 51.78734344 -0.11796661 52.79173279 -0.12025452 C55 0 55 0 56 1 C56.09887792 2.74382535 56.12799032 4.49165543 56.12939453 6.23828125 C56.13254669 7.35614014 56.13569885 8.47399902 56.13894653 9.62573242 C56.1369223 10.84236572 56.13489807 12.05899902 56.1328125 13.3125 C56.13376923 14.55169189 56.13472595 15.79088379 56.13571167 17.06762695 C56.13639374 19.69388281 56.13503538 22.32004633 56.13037109 24.94628906 C56.12467381 28.31928714 56.12795302 31.69220565 56.13394356 35.06520081 C56.1384177 38.27263677 56.13528882 41.480063 56.1328125 44.6875 C56.13483673 45.9041333 56.13686096 47.1207666 56.13894653 48.37426758 C56.13421829 50.05105591 56.13421829 50.05105591 56.12939453 51.76171875 C56.12859894 52.75131592 56.12780334 53.74091309 56.12698364 54.76049805 C56 57 56 57 55 58 C53.28681054 58.09881593 51.56955197 58.12798969 49.85351562 58.12939453 C48.75567749 58.13254669 47.65783936 58.13569885 46.5267334 58.13894653 C45.33197388 58.1369223 44.13721436 58.13489807 42.90625 58.1328125 C41.68925415 58.13376923 40.4722583 58.13472595 39.21838379 58.13571167 C36.63924101 58.13639372 34.06009653 58.13453772 31.48095703 58.13037109 C27.51721364 58.12502322 23.55358358 58.13031529 19.58984375 58.13671875 C17.09114558 58.13605797 14.59244748 58.13477682 12.09375 58.1328125 C10.30161072 58.13584885 10.30161072 58.13584885 8.4732666 58.13894653 C7.37542847 58.13579437 6.27759033 58.13264221 5.14648438 58.12939453 C3.68873596 58.12820114 3.68873596 58.12820114 2.20153809 58.12698364 C0 58 0 58 -1 57 C-1.09353163 55.31198015 -1.11744791 53.62004793 -1.11352539 51.92944336 C-1.11344986 50.84839828 -1.11337433 49.76735321 -1.11329651 48.65354919 C-1.10813522 47.4775264 -1.10297394 46.3015036 -1.09765625 45.08984375 C-1.0962413 43.89267227 -1.09482635 42.69550079 -1.09336853 41.46205139 C-1.08774979 37.62050934 -1.07519411 33.77902457 -1.0625 29.9375 C-1.05748741 27.34049563 -1.05292409 24.74349035 -1.04882812 22.14648438 C-1.03777427 15.76430321 -1.02101792 9.3821557 -1 3 C-0.67 3 -0.34 3 0 3 C0.33 20.49 0.66 37.98 1 56 C18.82 56 36.64 56 55 56 C54.67 38.84 54.34 21.68 54 4 C51.51320048 2.75660024 49.78202912 2.84172513 46.99951172 2.79467773 C45.95858368 2.77473251 44.91765564 2.75478729 43.84518433 2.73423767 C42.71807037 2.71752518 41.59095642 2.70081268 40.4296875 2.68359375 C39.27832306 2.66281265 38.12695862 2.64203156 36.94070435 2.62062073 C33.2521986 2.55508335 29.56361997 2.49622072 25.875 2.4375 C23.37889862 2.39431877 20.8828047 2.35070462 18.38671875 2.30664062 C12.25789019 2.19939769 6.12898867 2.09763911 0 2 C0 1.34 0 0.68 0 0 Z " fill="#F4821D" transform="translate(60,27)"/>
<path d="M0 0 C0.99 0.495 0.99 0.495 2 1 C2 16.18 2 31.36 2 47 C6.19650455 49.09825227 9.0527623 49.28455144 13.58251953 49.25878906 C14.71974457 49.26404602 14.71974457 49.26404602 15.87994385 49.26940918 C18.38099372 49.27819799 20.88175986 49.27238866 23.3828125 49.265625 C25.12108413 49.26697219 26.85935539 49.26891317 28.59762573 49.27142334 C32.23748366 49.2743705 35.87724334 49.27008903 39.51708984 49.26074219 C44.1891973 49.2493309 48.86107541 49.25592026 53.53317451 49.26788712 C57.12073506 49.27510227 60.70824091 49.27281968 64.29580307 49.26763153 C66.01904197 49.26629496 67.7422858 49.26794303 69.46551895 49.27259064 C71.86923711 49.2776521 74.27257947 49.26995201 76.67626953 49.25878906 C77.75009384 49.26486176 77.75009384 49.26486176 78.84561157 49.27105713 C82.87031629 49.34754578 82.87031629 49.34754578 86 47 C86.24606015 43.99113276 86.37380782 41.06782248 86.4140625 38.0546875 C86.43342865 37.1696756 86.4527948 36.2846637 86.4727478 35.37283325 C86.53262723 32.54032084 86.57896213 29.70776797 86.625 26.875 C86.66317211 24.95701332 86.70222338 23.03904393 86.7421875 21.12109375 C86.83833555 16.41420252 86.92233542 11.70723104 87 7 C87.33 7 87.66 7 88 7 C88.89478328 16.02458856 89.24342948 24.99584246 89.3125 34.0625 C89.35600586 36.01833008 89.35600586 36.01833008 89.40039062 38.01367188 C89.40876953 39.25826172 89.41714844 40.50285156 89.42578125 41.78515625 C89.44036377 42.90801025 89.45494629 44.03086426 89.4699707 45.18774414 C89 48 89 48 87.46748352 49.65150452 C84.03976121 51.52477662 80.85762516 51.41904265 77.05029297 51.38818359 C75.85454651 51.39606903 75.85454651 51.39606903 74.63464355 51.40411377 C72.00362474 51.41730223 69.3732123 51.40858163 66.7421875 51.3984375 C64.91423425 51.40045817 63.08628179 51.40336955 61.2583313 51.40713501 C57.43011794 51.41155645 53.60211471 51.4051316 49.77392578 51.39111328 C44.85959141 51.37399726 39.94574768 51.38387892 35.0314312 51.40183067 C31.25855792 51.41265275 27.48580169 51.40922987 23.71292496 51.4014473 C21.90037096 51.39944217 20.08780644 51.40191547 18.27526474 51.40888596 C15.74686105 51.41647729 13.21926151 51.40493057 10.69091797 51.38818359 C9.93763214 51.39425629 9.18434631 51.40032898 8.40823364 51.40658569 C6.32662964 51.38095093 6.32662964 51.38095093 3 51 C0.87205832 47.80808747 0.73900457 46.92679016 0.68115234 43.25317383 C0.66128265 42.29240433 0.64141296 41.33163483 0.62094116 40.3417511 C0.60938995 39.30729355 0.59783875 38.272836 0.5859375 37.20703125 C0.56657135 36.14586594 0.5472052 35.08470062 0.5272522 33.99137878 C0.46742167 30.59850122 0.42105679 27.2055898 0.375 23.8125 C0.33682345 21.51365699 0.29777191 19.21482833 0.2578125 16.91601562 C0.16171732 11.27747105 0.07667994 5.63884021 0 0 Z " fill="#BF7C3A" transform="translate(49,43)"/>
<path d="M0 0 C1.67542976 0.28604898 3.34385343 0.61781233 5 1 C5.02464705 6.67830078 5.04283462 12.35657069 5.05493164 18.03491211 C5.05997256 19.96818585 5.06680519 21.90145576 5.07543945 23.8347168 C5.08751565 26.60726872 5.09323057 29.37977041 5.09765625 32.15234375 C5.10281754 33.02213364 5.10797882 33.89192352 5.11329651 34.78807068 C5.11349185 36.85905814 5.06208168 38.92994324 5 41 C4 42 4 42 1.4375 42.0625 C0.633125 42.041875 -0.17125 42.02125 -1 42 C-1.02464638 36.17928378 -1.0428343 30.35859766 -1.05493164 24.5378418 C-1.05997267 22.55606559 -1.06680538 20.57429311 -1.07543945 18.5925293 C-1.08751515 15.75047891 -1.09323045 12.90847753 -1.09765625 10.06640625 C-1.10281754 9.17474258 -1.10797882 8.28307892 -1.11329651 7.36439514 C-1.11349177 5.24259399 -1.0621003 3.1208922 -1 1 C-0.67 0.67 -0.34 0.34 0 0 Z " fill="#DCC6BF" transform="translate(104,35)"/>
<path d="M0 0 C1.30066406 -0.00128906 2.60132812 -0.00257813 3.94140625 -0.00390625 C4.96258545 -0.00076416 4.96258545 -0.00076416 6.00439453 0.00244141 C8.08503515 0.0077901 10.16545989 0.0024957 12.24609375 -0.00390625 C14.19708984 -0.00197266 14.19708984 -0.00197266 16.1875 0 C17.39083984 0.00112793 18.59417969 0.00225586 19.83398438 0.00341797 C22.59375 0.1328125 22.59375 0.1328125 23.59375 1.1328125 C23.73632189 4.46899481 23.63603157 7.79256856 23.59375 11.1328125 C20.29375 11.1328125 16.99375 11.1328125 13.59375 11.1328125 C13.26375 9.4828125 12.93375 7.8328125 12.59375 6.1328125 C5.66375 6.1328125 -1.26625 6.1328125 -8.40625 6.1328125 C-7.01071668 -0.8448541 -6.62922773 0.00621379 0 0 Z " fill="#463D4C" transform="translate(90.40625,168.8671875)"/>
<path d="M0 0 C1.60875 -0.00386719 1.60875 -0.00386719 3.25 -0.0078125 C6 0.125 6 0.125 8 1.125 C8.05389087 3.08303507 8.09274217 5.04148909 8.125 7 C8.14820312 8.09054688 8.17140625 9.18109375 8.1953125 10.3046875 C8 13.125 8 13.125 6 15.125 C2.99609375 15.35546875 2.99609375 15.35546875 -0.5625 15.3125 C-2.32787109 15.30283203 -2.32787109 15.30283203 -4.12890625 15.29296875 C-7 15.125 -7 15.125 -8 14.125 C-8.07258946 11.93860547 -8.08373783 9.74999611 -8.0625 7.5625 C-8.05347656 6.36496094 -8.04445313 5.16742188 -8.03515625 3.93359375 C-8.02355469 3.00675781 -8.01195313 2.07992188 -8 1.125 C-5.26922124 -0.24038938 -3.04439633 -0.00731826 0 0 Z " fill="#21A9E5" transform="translate(119,3.875)"/>
<path d="M0 0 C1.60875 -0.00386719 1.60875 -0.00386719 3.25 -0.0078125 C6 0.125 6 0.125 8 1.125 C8.05389087 3.08303507 8.09274217 5.04148909 8.125 7 C8.14820312 8.09054688 8.17140625 9.18109375 8.1953125 10.3046875 C8 13.125 8 13.125 6 15.125 C2.99609375 15.35546875 2.99609375 15.35546875 -0.5625 15.3125 C-2.32787109 15.30283203 -2.32787109 15.30283203 -4.12890625 15.29296875 C-7 15.125 -7 15.125 -8 14.125 C-8.07258946 11.93860547 -8.08373783 9.74999611 -8.0625 7.5625 C-8.05347656 6.36496094 -8.04445313 5.16742188 -8.03515625 3.93359375 C-8.02355469 3.00675781 -8.01195313 2.07992188 -8 1.125 C-5.26922124 -0.24038938 -3.04439633 -0.00731826 0 0 Z " fill="#21A9E5" transform="translate(94,3.875)"/>
<path d="M0 0 C1.60875 -0.00386719 1.60875 -0.00386719 3.25 -0.0078125 C6 0.125 6 0.125 8 1.125 C8.05389087 3.08303507 8.09274217 5.04148909 8.125 7 C8.14820312 8.09054688 8.17140625 9.18109375 8.1953125 10.3046875 C8 13.125 8 13.125 6 15.125 C2.99609375 15.35546875 2.99609375 15.35546875 -0.5625 15.3125 C-2.32787109 15.30283203 -2.32787109 15.30283203 -4.12890625 15.29296875 C-7 15.125 -7 15.125 -8 14.125 C-8.07258946 11.93860547 -8.08373783 9.74999611 -8.0625 7.5625 C-8.05347656 6.36496094 -8.04445312 5.16742188 -8.03515625 3.93359375 C-8.02355469 3.00675781 -8.01195312 2.07992188 -8 1.125 C-5.26922124 -0.24038938 -3.04439633 -0.00731826 0 0 Z " fill="#21A9E5" transform="translate(69,3.875)"/>
<path d="M0 0 C1.093125 0.00257812 2.18625 0.00515625 3.3125 0.0078125 C4.405625 0.00523438 5.49875 0.00265625 6.625 0 C9.3125 0.1328125 9.3125 0.1328125 10.3125 1.1328125 C10.41159302 3.46441305 10.44220504 5.79911192 10.4375 8.1328125 C10.44007813 9.4115625 10.44265625 10.6903125 10.4453125 12.0078125 C10.3125 15.1328125 10.3125 15.1328125 9.3125 16.1328125 C7.12610547 16.20540196 4.93749611 16.21655033 2.75 16.1953125 C0.95369141 16.18177734 0.95369141 16.18177734 -0.87890625 16.16796875 C-1.80574219 16.15636719 -2.73257813 16.14476563 -3.6875 16.1328125 C-3.71435095 13.65357449 -3.73426547 11.1746241 -3.75 8.6953125 C-3.76256836 7.63473633 -3.76256836 7.63473633 -3.77539062 6.55273438 C-3.78403588 4.74587691 -3.73970011 2.93893647 -3.6875 1.1328125 C-2.6875 0.1328125 -2.6875 0.1328125 0 0 Z " fill="#24A9E3" transform="translate(141.6875,22.8671875)"/>
<path d="M0 0 C1.093125 0.00257812 2.18625 0.00515625 3.3125 0.0078125 C4.405625 0.00523438 5.49875 0.00265625 6.625 0 C9.3125 0.1328125 9.3125 0.1328125 10.3125 1.1328125 C10.41159302 3.46441305 10.44220504 5.79911192 10.4375 8.1328125 C10.44007812 9.4115625 10.44265625 10.6903125 10.4453125 12.0078125 C10.3125 15.1328125 10.3125 15.1328125 9.3125 16.1328125 C7.12610547 16.20540196 4.93749611 16.21655033 2.75 16.1953125 C0.95369141 16.18177734 0.95369141 16.18177734 -0.87890625 16.16796875 C-1.80574219 16.15636719 -2.73257813 16.14476563 -3.6875 16.1328125 C-3.71435095 13.65357449 -3.73426547 11.1746241 -3.75 8.6953125 C-3.76256836 7.63473633 -3.76256836 7.63473633 -3.77539062 6.55273438 C-3.78403588 4.74587691 -3.73970011 2.93893647 -3.6875 1.1328125 C-2.6875 0.1328125 -2.6875 0.1328125 0 0 Z " fill="#27A9E0" transform="translate(39.6875,22.8671875)"/>
<path d="M0 0 C3.0625 0.125 3.0625 0.125 5.0625 1.125 C7.44306989 8.76788227 7.44306989 8.76788227 6.0625 13.125 C5.82015625 12.41472656 5.5778125 11.70445313 5.328125 10.97265625 C4.99296875 10.05355469 4.6578125 9.13445313 4.3125 8.1875 C3.98765625 7.27097656 3.6628125 6.35445312 3.328125 5.41015625 C2.28429047 2.9461165 2.28429047 2.9461165 -0.078125 2.30859375 C-0.69171875 2.24800781 -1.3053125 2.18742187 -1.9375 2.125 C-2.0921875 3.5790625 -2.0921875 3.5790625 -2.25 5.0625 C-3.16188284 11.36968963 -5.53640593 17.19315894 -7.9375 23.0625 C-9.94928699 27.99137813 -11.49894982 33.00288951 -12.9375 38.125 C-13.5975 38.125 -14.2575 38.125 -14.9375 38.125 C-14.9375 40.105 -14.9375 42.085 -14.9375 44.125 C-11.4725 43.63 -11.4725 43.63 -7.9375 43.125 C-8.2675 44.115 -8.5975 45.105 -8.9375 46.125 C-11.27044775 46.16741723 -13.60452567 46.16592937 -15.9375 46.125 C-17.67599628 44.38650372 -17.10966296 42.0463363 -17.125 39.6875 C-17.13917969 38.69878906 -17.15335938 37.71007812 -17.16796875 36.69140625 C-16.9375 34.125 -16.9375 34.125 -14.9375 32.125 C-13.85234035 28.57955937 -12.95270222 25.00233016 -12.03515625 21.41015625 C-10.93375401 18.11378869 -10.25436601 17.44186601 -7.9375 15.125 C-6.74062908 11.75025375 -6.74062908 11.75025375 -5.8125 8 C-3.74410066 0.15932343 -3.74410066 0.15932343 0 0 Z " fill="#E59977" transform="translate(80.9375,32.875)"/>
<path d="M0 0 C4.65322061 6.97983091 6.53362733 12.5953696 6 21 C4.35 21 2.7 21 1 21 C0.3291288 19.3767313 -0.33657029 17.75132422 -1 16.125 C-1.37125 15.22007813 -1.7425 14.31515625 -2.125 13.3828125 C-3 11 -3 11 -3 9 C-6.96 9 -10.92 9 -15 9 C-15 10.65 -15 12.3 -15 14 C-16.5 17.3125 -16.5 17.3125 -18 20 C-19.98 20 -21.96 20 -24 20 C-24 18.02 -24 16.04 -24 14 C-23.34 14 -22.68 14 -22 14 C-21.67 13.34 -21.34 12.68 -21 12 C-21.33 13.98 -21.66 15.96 -22 18 C-21.01 18 -20.02 18 -19 18 C-18.814375 16.9171875 -18.814375 16.9171875 -18.625 15.8125 C-17.14285714 9.14285714 -17.14285714 9.14285714 -15 7 C-13.065581 6.87416034 -11.12597237 6.82421991 -9.1875 6.8125 C-8.12917969 6.79832031 -7.07085937 6.78414062 -5.98046875 6.76953125 C-3 7 -3 7 1 9 C0.67 6.03 0.34 3.06 0 0 Z " fill="#D9D6D7" transform="translate(90,57)"/>
<path d="M0 0 C1.79133978 -0.05391993 3.58313899 -0.09275571 5.375 -0.125 C6.37273437 -0.14820312 7.37046875 -0.17140625 8.3984375 -0.1953125 C11 0 11 0 13 2 C13.42431591 5.81884318 13.5390434 8.12405448 11.5 11.4375 C7.82931666 13.73167709 5.28664399 13.35136426 1 13 C0 12 0 12 -0.09765625 9.27734375 C-0.08605469 8.17519531 -0.07445312 7.07304688 -0.0625 5.9375 C-0.05347656 4.83277344 -0.04445312 3.72804688 -0.03515625 2.58984375 C-0.02355469 1.73519531 -0.01195312 0.88054687 0 0 Z " fill="#4085A8" transform="translate(137,75)"/>
<path d="M0 0 C0.33 0 0.66 0 1 0 C1.02312143 12.499571 1.04091406 24.99913695 1.05181217 37.49872494 C1.05704144 43.30213613 1.06413987 49.10553275 1.07543945 54.90893555 C1.08626678 60.50450853 1.0922765 66.10006745 1.09487724 71.6956501 C1.09673177 73.83558944 1.10035291 75.97552796 1.10573006 78.11546135 C1.11293844 81.10164966 1.11399103 84.08777907 1.11352539 87.07397461 C1.11712067 87.96805023 1.12071594 88.86212585 1.12442017 89.78329468 C1.11405216 95.88594784 1.11405216 95.88594784 0 97 C-1.7492872 97.09365006 -3.50236254 97.11744438 -5.25415039 97.11352539 C-6.37523697 97.11344986 -7.49632355 97.11337433 -8.65138245 97.11329651 C-10.48103798 97.10555458 -10.48103798 97.10555458 -12.34765625 97.09765625 C-13.58921982 97.0962413 -14.83078339 97.09482635 -16.10997009 97.09336853 C-19.41605491 97.08870591 -22.72207146 97.07971497 -26.02813721 97.06866455 C-29.3996115 97.05844827 -32.77109283 97.05387045 -36.14257812 97.04882812 C-42.76173775 97.03777395 -49.38086493 97.02101736 -56 97 C-56 96.67 -56 96.34 -56 96 C-54.98855675 95.9845388 -54.98855675 95.9845388 -53.9566803 95.96876526 C-46.96556418 95.86094231 -39.97458333 95.74632557 -32.98364258 95.62768555 C-30.37136656 95.58425876 -27.75906072 95.54258962 -25.14672852 95.50268555 C-21.40111281 95.44516993 -17.65564831 95.38142236 -13.91015625 95.31640625 C-12.73413345 95.29969376 -11.55811066 95.28298126 -10.34645081 95.26576233 C-9.26540573 95.24581711 -8.18436066 95.22587189 -7.07055664 95.20532227 C-6.11347305 95.18977798 -5.15638947 95.1742337 -4.17030334 95.15821838 C-2.02137306 95.2393139 -2.02137306 95.2393139 -1 94 C-0.87470812 91.07882268 -0.81389328 88.18014759 -0.79467773 85.25756836 C-0.78477814 84.3405867 -0.77487854 83.42360504 -0.76467896 82.47883606 C-0.73296351 79.43253201 -0.70826701 76.38621233 -0.68359375 73.33984375 C-0.66303288 71.23376549 -0.64203666 69.12769144 -0.62062073 67.0216217 C-0.56531043 61.46661782 -0.5159408 55.91157615 -0.46777344 50.35650635 C-0.41762365 44.69271464 -0.36190362 39.02897809 -0.30664062 33.36523438 C-0.19894955 22.24353666 -0.09752906 11.12179114 0 0 Z " fill="#4A4656" transform="translate(168,59)"/>
<path d="M0 0 C0.98484375 0.01804687 1.9696875 0.03609375 2.984375 0.0546875 C4.10585938 0.08949219 4.10585938 0.08949219 5.25 0.125 C5.58 1.445 5.91 2.765 6.25 4.125 C6.848125 4.228125 7.44625 4.33125 8.0625 4.4375 C10.64990258 5.25068367 11.57614597 6.00447144 13.25 8.125 C14.16415257 12.98400918 13.9227977 17.0036705 11.375 21.25 C9.25 23.125 9.25 23.125 7.25 23.125 C6.92 24.115 6.59 25.105 6.25 26.125 C4.29233719 26.20582094 2.33373272 26.26410778 0.375 26.3125 C-1.26082031 26.36470703 -1.26082031 26.36470703 -2.9296875 26.41796875 C-3.86039063 26.32128906 -4.79109375 26.22460938 -5.75 26.125 C-6.41 25.135 -7.07 24.145 -7.75 23.125 C-6.76 23.455 -5.77 23.785 -4.75 24.125 C1.359356 24.95281161 1.359356 24.95281161 7.015625 23.03125 C9.577887 20.26282899 10.25506143 18.0816163 10.6875 14.375 C10.57357994 11.04428049 10.57357994 11.04428049 8.25 9.125 C8.25 7.805 8.25 6.485 8.25 5.125 C5.775 4.63 5.775 4.63 3.25 4.125 C3.25 3.465 3.25 2.805 3.25 2.125 C1.27 2.125 -0.71 2.125 -2.75 2.125 C-3.08 3.115 -3.41 4.105 -3.75 5.125 C-4.53375 5.228125 -5.3175 5.33125 -6.125 5.4375 C-9.08045181 5.90095022 -9.08045181 5.90095022 -10.75 9.125 C-10.99187651 11.87018321 -10.99187651 11.87018321 -10.875 14.8125 C-10.85695312 15.80636719 -10.83890625 16.80023438 -10.8203125 17.82421875 C-10.79710937 18.58347656 -10.77390625 19.34273437 -10.75 20.125 C-11.41 20.125 -12.07 20.125 -12.75 20.125 C-12.83150744 18.06316367 -12.8894194 16.00038651 -12.9375 13.9375 C-12.97230469 12.78894531 -13.00710937 11.64039062 -13.04296875 10.45703125 C-12.71899939 6.77241969 -12.03022694 5.00987139 -9.75 2.125 C-6.58245153 -0.13560083 -3.81867274 -0.09092078 0 0 Z " fill="#AA7F3B" transform="translate(49.75,111.875)"/>
<path d="M0 0 C0.02686553 1.97909398 0.04633375 3.95828971 0.0625 5.9375 C0.07410156 7.03964844 0.08570313 8.14179687 0.09765625 9.27734375 C0 12 0 12 -1 13 C-8.17684887 13.46302251 -8.17684887 13.46302251 -11 11.875 C-12.504106 9.05480125 -12.44912849 7.14389944 -12 4 C-8.86279363 -0.96724342 -5.35524469 -0.35701631 0 0 Z " fill="#21A8E5" transform="translate(50,50)"/>
<path d="M0 0 C1.953125 1.17578125 1.953125 1.17578125 4 3 C4.609375 5.48046875 4.609375 5.48046875 4.75 8.1875 C4.80671875 9.08855469 4.8634375 9.98960938 4.921875 10.91796875 C4.94765625 11.60503906 4.9734375 12.29210937 5 13 C4.46890625 12.83628906 3.9378125 12.67257813 3.390625 12.50390625 C0.46123236 11.88643623 -2.25822936 11.90498075 -5.25 11.9375 C-6.86648437 11.95103516 -6.86648437 11.95103516 -8.515625 11.96484375 C-9.74539062 11.98224609 -9.74539062 11.98224609 -11 12 C-12.32 15.3 -13.64 18.6 -15 22 C-15.99 22 -16.98 22 -18 22 C-17.71788123 20.3733152 -17.42397625 18.74867104 -17.125 17.125 C-16.96257812 16.22007813 -16.80015625 15.31515625 -16.6328125 14.3828125 C-16 12 -16 12 -14 10 C-13.40165446 8.47943382 -12.86493344 6.93387912 -12.375 5.375 C-11.98441406 4.14910156 -11.98441406 4.14910156 -11.5859375 2.8984375 C-11.39257812 2.27195313 -11.19921875 1.64546875 -11 1 C-10.67 1 -10.34 1 -10 1 C-10 3.31 -10 5.62 -10 8 C-6.7 7.67 -3.4 7.34 0 7 C0 4.69 0 2.38 0 0 Z " fill="#D6E5EE" transform="translate(86,53)"/>
<path d="M0 0 C1.08667969 0.02707031 2.17335938 0.05414063 3.29296875 0.08203125 C4.54013672 0.13423828 4.54013672 0.13423828 5.8125 0.1875 C6.4725 1.5075 7.1325 2.8275 7.8125 4.1875 C7.296875 4.0225 6.78125 3.8575 6.25 3.6875 C2.27106021 2.87130722 -1.55122049 2.6420735 -5.4375 3.9375 C-7.64595021 5.51496444 -8.86252309 6.80254156 -10.1875 9.1875 C-10.60615457 13.29031481 -10.51329101 14.69881349 -8.1875 18.1875 C-8.1875 19.1775 -8.1875 20.1675 -8.1875 21.1875 C-2.90444183 22.87807861 2.48349269 22.47938056 7.8125 21.1875 C7.1525 21.5175 6.4925 21.8475 5.8125 22.1875 C5.4825 23.1775 5.1525 24.1675 4.8125 25.1875 C-6.97519664 25.75381283 -6.97519664 25.75381283 -12.1875 22.1875 C-13.62957941 19.30334117 -13.28144887 16.77028472 -13.25 13.5625 C-13.24097656 12.37398437 -13.23195313 11.18546875 -13.22265625 9.9609375 C-13.21105469 9.04570312 -13.19945313 8.13046875 -13.1875 7.1875 C-12.1975 6.8575 -11.2075 6.5275 -10.1875 6.1875 C-9.8575 5.1975 -9.5275 4.2075 -9.1875 3.1875 C-6.6592675 -0.41586127 -4.19911357 -0.13545528 0 0 Z " fill="#CA8627" transform="translate(94.1875,130.8125)"/>
<path d="M0 0 C4.07052347 2.1106418 6.28051835 3.77875001 8 8 C8.75679813 11.93680568 8.69246395 15.45114186 7.04296875 19.140625 C4.78949891 22.3357465 3.11745252 23.78468215 -0.77734375 24.53515625 C-3.66383676 24.62239585 -6.18028629 24.6358178 -9 24 C-9.66 23.01 -10.32 22.02 -11 21 C-7.7 21.66 -4.4 22.32 -1 23 C-0.67 22.01 -0.34 21.02 0 20 C1.32 20 2.64 20 4 20 C4.144375 19.195625 4.28875 18.39125 4.4375 17.5625 C5 15 5 15 6 14 C6.29069241 10.41479367 6.08202098 7.97431568 4 5 C1.32433475 2.90285697 -0.0702458 1.90702458 -3.5 2.25 C-4.325 2.4975 -5.15 2.745 -6 3 C-7.66666667 3.33333333 -9.33333333 3.66666667 -11 4 C-11.144375 4.804375 -11.28875 5.60875 -11.4375 6.4375 C-12 9 -12 9 -13 10 C-13.04320247 12.33293334 -13.04022391 14.6670134 -13 17 C-13 17.99 -13 18.98 -13 20 C-15.28928166 18.207335 -15.94918203 17.33081505 -16.3984375 14.40625 C-16.39070313 13.4471875 -16.38296875 12.488125 -16.375 11.5 C-16.38273437 10.5409375 -16.39046875 9.581875 -16.3984375 8.59375 C-15.79840937 4.6876845 -13.81789843 3.63095022 -10.8125 1.3125 C-7.15312909 -0.39520642 -3.93067238 -0.69998275 0 0 Z " fill="#D18924" transform="translate(141,113)"/>
<path d="M0 0 C1.423125 0.061875 2.84625 0.12375 4.3125 0.1875 C4.3125 4.1475 4.3125 8.1075 4.3125 12.1875 C-2.8875 12.5475 -2.8875 12.5475 -6.1875 11.0625 C-7.6875 9.1875 -7.6875 9.1875 -8.125 6.1875 C-7.36714978 0.99081276 -5.05217151 -0.21965963 0 0 Z " fill="#2DA1D3" transform="translate(45.6875,74.8125)"/>
<path d="M0 0 C3.625 0.25 3.625 0.25 5.5625 1.375 C7.12922245 4.13980433 7.01476435 6.13188517 6.625 9.25 C5.625 11.125 5.625 11.125 3.625 12.25 C0.90621737 12.49131207 -1.6342111 12.3847929 -4.375 12.25 C-4.40187279 10.43757948 -4.42133715 8.62504767 -4.4375 6.8125 C-4.44910156 5.80316406 -4.46070313 4.79382812 -4.47265625 3.75390625 C-4.32277658 -0.0890084 -3.95522917 0.29297994 0 0 Z " fill="#21A9E6" transform="translate(142.375,49.75)"/>
<path d="M0 0 C2.14576637 -0.02685938 4.29162645 -0.04633088 6.4375 -0.0625 C7.63246094 -0.07410156 8.82742187 -0.08570312 10.05859375 -0.09765625 C13 0 13 0 14 1 C14.18063984 3.45492501 14.27801743 5.85504249 14.3125 8.3125 C14.34150391 8.98990234 14.37050781 9.66730469 14.40039062 10.36523438 C14.44480945 13.86065387 14.2533824 15.6682519 12.10546875 18.48046875 C10 20 10 20 8 20 C7.67 20.99 7.34 21.98 7 23 C6.34 23 5.68 23 5 23 C4.34 24.32 3.68 25.64 3 27 C-1.875 25.25 -1.875 25.25 -3 23 C-3.99 22.67 -4.98 22.34 -6 22 C-6.875 19.375 -6.875 19.375 -7 16 C-5.50443586 14.56946039 -4.00217478 13.1436652 -2.4375 11.7890625 C0.26889737 8.42077447 -0.01648572 4.17088648 0 0 Z M1 1 C0.95875 2.52625 0.9175 4.0525 0.875 5.625 C0.50209862 9.66380882 -0.14792768 11.77214803 -3.0625 14.625 C-4.031875 15.40875 -5.00125 16.1925 -6 17 C-5.34 18.32 -4.68 19.64 -4 21 C-3.01 21 -2.02 21 -1 21 C-1 21.66 -1 22.32 -1 23 C0.32 23 1.64 23 3 23 C3 22.34 3 21.68 3 21 C3.99 21.33 4.98 21.66 6 22 C6.33 21.01 6.66 20.02 7 19 C7.99 18.67 8.98 18.34 10 18 C12.49118953 14.2632157 12.2065226 12.25548181 12.125 7.8125 C12.10695313 6.54019531 12.08890625 5.26789063 12.0703125 3.95703125 C12.04710938 2.98121094 12.02390625 2.00539063 12 1 C8.37 1 4.74 1 1 1 Z " fill="#3A7797" transform="translate(62,94)"/>
<path d="M0 0 C0.99 0 1.98 0 3 0 C3 12.54 3 25.08 3 38 C2.01 38 1.02 38 0 38 C0 25.46 0 12.92 0 0 Z " fill="#D5E9F5" transform="translate(105,37)"/>
<path d="M0 0 C4.29 0 8.58 0 13 0 C13 3.63 13 7.26 13 11 C12.67 11 12.34 11 12 11 C12 7.7 12 4.4 12 1 C8.37 1 4.74 1 1 1 C1 5.29 1 9.58 1 14 C2.98 14.495 2.98 14.495 5 15 C6.38232443 16.62626404 7.71937515 18.2925002 9 20 C9.66 20.33 10.32 20.66 11 21 C11 21.66 11 22.32 11 23 C11.78375 22.505 12.5675 22.01 13.375 21.5 C16 20 16 20 18 20 C16.94124926 16.59687262 15.99097846 13.98646769 14 11 C17.7952131 12.49097658 19.61042731 14.75700849 22 18 C19.79015325 21.37292399 17.63053927 23.22900524 14 25 C10 25 10 25 7.9296875 23.28515625 C7.25164062 22.55167969 6.57359375 21.81820312 5.875 21.0625 C3.23786751 18.13007565 3.23786751 18.13007565 0 16 C0 10.72 0 5.44 0 0 Z " fill="#3C8AAB" transform="translate(112,94)"/>
<path d="M0 0 C2.31 0 4.62 0 7 0 C7 14.85 7 29.7 7 45 C4.69 45 2.38 45 0 45 C-1.53084425 43.46915575 -1.12715779 42.08796856 -1.12939453 39.95507812 C-1.13254669 39.09748901 -1.13569885 38.2398999 -1.13894653 37.35632324 C-1.1369223 36.42404907 -1.13489807 35.4917749 -1.1328125 34.53125 C-1.13376923 33.58060669 -1.13472595 32.62996338 -1.13571167 31.6505127 C-1.13639357 29.63631118 -1.13453862 27.62210748 -1.13037109 25.60791016 C-1.12502298 22.51329645 -1.13031577 19.4188279 -1.13671875 16.32421875 C-1.13605797 14.37239551 -1.13477681 12.42057236 -1.1328125 10.46875 C-1.13483673 9.53647583 -1.13686096 8.60420166 -1.13894653 7.64367676 C-1.13579437 6.78608765 -1.13264221 5.92849854 -1.12939453 5.04492188 C-1.12859894 4.28626831 -1.12780334 3.52761475 -1.12698364 2.74597168 C-1 1 -1 1 0 0 Z M1 1 C-0.45022944 2.22152662 -0.45022944 2.22152662 -0.11352539 5.87719727 C-0.11336621 7.60694167 -0.10766849 9.33669081 -0.09765625 11.06640625 C-0.0962413 11.97502914 -0.09482635 12.88365204 -0.09336853 13.81980896 C-0.08775193 16.73407221 -0.07519665 19.64825981 -0.0625 22.5625 C-0.05748714 24.53320202 -0.05292386 26.50390524 -0.04882812 28.47460938 C-0.03777711 33.31643559 -0.02050138 38.15820495 0 43 C1.66611905 43.042721 3.33382885 43.04063832 5 43 C6.43924868 41.78928204 6.43924868 41.78928204 6.11352539 38.21459961 C6.11336622 36.52717271 6.10766917 34.83974095 6.09765625 33.15234375 C6.09553383 31.82270348 6.09553383 31.82270348 6.09336853 30.46620178 C6.08775215 27.62326746 6.07519691 24.78041069 6.0625 21.9375 C6.05748711 20.01497509 6.05292384 18.09244896 6.04882812 16.16992188 C6.03777741 11.44658451 6.02050183 6.72330542 6 2 C4.34385343 1.61781233 2.67542976 1.28604898 1 1 Z " fill="#E6926C" transform="translate(103,34)"/>
<path d="M0 0 C10.16550164 -0.63096217 10.16550164 -0.63096217 13.5625 1.9375 C14.036875 2.618125 14.51125 3.29875 15 4 C15.66 4.33 16.32 4.66 17 5 C17.57485013 13.38003747 17.62456739 19.43493117 12 26 C11 27 11 27 8.05859375 27.09765625 C6.86363281 27.08605469 5.66867188 27.07445312 4.4375 27.0625 C2.64119141 27.04896484 2.64119141 27.04896484 0.80859375 27.03515625 C-0.11824219 27.02355469 -1.04507813 27.01195312 -2 27 C-2 26.34 -2 25.68 -2 25 C-0.89591797 24.99613281 -0.89591797 24.99613281 0.23046875 24.9921875 C6.83309139 24.88395477 6.83309139 24.88395477 12.1875 21.5 C14.42550997 17.17832558 14.82558909 13.7797263 14 9 C12.41748313 5.14782078 10.80940462 3.77772216 7 2 C3.30476048 1.28076792 3.30476048 1.28076792 0 1 C0 0.67 0 0.34 0 0 Z " fill="#8D6337" transform="translate(134,112)"/>
<path d="M0 0 C1.16760792 3.50282377 1.08060028 6.16231583 1.02172852 9.8581543 C1.01212097 10.55109589 1.00251343 11.24403748 0.99261475 11.95797729 C0.95965169 14.24682869 0.91930925 16.5354876 0.87890625 18.82421875 C0.85460249 20.41176171 0.83075906 21.99931177 0.80735779 23.58686829 C0.74454228 27.76429342 0.67546846 31.94159262 0.60510254 36.11889648 C0.53439622 40.38194038 0.46959301 44.64507353 0.40429688 48.90820312 C0.27531718 57.27223425 0.1397276 65.63614156 0 74 C-1.98 74.495 -1.98 74.495 -4 75 C-3.01 74.01 -3.01 74.01 -2 73 C-1.70606161 70.00366169 -1.70606161 70.00366169 -1.77294922 66.43896484 C-1.77265717 65.76567642 -1.77236511 65.092388 -1.77206421 64.3986969 C-1.77345953 62.16931346 -1.78902984 59.94026268 -1.8046875 57.7109375 C-1.80841692 56.16680077 -1.81126423 54.62266167 -1.81326294 53.07852173 C-1.82090501 49.01124557 -1.84055832 44.94411189 -1.8626709 40.87689209 C-1.88311704 36.7278435 -1.89226201 32.57877193 -1.90234375 28.4296875 C-1.92380377 20.28638561 -1.95899049 12.14322693 -2 4 C-6.29 3.67 -10.58 3.34 -15 3 C-14.67 2.34 -14.34 1.68 -14 1 C-13.07316406 1.01160156 -12.14632812 1.02320312 -11.19140625 1.03515625 C-9.39509766 1.04869141 -9.39509766 1.04869141 -7.5625 1.0625 C-5.77005859 1.07990234 -5.77005859 1.07990234 -3.94140625 1.09765625 C-1.11126659 1.33901792 -1.11126659 1.33901792 0 0 Z " fill="#F3771E" transform="translate(126,17)"/>
<path d="M0 0 C0.99 0.495 0.99 0.495 2 1 C2 16.18 2 31.36 2 47 C5.6267379 48.81336895 6.95102067 49.26734695 10.765625 49.4140625 C11.65507813 49.45273438 12.54453125 49.49140625 13.4609375 49.53125 C14.38132812 49.5621875 15.30171875 49.593125 16.25 49.625 C17.18585938 49.66367188 18.12171875 49.70234375 19.0859375 49.7421875 C21.39043054 49.83624844 23.69492013 49.92189399 26 50 C26 50.33 26 50.66 26 51 C22.20847666 51.0867982 18.41720704 51.14032207 14.625 51.1875 C13.54476562 51.21263672 12.46453125 51.23777344 11.3515625 51.26367188 C9.8046875 51.27817383 9.8046875 51.27817383 8.2265625 51.29296875 C7.27346191 51.3086792 6.32036133 51.32438965 5.33837891 51.34057617 C4.18088135 51.17199097 4.18088135 51.17199097 3 51 C0.87205832 47.80808747 0.73900457 46.92679016 0.68115234 43.25317383 C0.66128265 42.29240433 0.64141296 41.33163483 0.62094116 40.3417511 C0.60938995 39.30729355 0.59783875 38.272836 0.5859375 37.20703125 C0.56657135 36.14586594 0.5472052 35.08470062 0.5272522 33.99137878 C0.46742167 30.59850122 0.42105679 27.2055898 0.375 23.8125 C0.33682345 21.51365699 0.29777191 19.21482833 0.2578125 16.91601562 C0.16171732 11.27747105 0.07667994 5.63884021 0 0 Z " fill="#B29048" transform="translate(49,43)"/>
<path d="M0 0 C2.64611792 1.32305896 3.29609075 3.08330386 4.40234375 5.74609375 C5.55356879 10.08764178 5.21741399 14.54703947 5 19 C1.75 19.375 1.75 19.375 -2 19 C-4.92747518 15.84733442 -5.93155851 13.92396017 -6.25 9.625 C-6.1675 8.75875 -6.085 7.8925 -6 7 C-9.3 7 -12.6 7 -16 7 C-15.938125 8.11375 -15.87625 9.2275 -15.8125 10.375 C-15.9053125 12.169375 -15.9053125 12.169375 -16 14 C-16.99 14.66 -17.98 15.32 -19 16 C-18.33333333 12.66666667 -17.66666667 9.33333333 -17 6 C-13.04 6 -9.08 6 -5 6 C-1 14.625 -1 14.625 -1 18 C0.65 18 2.3 18 4 18 C3.48914188 11.56318772 2.27057103 6.04057576 0 0 Z " fill="#E8895E" transform="translate(92,60)"/>
<path d="M0 0 C0.33 0 0.66 0 1 0 C1.09765625 6.15234375 1.09765625 6.15234375 1 8 C0.67 8.33 0.34 8.66 0 9 C-0.20768229 10.47396739 -0.36716017 11.9549126 -0.5 13.4375 C-0.89041096 17.78082192 -0.89041096 17.78082192 -2 20 C-2.66 20 -3.32 20 -4 20 C-4 21.98 -4 23.96 -4 26 C-0.535 25.505 -0.535 25.505 3 25 C2.67 25.99 2.34 26.98 2 28 C-0.33294775 28.04241723 -2.66702567 28.04092937 -5 28 C-6.73849628 26.26150372 -6.17216296 23.9213363 -6.1875 21.5625 C-6.20167969 20.57378906 -6.21585938 19.58507812 -6.23046875 18.56640625 C-6 16 -6 16 -4 14 C-3.21983276 11.62533036 -2.51940455 9.28555037 -1.875 6.875 C-1.69324219 6.21628906 -1.51148437 5.55757812 -1.32421875 4.87890625 C-0.87684563 3.25423544 -0.43763465 1.62732107 0 0 Z " fill="#E88558" transform="translate(70,51)"/>
<path d="M0 0 C1.65 0 3.3 0 5 0 C7.08997373 3.39620731 7.2632246 6.05163095 7 10 C6 11 6 11 3 11.125 C0 11 0 11 -1 10 C-1.23880597 2.47761194 -1.23880597 2.47761194 0 0 Z " fill="#DFB4A2" transform="translate(78,49)"/>
<path d="M0 0 C2.31 0 4.62 0 7 0 C8.4606285 2.64738916 9 3.89448334 9 7 C8.34 7 7.68 7 7 7 C7 7.99 7 8.98 7 10 C4.69 10 2.38 10 0 10 C0 6.7 0 3.4 0 0 Z " fill="#21A8E5" transform="translate(139,76)"/>
<path d="M0 0 C1.65322266 0.01740234 1.65322266 0.01740234 3.33984375 0.03515625 C4.44457031 0.04417969 5.54929687 0.05320313 6.6875 0.0625 C7.54214844 0.07410156 8.39679688 0.08570313 9.27734375 0.09765625 C9.27734375 0.75765625 9.27734375 1.41765625 9.27734375 2.09765625 C5.31734375 2.09765625 1.35734375 2.09765625 -2.72265625 2.09765625 C-2.72265625 3.74765625 -2.72265625 5.39765625 -2.72265625 7.09765625 C-4.22265625 10.41015625 -4.22265625 10.41015625 -5.72265625 13.09765625 C-7.70265625 13.09765625 -9.68265625 13.09765625 -11.72265625 13.09765625 C-11.72265625 11.11765625 -11.72265625 9.13765625 -11.72265625 7.09765625 C-11.06265625 7.09765625 -10.40265625 7.09765625 -9.72265625 7.09765625 C-9.39265625 6.43765625 -9.06265625 5.77765625 -8.72265625 5.09765625 C-9.05265625 7.07765625 -9.38265625 9.05765625 -9.72265625 11.09765625 C-8.73265625 11.09765625 -7.74265625 11.09765625 -6.72265625 11.09765625 C-6.53703125 10.01484375 -6.53703125 10.01484375 -6.34765625 8.91015625 C-4.4027141 0.15791657 -4.4027141 0.15791657 0 0 Z " fill="#DDC1B6" transform="translate(77.72265625,63.90234375)"/>
<path d="M0 0 C1.95803507 -0.05389087 3.91648909 -0.09274217 5.875 -0.125 C7.51082031 -0.15980469 7.51082031 -0.15980469 9.1796875 -0.1953125 C12 0 12 0 14 2 C14.265625 4.3125 14.265625 4.3125 14.25 7 C14.25515625 7.886875 14.2603125 8.77375 14.265625 9.6875 C14 12 14 12 12 14 C9.43359375 14.23046875 9.43359375 14.23046875 6.4375 14.1875 C5.44621094 14.18105469 4.45492187 14.17460938 3.43359375 14.16796875 C1 14 1 14 0 13 C-0.07258946 10.81360547 -0.08373783 8.62499611 -0.0625 6.4375 C-0.05347656 5.23996094 -0.04445312 4.04242188 -0.03515625 2.80859375 C-0.02355469 1.88175781 -0.01195312 0.95492187 0 0 Z M1 2 C0.92773498 3.85287502 0.9161878 5.70833878 0.9375 7.5625 C0.94652344 8.57441406 0.95554688 9.58632813 0.96484375 10.62890625 C0.97644531 11.41136719 0.98804688 12.19382812 1 13 C6.21648103 13.44308651 6.21648103 13.44308651 11 11.875 C12.47901666 9.10184376 12.38601984 7.08815875 12 4 C11.06402685 1.98048938 11.06402685 1.98048938 9 1 C4.69300955 0.37477618 4.69300955 0.37477618 1 2 Z " fill="#4E7089" transform="translate(137,49)"/>
<path d="M0 0 C3.96 0 7.92 0 12 0 C12 0.33 12 0.66 12 1 C10.72125 1.12375 9.4425 1.2475 8.125 1.375 C4.65209064 1.69042399 4.65209064 1.69042399 2 4 C1.60235737 5.98821313 1.26224651 7.98944339 1 10 C4.53411321 12.12046792 7.94393835 12.53199289 12 13 C12 13.66 12 14.32 12 15 C10.58430936 15.08167446 9.16723195 15.13949698 7.75 15.1875 C6.96109375 15.22230469 6.1721875 15.25710937 5.359375 15.29296875 C2.36212724 14.92079395 1.08236252 14.18152264 -1 12 C-1.42578125 9.58984375 -1.42578125 9.58984375 -1.3125 6.9375 C-1.28800781 6.05964844 -1.26351562 5.18179688 -1.23828125 4.27734375 C-1 2 -1 2 0 0 Z " fill="#3B5975" transform="translate(37,74)"/>
<path d="M0 0 C0.02686553 1.97909398 0.04633375 3.95828971 0.0625 5.9375 C0.07410156 7.03964844 0.08570313 8.14179687 0.09765625 9.27734375 C0 12 0 12 -1 13 C-8.17684887 13.46302251 -8.17684887 13.46302251 -11 11.875 C-12.504106 9.05480125 -12.44912849 7.14389944 -12 4 C-8.86279363 -0.96724342 -5.35524469 -0.35701631 0 0 Z M-8.8125 2.6875 C-10.18700224 5.36416226 -10.32109056 7.02991231 -10 10 C-8.81575674 11.41577477 -8.81575674 11.41577477 -5.4375 11.0625 C-3.7359375 11.0315625 -3.7359375 11.0315625 -2 11 C-2 7.7 -2 4.4 -2 1 C-6.80283029 0.43215123 -6.80283029 0.43215123 -8.8125 2.6875 Z " fill="#3993B9" transform="translate(50,50)"/>
<path d="M0 0 C0.99 0 1.98 0 3 0 C6.44419134 9.41002278 6.44419134 9.41002278 6 14 C5.34 13.34 4.68 12.68 4 12 C1.67724823 11.59952556 -0.65739357 11.2602896 -3 11 C-2.69217504 9.35328588 -2.37860766 7.70764424 -2.0625 6.0625 C-1.88847656 5.14597656 -1.71445313 4.22945312 -1.53515625 3.28515625 C-1 1 -1 1 0 0 Z " fill="#D7E2EA" transform="translate(80,37)"/>
<path d="M0 0 C5.28 0 10.56 0 16 0 C15.34 1.32 14.68 2.64 14 4 C9.71 4 5.42 4 1 4 C0.67 2.68 0.34 1.36 0 0 Z " fill="#3CA6CC" transform="translate(111,15)"/>
<path d="M0 0 C5.28 0 10.56 0 16 0 C15.34 1.32 14.68 2.64 14 4 C9.71 4 5.42 4 1 4 C0.67 2.68 0.34 1.36 0 0 Z " fill="#3CA8CC" transform="translate(86,15)"/>
<path d="M0 0 C5.28 0 10.56 0 16 0 C15.34 1.32 14.68 2.64 14 4 C9.71 4 5.42 4 1 4 C0.67 2.68 0.34 1.36 0 0 Z " fill="#3CA8CC" transform="translate(61,15)"/>
<path d="M0 0 C0.99 0.33 1.98 0.66 3 1 C2.01 2.485 2.01 2.485 1 4 C-0.32 4 -1.64 4 -3 4 C-3.144375 4.804375 -3.28875 5.60875 -3.4375 6.4375 C-4 9 -4 9 -5 10 C-5.04320247 12.33293334 -5.04022391 14.6670134 -5 17 C-5 17.99 -5 18.98 -5 20 C-7.28928166 18.207335 -7.94918203 17.33081505 -8.3984375 14.40625 C-8.39070313 13.4471875 -8.38296875 12.488125 -8.375 11.5 C-8.38273437 10.5409375 -8.39046875 9.581875 -8.3984375 8.59375 C-7.93988111 5.6086378 -7.34514803 4.81777024 -5 3 C-2.5 1.25 -2.5 1.25 0 0 Z " fill="#C98E30" transform="translate(133,113)"/>
<path d="M0 0 C0.33 0 0.66 0 1 0 C1.76913073 8.64844781 1.76913073 8.64844781 -0.078125 11.89453125 C-1.32921174 13.3145866 -2.66175951 14.66175951 -4 16 C-4.33 16.99 -4.66 17.98 -5 19 C-9.62 19 -14.24 19 -19 19 C-19.33 17.68 -19.66 16.36 -20 15 C-19.01 15.495 -19.01 15.495 -18 16 C-14.2196432 16.5991742 -10.76738616 16.72694634 -7 16 C-3.4048711 13.32794473 -1.50115811 10.00463246 -0.421875 5.6875 C-0.05963429 3.28928818 -0.05963429 3.28928818 0 0 Z " fill="#7C624A" transform="translate(106,139)"/>
<path d="M0 0 C0.98484375 0.01804687 1.9696875 0.03609375 2.984375 0.0546875 C4.10585938 0.08949219 4.10585938 0.08949219 5.25 0.125 C5.25 0.455 5.25 0.785 5.25 1.125 C4.65832031 1.15078125 4.06664063 1.1765625 3.45703125 1.203125 C-1.80994675 1.58117889 -4.92381203 2.18286694 -8.75 6.125 C-11.03062828 9.54594242 -10.96925007 10.80687222 -10.875 14.8125 C-10.85695312 15.80636719 -10.83890625 16.80023438 -10.8203125 17.82421875 C-10.79710937 18.58347656 -10.77390625 19.34273437 -10.75 20.125 C-11.41 20.125 -12.07 20.125 -12.75 20.125 C-12.83150744 18.06316367 -12.8894194 16.00038651 -12.9375 13.9375 C-12.97230469 12.78894531 -13.00710937 11.64039062 -13.04296875 10.45703125 C-12.71899939 6.77241969 -12.03022694 5.00987139 -9.75 2.125 C-6.58245153 -0.13560083 -3.81867274 -0.09092078 0 0 Z " fill="#886239" transform="translate(49.75,111.875)"/>
<path d="M0 0 C2.75861118 4.13791677 4.27302852 6.71703018 4.125 11.75 C4.10695313 12.54921875 4.08890625 13.3484375 4.0703125 14.171875 C4.03550781 15.07679687 4.03550781 15.07679687 4 16 C2.35 16 0.7 16 -1 16 C-1.69685498 14.3789897 -2.38222861 12.75303934 -3.0625 11.125 C-3.44535156 10.22007813 -3.82820313 9.31515625 -4.22265625 8.3828125 C-5 6 -5 6 -4 4 C0 10.625 0 10.625 0 14 C0.99 14 1.98 14 3 14 C2.7834375 13.32453125 2.566875 12.6490625 2.34375 11.953125 C2.0653125 11.06109375 1.786875 10.1690625 1.5 9.25 C1.2215625 8.36828125 0.943125 7.4865625 0.65625 6.578125 C0 4 0 4 0 0 Z " fill="#DFB7A7" transform="translate(92,62)"/>
<path d="M0 0 C3.625 0.25 3.625 0.25 5.5625 1.375 C7.12922245 4.13980433 7.01476435 6.13188517 6.625 9.25 C5.625 11.125 5.625 11.125 3.625 12.25 C0.90621737 12.49131207 -1.6342111 12.3847929 -4.375 12.25 C-4.40187279 10.43757948 -4.42133715 8.62504767 -4.4375 6.8125 C-4.44910156 5.80316406 -4.46070313 4.79382812 -4.47265625 3.75390625 C-4.32277658 -0.0890084 -3.95522917 0.29297994 0 0 Z M-3.375 1.25 C-3.375 4.55 -3.375 7.85 -3.375 11.25 C0.81466713 11.59685528 0.81466713 11.59685528 4.5625 10 C5.79799271 8.30628623 5.79799271 8.30628623 5.625 6.25 C4.20976425 3.41952851 2.44028455 2.59061169 -0.375 1.25 C-1.365 1.25 -2.355 1.25 -3.375 1.25 Z " fill="#3296C6" transform="translate(142.375,49.75)"/>
<path d="M0 0 C0.33 0.66 0.66 1.32 1 2 C-0.578125 4.48046875 -0.578125 4.48046875 -3 7 C-6.234375 7.48828125 -6.234375 7.48828125 -9.75 7.3125 C-10.92046875 7.26738281 -12.0909375 7.22226563 -13.296875 7.17578125 C-14.18890625 7.11777344 -15.0809375 7.05976563 -16 7 C-16 6.34 -16 5.68 -16 5 C-15.26394531 4.97421875 -14.52789062 4.9484375 -13.76953125 4.921875 C-6.08058844 4.50939957 -6.08058844 4.50939957 0 0 Z " fill="#6F523E" transform="translate(148,132)"/>
<path d="M0 0 C0.33 0 0.66 0 1 0 C2.72805471 6.62420971 0.84964058 10.92158211 -2 17 C-2.99 17 -3.98 17 -5 17 C-4.71788123 15.3733152 -4.42397625 13.74867104 -4.125 12.125 C-3.96257812 11.22007813 -3.80015625 10.31515625 -3.6328125 9.3828125 C-3 7 -3 7 -1 5 C-0.35232207 2.42938689 -0.35232207 2.42938689 0 0 Z " fill="#D7E1E9" transform="translate(73,58)"/>
<path d="M0 0 C0.66 0 1.32 0 2 0 C2.04125 1.175625 2.0825 2.35125 2.125 3.5625 C2.71722936 8.67389492 5.42469929 11.50123478 9 15 C5.7129718 14.72608098 4.21006769 14.18168017 1.6875 12 C-0.60240582 7.92905632 -0.35813217 4.56618517 0 0 Z " fill="#6B5140" transform="translate(123,122)"/>
<path d="M0 0 C5.75 -0.125 5.75 -0.125 8 1 C10.2189781 8.12408759 10.2189781 8.12408759 9 13 C7.68 9.7 6.36 6.4 5 3 C3.02 3 1.04 3 -1 3 C-0.67 2.01 -0.34 1.02 0 0 Z " fill="#E78B61" transform="translate(78,33)"/>
<path d="M0 0 C0.33 0.99 0.66 1.98 1 3 C3.89260141 4.90412251 6.34692138 5.2825739 9.765625 5.4140625 C10.65507813 5.45273438 11.54453125 5.49140625 12.4609375 5.53125 C13.38132812 5.5621875 14.30171875 5.593125 15.25 5.625 C16.18585938 5.66367188 17.12171875 5.70234375 18.0859375 5.7421875 C20.39043054 5.83624844 22.69492013 5.92189399 25 6 C25 6.33 25 6.66 25 7 C21.20847666 7.0867982 17.41720704 7.14032207 13.625 7.1875 C12.54476562 7.21263672 11.46453125 7.23777344 10.3515625 7.26367188 C8.8046875 7.27817383 8.8046875 7.27817383 7.2265625 7.29296875 C6.27346191 7.3086792 5.32036133 7.32438965 4.33837891 7.34057617 C3.56671387 7.22818604 2.79504883 7.1157959 2 7 C0 4 0 4 0 0 Z " fill="#AD8542" transform="translate(50,87)"/>
<path d="M0 0 C2 1.5 2 1.5 4 4 C4.62388198 8.91307062 4.75777063 10.86334406 2 15 C1.34 15.66 0.68 16.32 0 17 C0 15.35 0 13.7 0 12 C0.66 12 1.32 12 2 12 C1.67 10.7625 1.34 9.525 1 8.25 C0.20108841 5.25408155 0 3.19892281 0 0 Z " fill="#CF8824" transform="translate(102,135)"/>
<path d="M0 0 C0.99773438 0.02320313 1.99546875 0.04640625 3.0234375 0.0703125 C4.52777344 0.09738281 4.52777344 0.09738281 6.0625 0.125 C6.83335938 0.14820313 7.60421875 0.17140625 8.3984375 0.1953125 C8.3984375 0.5253125 8.3984375 0.8553125 8.3984375 1.1953125 C7.3053125 1.2984375 6.2121875 1.4015625 5.0859375 1.5078125 C1.54939729 1.91736548 1.54939729 1.91736548 -0.4765625 3.4453125 C-1.89192245 5.64698354 -2.25354697 7.61999758 -2.6015625 10.1953125 C-4.75072035 6.97157573 -4.98443053 5.92827576 -4.6015625 2.1953125 C-2.6015625 0.1953125 -2.6015625 0.1953125 0 0 Z " fill="#456F8F" transform="translate(40.6015625,48.8046875)"/>
<path d="M0 0 C3.96 0 7.92 0 12 0 C12.66 1.32 13.32 2.64 14 4 C13.45859375 3.83628906 12.9171875 3.67257813 12.359375 3.50390625 C9.59777407 2.91409413 7.07181861 2.90390692 4.25 2.9375 C3.26515625 2.94652344 2.2803125 2.95554688 1.265625 2.96484375 C0.14414063 2.98224609 0.14414063 2.98224609 -1 3 C-0.67 2.01 -0.34 1.02 0 0 Z " fill="#A99A5B" transform="translate(88,131)"/>
<path d="M0 0 C0.99 0.33 1.98 0.66 3 1 C3.05391993 2.79133978 3.09275571 4.58313899 3.125 6.375 C3.14820313 7.37273437 3.17140625 8.37046875 3.1953125 9.3984375 C3 12 3 12 1 14 C-1.3828125 14.1953125 -1.3828125 14.1953125 -4.125 14.125 C-5.49011719 14.09792969 -5.49011719 14.09792969 -6.8828125 14.0703125 C-7.58148438 14.04710938 -8.28015625 14.02390625 -9 14 C-9 13.67 -9 13.34 -9 13 C-4.545 12.505 -4.545 12.505 0 12 C1.31517278 8.05448165 1.9115792 3.8231584 0 0 Z " fill="#3E5067" transform="translate(148,75)"/>
<path d="M0 0 C0.66 0.33 1.32 0.66 2 1 C1.67 1.33 1.34 1.66 1 2 C0.58742352 7.98235897 1.32598412 11.65196824 4 17 C2.0625 16.625 2.0625 16.625 0 16 C-1.43316898 13.13366205 -1.13200361 10.62764499 -1.125 7.4375 C-1.12757812 6.26058594 -1.13015625 5.08367187 -1.1328125 3.87109375 C-1 1 -1 1 0 0 Z " fill="#906535" transform="translate(82,137)"/>
<path d="M0 0 C2.475 0.495 2.475 0.495 5 1 C5 2.65 5 4.3 5 6 C3.35 6 1.7 6 0 6 C0 4.02 0 2.04 0 0 Z " fill="#EA7C4A" transform="translate(79,53)"/>
<path d="M0 0 C1.98 0.99 3.96 1.98 6 3 C6 3.66 6 4.32 6 5 C7.32 5 8.64 5 10 5 C10 4.34 10 3.68 10 3 C10.66 3.33 11.32 3.66 12 4 C10.68 5.32 9.36 6.64 8 8 C7.01 7.67 6.02 7.34 5 7 C4.67 6.34 4.34 5.68 4 5 C3.01 4.67 2.02 4.34 1 4 C0.3125 1.9375 0.3125 1.9375 0 0 Z " fill="#569DA8" transform="translate(55,112)"/>
<path d="M0 0 C1.8656803 3.73136061 0.15445483 8.14980247 -1 12 C-3.125 15.125 -3.125 15.125 -5 17 C-4.46246904 10.81839396 -2.45417612 5.673142 0 0 Z " fill="#DBCBC6" transform="translate(74,51)"/>
<path d="M0 0 C1.98 0 3.96 0 6 0 C6.33 0.66 6.66 1.32 7 2 C9.64 2 12.28 2 15 2 C14.67 2.66 14.34 3.32 14 4 C4.82713348 4.63019694 4.82713348 4.63019694 1.375 2 C0.92125 1.34 0.4675 0.68 0 0 Z " fill="#CA8525" transform="translate(41,133)"/>
<path d="M0 0 C3.7952131 1.49097658 5.61042731 3.75700849 8 7 C7.01 8.32 6.02 9.64 5 11 C4.34 10.67 3.68 10.34 3 10 C3.0928125 8.63875 3.0928125 8.63875 3.1875 7.25 C2.98327924 3.71017358 2.35448165 2.55068845 0 0 Z " fill="#4E8493" transform="translate(126,105)"/>
<path d="M0 0 C1 2 2 4 3 6 C5.35599235 6.46751788 5.35599235 6.46751788 8.0625 6.625 C8.98160156 6.69976562 9.90070312 6.77453125 10.84765625 6.8515625 C11.55792969 6.90054688 12.26820312 6.94953125 13 7 C13 7.33 13 7.66 13 8 C8.71 8 4.42 8 0 8 C-1 2 -1 2 0 0 Z " fill="#694F43" transform="translate(49,87)"/>
<path d="M0 0 C3.96 0 7.92 0 12 0 C12 0.33 12 0.66 12 1 C8.37 1 4.74 1 1 1 C1.061875 2.11375 1.12375 3.2275 1.1875 4.375 C1.125625 5.57125 1.06375 6.7675 1 8 C0.01 8.66 -0.98 9.32 -2 10 C-1.33333333 6.66666667 -0.66666667 3.33333333 0 0 Z " fill="#EA7E4C" transform="translate(75,66)"/>
<path d="M0 0 C0.33 1.32 0.66 2.64 1 4 C0.01 4.33 -0.98 4.66 -2 5 C-2 7.31 -2 9.62 -2 12 C-1.34 12 -0.68 12 0 12 C-0.33 13.32 -0.66 14.64 -1 16 C-3.67548031 11.98677954 -3.58740465 8.71626345 -3 4 C-1.5 1.4375 -1.5 1.4375 0 0 Z " fill="#CB8525" transform="translate(41,117)"/>
<path d="M0 0 C0.598125 0.226875 1.19625 0.45375 1.8125 0.6875 C0.8225 0.6875 -0.1675 0.6875 -1.1875 0.6875 C-2.75022189 5.08003773 -2.75022189 5.08003773 -3.1875 9.6875 C-4.1775 9.0275 -5.1675 8.3675 -6.1875 7.6875 C-5.82037028 4.97074005 -5.46005401 3.07686287 -3.875 0.8125 C-2.1875 -0.3125 -2.1875 -0.3125 0 0 Z " fill="#279AD1" transform="translate(44.1875,76.3125)"/>
<path d="M0 0 C0.99 0.33 1.98 0.66 3 1 C0.56230384 4.65654425 -0.91315728 4.7489257 -5 6 C-5.99 6.66 -6.98 7.32 -8 8 C-6.49860488 3.79609368 -3.82724957 2.10889262 0 0 Z " fill="#B89F53" transform="translate(133,113)"/>
<path d="M0 0 C0.639375 0.804375 1.27875 1.60875 1.9375 2.4375 C4.57702485 5.71690966 4.9883514 6.10981682 9.0625 6.5625 C10.361875 6.706875 11.66125 6.85125 13 7 C13 7.33 13 7.66 13 8 C4.99639964 8.46174617 4.99639964 8.46174617 1.4375 6.8125 C-0.4433581 4.44098326 -0.31898502 2.95061143 0 0 Z " fill="#3F4E65" transform="translate(36,56)"/>
<path d="M0 0 C1.65 0 3.3 0 5 0 C4.25 1.9375 4.25 1.9375 3 4 C0.875 4.75 0.875 4.75 -1 5 C-0.67 3.35 -0.34 1.7 0 0 Z " fill="#F6861A" transform="translate(49,17)"/>
<path d="M0 0 C1.125 3.75 1.125 3.75 0 6 C0.99 6 1.98 6 3 6 C3 6.66 3 7.32 3 8 C1.35 8 -0.3 8 -2 8 C-2 6.02 -2 4.04 -2 2 C-1.34 2 -0.68 2 0 2 C0 1.34 0 0.68 0 0 Z " fill="#DCC6BE" transform="translate(68,69)"/>
<path d="M0 0 C0.33 0 0.66 0 1 0 C1.08114106 1.77007714 1.13925505 3.54122098 1.1875 5.3125 C1.22230469 6.29863281 1.25710937 7.28476563 1.29296875 8.30078125 C1 11 1 11 -0.51171875 12.85546875 C-1.00285156 13.23316406 -1.49398437 13.61085937 -2 14 C-2.66 13.67 -3.32 13.34 -4 13 C-3.525625 12.525625 -3.05125 12.05125 -2.5625 11.5625 C-0.31923904 7.88355203 -0.26260422 4.2378888 0 0 Z " fill="#604C45" transform="translate(63,121)"/>
<path d="M0 0 C0.33 0.99 0.66 1.98 1 3 C-2.05269846 4.52634923 -4.75845689 3.83794444 -8.125 3.5625 C-9.40632813 3.46066406 -10.68765625 3.35882812 -12.0078125 3.25390625 C-13.48894531 3.12822266 -13.48894531 3.12822266 -15 3 C-14.67 2.34 -14.34 1.68 -14 1 C-13.07316406 1.01160156 -12.14632812 1.02320312 -11.19140625 1.03515625 C-9.39509766 1.04869141 -9.39509766 1.04869141 -7.5625 1.0625 C-5.77005859 1.07990234 -5.77005859 1.07990234 -3.94140625 1.09765625 C-1.11126659 1.33901792 -1.11126659 1.33901792 0 0 Z " fill="#CB8D44" transform="translate(126,17)"/>
<path d="M0 0 C0.33 0.99 0.66 1.98 1 3 C-2.05269846 4.52634923 -4.75845689 3.83794444 -8.125 3.5625 C-9.40632813 3.46066406 -10.68765625 3.35882812 -12.0078125 3.25390625 C-13.48894531 3.12822266 -13.48894531 3.12822266 -15 3 C-14.67 2.34 -14.34 1.68 -14 1 C-13.07316406 1.01160156 -12.14632812 1.02320312 -11.19140625 1.03515625 C-9.39509766 1.04869141 -9.39509766 1.04869141 -7.5625 1.0625 C-5.77005859 1.07990234 -5.77005859 1.07990234 -3.94140625 1.09765625 C-1.11126659 1.33901792 -1.11126659 1.33901792 0 0 Z " fill="#CEA141" transform="translate(101,17)"/>
<path d="M0 0 C0.33 0.99 0.66 1.98 1 3 C-2.05269846 4.52634923 -4.75845689 3.83794444 -8.125 3.5625 C-9.40632813 3.46066406 -10.68765625 3.35882812 -12.0078125 3.25390625 C-13.48894531 3.12822266 -13.48894531 3.12822266 -15 3 C-14.67 2.34 -14.34 1.68 -14 1 C-13.07316406 1.01160156 -12.14632812 1.02320312 -11.19140625 1.03515625 C-9.39509766 1.04869141 -9.39509766 1.04869141 -7.5625 1.0625 C-5.77005859 1.07990234 -5.77005859 1.07990234 -3.94140625 1.09765625 C-1.11126659 1.33901792 -1.11126659 1.33901792 0 0 Z " fill="#CEA141" transform="translate(76,17)"/>
<path d="M0 0 C0.6875 1.625 0.6875 1.625 1 4 C-0.4375 7.25 -0.4375 7.25 -2 10 C-2.33 10 -2.66 10 -3 10 C-3.36923077 4.58461538 -3.36923077 4.58461538 -1.5 1.625 C-1.005 1.08875 -0.51 0.5525 0 0 Z " fill="#E1AB93" transform="translate(74,67)"/>
<path d="M0 0 C0.33 0 0.66 0 1 0 C1.1799928 5.21979128 0.97094808 9.07262981 -1 14 C-1.33 14 -1.66 14 -2 14 C-2.1799928 8.78020872 -1.97094808 4.92737019 0 0 Z " fill="#EA7B48" transform="translate(70,51)"/>
<path d="M0 0 C1.485 0.99 1.485 0.99 3 2 C3.51171875 4.6015625 3.51171875 4.6015625 3.6875 7.625 C3.75324219 8.62789062 3.81898437 9.63078125 3.88671875 10.6640625 C3.92410156 11.43492188 3.96148437 12.20578125 4 13 C1.12420019 8.68630028 0 5.19265239 0 0 Z " fill="#E59570" transform="translate(88,47)"/>
<path d="M0 0 C1.49341969 2.98683937 0.40648676 4.95160978 -0.4375 8.125 C-0.72496094 9.22070312 -1.01242188 10.31640625 -1.30859375 11.4453125 C-1.53675781 12.28835937 -1.76492187 13.13140625 -2 14 C-2.33 14 -2.66 14 -3 14 C-3.29341888 8.32723489 -3.00559652 5.00932754 0 0 Z " fill="#E3A286" transform="translate(78,35)"/>
<path d="M0 0 C1.09658936 3.28976808 0.79953138 4.71303767 0 8 C-1.32 7.34 -2.64 6.68 -4 6 C-2.84826645 3.53199953 -1.95216435 1.95216435 0 0 Z " fill="#2FA0CE" transform="translate(60,107)"/>
<path d="M0 0 C2.4375 1.1875 2.4375 1.1875 5 3 C5.8125 5.6875 5.8125 5.6875 6 8 C1.125 3.375 1.125 3.375 0 0 Z " fill="#735740" transform="translate(100,131)"/>
<path d="M0 0 C0.99 0 1.98 0 3 0 C3 2.62113708 2.68707555 4.50935112 2 7 C1.01 7 0.02 7 -1 7 C-0.67 4.69 -0.34 2.38 0 0 Z " fill="#D8DADE" transform="translate(69,68)"/>
<path d="M0 0 C0 0.33 0 0.66 0 1 C-1.98 1 -3.96 1 -6 1 C-6.33 1.99 -6.66 2.98 -7 4 C-8.32 3.67 -9.64 3.34 -11 3 C-7.48550811 -0.37391222 -4.73940561 -0.27342725 0 0 Z " fill="#D38B24" transform="translate(53,113)"/>
<path d="M0 0 C3.68802044 1.22934015 4.72356973 2.93859378 7 6 C6.01 6.33 5.02 6.66 4 7 C0 1.125 0 1.125 0 0 Z " fill="#2A90C2" transform="translate(114,108)"/>
</svg>
